<svg xmlns="http://www.w3.org/2000/svg" version="1.1" xmlns:xlink="http://www.w3.org/1999/xlink" xmlns:svgjs="http://svgjs.com/svgjs" width="512" height="512" x="0" y="0" viewBox="0 0 512 512" style="enable-background:new 0 0 512 512" xml:space="preserve" class=""><g><g xmlns="http://www.w3.org/2000/svg"><path d="m300.466 190.91h-89.04c-90.01 0-24.48-83.41-24.48-83.41h138s65.53 83.41-24.48 83.41z" fill="#554e56" data-original="#554e56"></path><path d="m411.426 325.38-33.49 4.69s-25.27-49.86-35.04-69.67c0 0-.01 1.33-.1 3.55-.33 7.76-1.65 26.39-6.85 37.05h-160c-6.69-13.71-6.95-40.6-6.95-40.6-9.77 19.81-35.04 69.67-35.04 69.67l-33.49-4.69c-.28-18.14 17.86-80.09 26.24-99.25s21.76-36.65 53.4-48.92 75.84-9.22 75.84-9.22 44.2-3.05 75.84 9.22 45.02 29.76 53.4 48.92 26.52 81.11 26.24 99.25z" fill="#ffa78f" data-original="#ffa78f" class=""></path><path d="m342.796 263.95c-.33 7.76-1.65 26.39-6.85 37.05h-30l5.227-23.857c1.112-5.076 5.216-8.955 10.347-9.778z" fill="#f89580" data-original="#f89580" class=""></path><g><path d="m385.186 226.13c-8.38-19.16-21.76-36.65-53.4-48.92s-75.84-9.22-75.84-9.22-5.932-.408-15-.324c15.693.146 40.787 1.768 60.84 9.544 31.64 12.27 45.02 29.76 53.4 48.92s26.52 81.11 26.24 99.25l-5.477.767c1.257 2.483 1.987 3.923 1.987 3.923l33.49-4.69c.28-18.14-17.86-80.09-26.24-99.25z" fill="#f89580" data-original="#f89580" class=""></path></g><path d="m227.946 504.5h-44c-4.418 0-8-3.582-8-8v-116h60v116c0 4.418-3.581 8-8 8z" fill="#ffa78f" data-original="#ffa78f" class=""></path><path d="m205.946 380.5v116c0 4.418-3.582 8-8 8h30c4.418 0 8-3.582 8-8v-116z" fill="#f89580" data-original="#f89580" class=""></path><path d="m227.946 504.5h-44c-4.418 0-8-3.582-8-8v-61.721h60v61.721c0 4.418-3.581 8-8 8z" fill="#d6694b" data-original="#d6694b" class=""></path><path d="m205.946 434.779v61.721c0 4.418-3.582 8-8 8h30c4.418 0 8-3.582 8-8v-61.721z" fill="#c4573a" data-original="#c4573a" class=""></path><path d="m227.946 504.5h-44c-4.418 0-8-3.582-8-8v-6c0-16.569 13.431-30 30-30 16.569 0 30 13.431 30 30v6c0 4.418-3.581 8-8 8z" fill="#918291" data-original="#918291"></path><path d="m327.946 504.5h-44c-4.418 0-8-3.582-8-8v-116h60v116c0 4.418-3.581 8-8 8z" fill="#ffa78f" data-original="#ffa78f" class=""></path><path d="m305.946 380.5v116c0 4.418-3.582 8-8 8h30c4.418 0 8-3.582 8-8v-116z" fill="#f89580" data-original="#f89580" class=""></path><path d="m327.946 504.5h-44c-4.418 0-8-3.582-8-8v-61.721h60v61.721c0 4.418-3.581 8-8 8z" fill="#d6694b" data-original="#d6694b" class=""></path><path d="m305.946 434.779v61.721c0 4.418-3.582 8-8 8h30c4.418 0 8-3.582 8-8v-61.721z" fill="#c4573a" data-original="#c4573a" class=""></path><path d="m327.946 504.5h-44c-4.418 0-8-3.582-8-8v-6c0-16.569 13.431-30 30-30 16.569 0 30 13.431 30 30v6c0 4.418-3.581 8-8 8z" fill="#918291" data-original="#918291"></path><path d="m175.946 301h160v79.5h-160z" fill="#d6694b" data-original="#d6694b" class=""></path><path d="m305.946 301h30v79.5h-30z" fill="#c4573a" data-original="#c4573a" class=""></path><path d="m175.946 301h160v30h-160z" fill="#f3c6bd" data-original="#f3c6bd"></path><path d="m118.446 391.92v64s-52.025 4.22-54.867 46.23c-.122 1.802-2.014 2.902-3.612 2.064-9.571-5.023-35.521-23.847-35.521-80.294s25.95-75.271 35.521-80.294c1.598-.838 3.49.262 3.612 2.064 2.843 42.001 54.867 46.23 54.867 46.23z" fill="#baafb9" data-original="#baafb9"></path><path d="m63.579 345.69c-.122-1.802-2.014-2.902-3.612-2.064-5.837 3.063-17.758 11.28-26.177 30.011 7.401 7.362 16.841 11.82 24.932 14.48 10.329 3.396 17.385 12.937 17.385 23.809v23.985c0 10.874-7.057 20.415-17.387 23.81-8.09 2.659-17.529 7.116-24.93 14.478 8.419 18.733 20.342 26.951 26.179 30.014 1.598.838 3.49-.262 3.612-2.064 2.842-42.011 54.867-46.23 54.867-46.23v-64c-.002.001-52.026-4.228-54.869-46.229z" fill="#aa9ea9" data-original="#aa9ea9" class=""></path><path d="m393.446 391.92v64s52.025 4.22 54.867 46.23c.122 1.802 2.014 2.902 3.612 2.064 9.571-5.023 35.521-23.847 35.521-80.294s-25.95-75.271-35.521-80.294c-1.598-.838-3.49.262-3.612 2.064-2.843 42.001-54.867 46.23-54.867 46.23z" fill="#baafb9" data-original="#baafb9"></path><path d="m451.925 343.626c-1.598-.838-3.49.262-3.612 2.064-.487 7.194-2.417 13.278-5.281 18.424 7.789 12.384 14.414 31.288 14.414 59.806 0 28.516-6.625 47.421-14.413 59.804 2.863 5.146 4.793 11.232 5.28 18.426.122 1.802 2.014 2.902 3.612 2.064 9.571-5.023 35.521-23.847 35.521-80.294s-25.95-75.271-35.521-80.294z" fill="#aa9ea9" data-original="#aa9ea9" class=""></path><path d="m126.446 491.779h-18c-3.314 0-6-2.686-6-6v-223c0-3.314 2.686-6 6-6h18c3.314 0 6 2.686 6 6v223c0 3.314-2.686 6-6 6z" fill="#d6694b" data-original="#d6694b" class=""></path><path d="m385.446 491.779h18c3.314 0 6-2.686 6-6v-223c0-3.314-2.686-6-6-6h-18c-3.314 0-6 2.686-6 6v223c0 3.314 2.687 6 6 6z" fill="#d6694b" data-original="#d6694b" class=""></path><path d="m131.998 350.884h-35.06c-4.69 0-8.492-3.802-8.492-8.492v-44.322c0-4.69 3.802-8.492 8.492-8.492h41.51c8.283 0 14.998 6.715 14.998 14.998v24.859c0 11.846-9.603 21.449-21.448 21.449z" fill="#f89580" data-original="#f89580" class=""></path><path d="m379.895 350.884h35.059c4.69 0 8.492-3.802 8.492-8.492v-44.322c0-4.69-3.802-8.492-8.492-8.492h-41.51c-8.283 0-14.998 6.715-14.998 14.998v24.859c0 11.846 9.603 21.449 21.449 21.449z" fill="#f89580" data-original="#f89580" class=""></path><path d="m134.157 466.729h-33.421c-1.817 0-3.29-1.473-3.29-3.29v-79.421c0-1.817 1.473-3.29 3.29-3.29h33.421c1.817 0 3.29 1.473 3.29 3.29v79.421c-.001 1.817-1.474 3.29-3.29 3.29z" fill="#9b8e99" data-original="#9b8e99" class=""></path><path d="m377.736 466.729h33.421c1.817 0 3.29-1.473 3.29-3.29v-79.421c0-1.817-1.473-3.29-3.29-3.29h-33.421c-1.817 0-3.29 1.473-3.29 3.29v79.421c0 1.817 1.473 3.29 3.29 3.29z" fill="#9b8e99" data-original="#9b8e99" class=""></path><path d="m277.946 336.965h-44c-4.418 0-8-3.582-8-8v-26c0-4.418 3.582-8 8-8h44c4.418 0 8 3.582 8 8v26c0 4.419-3.581 8-8 8z" fill="#fccd7f" data-original="#fccd7f" class=""></path><path d="m277.946 294.965h-30c4.418 0 8 3.582 8 8v26c0 4.418-3.582 8-8 8h30c4.418 0 8-3.582 8-8v-26c0-4.418-3.581-8-8-8z" fill="#fbc56d" data-original="#fbc56d"></path><path d="m271.138 180h-30.383c-23.642 0-42.809-19.166-42.809-42.809v-26.534c0-25.768 20.889-46.657 46.657-46.657h22.685c25.768 0 46.657 20.889 46.657 46.657v26.534c.001 23.643-19.165 42.809-42.807 42.809z" fill="#ffa78f" data-original="#ffa78f" class=""></path><path d="m267.289 64h-22.685c-1.232 0-2.449.062-3.657.156 24.057 1.867 43 21.965 43 46.501v26.534c0 23.643-19.166 42.809-42.808 42.809h30c23.642 0 42.808-19.166 42.808-42.809v-26.534c-.001-25.768-20.89-46.657-46.658-46.657z" fill="#f89580" data-original="#f89580" class=""></path><path d="m269.801 144.967c0 7.652-6.203 10.778-13.854 10.778s-13.854-3.127-13.854-10.778c0-7.652 6.203-16.93 13.854-16.93s13.854 9.278 13.854 16.93z" fill="#d6694b" data-original="#d6694b" class=""></path><path d="m324.946 107.5h-138c-8.837 0-16-7.163-16-16 0-8.837 7.163-16 16-16h138c8.837 0 16 7.163 16 16 0 8.837-7.163 16-16 16z" fill="#aa9ea9" data-original="#aa9ea9" class=""></path><path d="m324.946 75.5h-30c8.837 0 16 7.163 16 16 0 8.837-7.163 16-16 16h30c8.837 0 16-7.163 16-16 0-8.837-7.163-16-16-16z" fill="#9b8e99" data-original="#9b8e99" class=""></path><path d="m322.946 75.5h-134v-9.574c0-25.897 20.994-46.891 46.891-46.891h40.218c25.897 0 46.891 20.994 46.891 46.891z" fill="#baafb9" data-original="#baafb9"></path><path d="m270.946 75.5h-30v-60c0-4.418 3.582-8 8-8h14c4.418 0 8 3.582 8 8z" fill="#9b8e99" data-original="#9b8e99" class=""></path><path d="m255.946 155.745c-41.87 0-46.281 37.95-46.561 50.981-.051 2.381 1.88 4.332 4.261 4.332h84.601c2.381 0 4.312-1.951 4.261-4.332-.281-13.031-4.692-50.981-46.562-50.981z" fill="#685e68" data-original="#685e68"></path><path d="m255.946 155.745c-5.665 0-10.624.714-15 1.948 27.967 7.885 31.319 37.766 31.561 49.034.051 2.381-1.88 4.332-4.261 4.332h30c2.381 0 4.312-1.951 4.261-4.332-.28-13.032-4.691-50.982-46.561-50.982z" fill="#554e56" data-original="#554e56"></path><g><path d="m455.411 336.989c-2.994-1.572-6.539-1.525-9.485.124-2.962 1.659-4.866 4.678-5.092 8.069-.938 13.785-8.296 24.318-21.867 31.415-.603-.634-1.281-1.194-2.021-1.667v-16.683c7.879-.986 14-7.712 14-15.854v-44.323c0-8.142-6.121-14.869-14-15.854v-19.436c0-7.444-6.056-13.5-13.5-13.5h-2.025c-3.567-11.223-6.866-20.446-9.364-26.155-6.227-14.239-16.482-31.482-40.81-45.08 11.953-21.136-4.479-51.55-14.202-66.407 17.924-10.733 13.713-38.1-6.6-42.981v-2.727c0-29.364-23.394-53.352-52.52-54.343-1.739-6.655-7.785-11.587-14.979-11.587h-14c-7.193 0-13.24 4.932-14.98 11.588-29.126.991-52.52 24.979-52.52 54.343v2.726c-20.325 4.888-24.514 32.256-6.6 42.981-9.719 14.85-26.141 45.244-14.219 66.379-7.547 4.198-14.105 8.954-19.803 14.363-3.004 2.852-3.127 7.599-.275 10.603 2.857 3.008 7.604 3.124 10.604.275 6.541-6.21 14.539-11.461 24.297-15.943.002-.001.004-.002.006-.003 2.351-1.08 4.802-2.116 7.362-3.109 7.136-2.766 15.587-4.919 25.15-6.436-4.919 11.076-5.945 22.487-6.081 28.8-.068 3.178 1.121 6.18 3.347 8.455 2.233 2.281 5.221 3.537 8.413 3.537h84.6c3.192 0 6.18-1.256 8.413-3.537 2.226-2.274 3.415-5.277 3.347-8.456-.136-6.312-1.161-17.723-6.081-28.799 9.563 1.517 18.013 3.669 25.149 6.436 31.398 12.176 42.512 29.546 49.24 44.932 1.931 4.414 4.528 11.553 7.344 20.145h-.212c-7.444 0-13.5 6.056-13.5 13.5v19.353c-3.086.204-6.002 1.033-8.626 2.361-4.96-9.862-10.27-20.453-13.697-27.408-1.534-3.116-5.005-4.773-8.394-3.998-3.387.771-5.8 3.767-5.834 7.24-.059 6.127-1.018 22.478-4.52 33.172h-40.684c-2.837-3.663-7.265-6.035-12.247-6.035h-44c-4.981 0-9.409 2.372-12.247 6.035h-40.683c-3.491-10.679-4.457-27.039-4.521-33.172-.034-3.473-2.447-6.469-5.834-7.24-3.384-.771-6.858.882-8.394 3.998-3.427 6.955-8.737 17.547-13.697 27.408-2.624-1.328-5.54-2.157-8.626-2.361v-19.353c0-7.444-6.056-13.5-13.5-13.5h-.214c2.816-8.595 5.4-15.696 7.346-20.145 1.659-3.795-.072-8.217-3.867-9.876s-8.216.071-9.877 3.867c-2.513 5.746-5.796 14.93-9.363 26.155h-2.025c-7.444 0-13.5 6.056-13.5 13.5v19.436c-7.879.986-14 7.712-14 15.854v44.322c0 8.142 6.121 14.869 14 15.854v16.683c-.74.473-1.418 1.033-2.021 1.667-13.568-7.097-20.926-17.629-21.862-31.407-.301-7.042-8.407-11.626-14.578-8.202-52.941 25.425-52.736 148.645 0 173.863 2.99 1.569 6.537 1.527 9.485-.124 2.962-1.659 4.866-4.679 5.092-8.069.943-13.878 8.378-24.458 22.103-31.547.541.534 1.142 1.006 1.785 1.417v13.251c0 7.444 6.056 13.5 13.5 13.5h18c7.444 0 13.5-6.056 13.5-13.5v-13.251c3.001-1.918 5-5.271 5-9.089v-79.421c0-3.818-1.999-7.171-5-9.089v-17.664c12.108-3.464 21-14.624 21-27.83v-24.859c0-2.896-.556-5.663-1.557-8.208 1.504-2.989 3.08-6.12 4.664-9.273 1.011 5.48 2.425 10.957 4.394 15.523v193.882c0 8.547 6.953 15.5 15.5 15.5h44c8.547 0 15.5-6.953 15.5-15.5v-108.5h25v108.5c0 8.547 6.953 15.5 15.5 15.5h44c8.547 0 15.5-6.953 15.5-15.5v-193.881c1.968-4.566 3.382-10.043 4.394-15.523 1.584 3.153 3.159 6.283 4.664 9.273-1.001 2.545-1.557 5.312-1.557 8.208v24.859c0 13.206 8.892 24.367 21 27.83v17.664c-3.001 1.918-5 5.271-5 9.089v79.421c0 3.818 1.999 7.171 5 9.089v13.251c0 7.444 6.056 13.5 13.5 13.5h18c7.444 0 13.5-6.056 13.5-13.5v-13.251c.644-.411 1.244-.883 1.785-1.417 13.724 7.089 21.159 17.668 22.102 31.538.227 3.399 2.131 6.419 5.093 8.078 2.949 1.651 6.495 1.693 9.485.124 5.291-2.776 13.161-8.186 20.601-18.193 2.472-3.324 1.78-8.022-1.544-10.494-3.325-2.472-8.023-1.78-10.493 1.544-3.211 4.319-6.483 7.482-9.326 9.751-3.618-16.565-14.78-29.345-32.702-37.443v-64.199c17.912-8.103 29.071-20.873 32.695-37.42 20.38 14.643 31.516 59.111 21.999 100.658-.951 4.032 1.546 8.071 5.577 9.022.579.137 1.158.203 1.729.202 3.398 0 6.478-2.327 7.293-5.778 12.925-58.821-8.083-108.584-35.832-121.513zm-160.767-173.469c-4.458-4.784-10.45-9.199-18.468-12.039 4.608-13.042-5.841-30.877-20.23-30.944-14.39.066-24.837 17.902-20.23 30.944-8.018 2.841-14.011 7.256-18.468 12.04-7.501-6.704-11.802-16.268-11.802-26.33v-22.191h101v22.19c0 10.06-4.299 19.622-11.802 26.33zm-45.052-18.553c0-4.463 3.788-9.43 6.354-9.43s6.355 4.967 6.355 9.43c0 .981 0 3.279-6.355 3.279-6.354 0-6.354-2.298-6.354-3.279zm65.854-79.037v2.07h-37v-41.381c20.611 1.241 37 18.394 37 39.311zm-67-50.43c0-.276.225-.5.5-.5h14c.275 0 .5.224.5.5v52.5h-15zm-52 50.43c0-20.917 16.39-38.071 37-39.311v41.381h-37zm-9.5 17.07h138c11.264.429 11.255 16.575 0 17h-138c-11.263-.429-11.255-16.575 0-17zm-9.551 87.217c-1.063.412-2.106.833-3.138 1.26-10.119-15.827 9.184-46.035 16.19-56.038v21.751c0 9.694 2.809 19.059 7.921 27.063-7.722 1.56-14.748 3.551-20.973 5.964zm39.629 33.342c.491-7.663 2.25-16.946 7.129-24.672.325-.356.63-.737.889-1.165.136-.226.259-.456.369-.689 12.093-18.455 48.992-18.437 61.067-.002.111.234.233.465.37.692.26.43.566.811.892 1.168 4.878 7.726 6.636 17.007 7.127 24.669h-77.843zm96.501-39.306c5.113-8.006 7.921-17.37 7.921-27.063v-21.751c7.008 10.007 26.309 40.214 16.189 56.039-1.028-.426-2.071-.847-3.138-1.261-6.225-2.413-13.251-4.404-20.972-5.964zm-203.579 117.825v-17.798h15v17.798zm15 76.306v14.845h-15v-14.845zm-20 100.845v-71h25v71zm-47.696 34.21c-33.792-24.486-33.669-114.708 0-139.039 3.622 16.545 14.782 29.315 32.696 37.419v64.199c-17.912 8.094-29.072 20.864-32.696 37.421zm52.696-9.159v-10.051h15v10.051zm36-154.844c0 7.691-6.257 13.949-13.948 13.949h-29.465c-.058-.005-.116-.005-.174 0h-5.421c-.547 0-.992-.445-.992-.992v-44.323c0-.547.445-.992.992-.992h5.459c.032.003.065.003.097 0h29.903c.032.003.065.003.097 0h5.954c4.135 0 7.498 3.364 7.498 7.499zm37.5 43.564v-34.5h38.305c2.84 3.624 7.244 5.965 12.195 5.965h44c4.95 0 9.355-2.341 12.195-5.965h38.305v34.5zm45 87.52c-12.639-9.944-32.363-9.942-45 0v-18.241h45zm100-137.02h-35v-15h35zm-50.5-21.035c.275 0 .5.224.5.5v26c0 .276-.225.5-.5.5h-44c-.275 0-.5-.224-.5-.5v-26c0-.276.225-.5.5-.5zm-59.5 6.035v15h-35v-15zm10 188c0 .276-.225.5-.5.5h-44c-.275 0-.5-.224-.5-.5v-6c1.24-29.857 43.772-29.834 45 0zm0-69.221h-45v-39.279h45zm100-39.279v39.279h-45v-39.279zm0 54.279v18.241c-12.639-9.944-32.363-9.942-45 0v-18.241zm0 54.221c0 .276-.225.5-.5.5h-44c-.275 0-.5-.224-.5-.5v-6c1.24-29.857 43.772-29.834 45 0zm73.5-138.116v14.845h-15v-14.845zm-20 100.845v-71h25v71zm5-177.151v-17.798h15v17.798zm-21 47.358v-24.859c0-4.135 3.363-7.499 7.498-7.499h5.954c.032.003.065.003.097 0h29.903c.032.003.065.003.097 0h5.459c.547 0 .992.445.992.992v44.322c0 .547-.445.992-.992.992h-5.421c-.058-.005-.116-.005-.174 0h-29.465c-7.691 0-13.948-6.257-13.948-13.948zm21 154.844v-10.051h15v10.051z" fill="#000000" data-original="#000000" class=""></path><path d="m215.915 263.5c9.931-.344 9.923-14.66 0-15h-11c-9.931.344-9.923 14.66 0 15z" fill="#000000" data-original="#000000" class=""></path><path d="m295.978 263.5h11c9.931-.344 9.923-14.66 0-15h-11c-9.931.344-9.924 14.66 0 15z" fill="#000000" data-original="#000000" class=""></path></g></g></g></svg>