<svg xmlns="http://www.w3.org/2000/svg" version="1.1" xmlns:xlink="http://www.w3.org/1999/xlink" xmlns:svgjs="http://svgjs.com/svgjs" width="512" height="512" x="0" y="0" viewBox="0 0 60 60" style="enable-background:new 0 0 512 512" xml:space="preserve" class=""><g><path xmlns="http://www.w3.org/2000/svg" d="M4.935,59.251a.5.5,0,0,1-.3-.9l2.042-1.56L4.129,58.263a.5.5,0,0,1-.545-.836l7.081-5.178L2.708,56.843a.5.5,0,0,1-.526-.85L9,51.467,1.633,55.719a.5.5,0,0,1-.527-.85l13.112-8.692L1.668,53.422a.5.5,0,0,1-.52-.854L14.214,44.2,6.283,48.773a.5.5,0,0,1-.515-.856l6.211-3.886-2.253,1.3a.5.5,0,0,1-.517-.855l7.99-5.027-3.765,2.174a.5.5,0,0,1-.517-.855l8.445-5.32-4.147,2.394a.5.5,0,0,1-.523-.852l15.016-9.755-9.195,5.309a.5.5,0,0,1-.525-.851l10.728-7.044L27.255,27.8a.5.5,0,0,1-.525-.851l5.13-3.372-.905.523a.5.5,0,0,1-.529-.848l3.64-2.447a.5.5,0,0,1-.287-.909L37.1,17.561a.511.511,0,0,1-.228-.177.5.5,0,0,1,.08-.668l3.912-3.385,0,0a.5.5,0,0,1,.183-.683l1.884-1.088a.5.5,0,0,1,.577.811l-1.923,1.664,2.968-1.714a.5.5,0,0,1,.538.842l-1.627,1.145,1.95-1.126a.5.5,0,0,1,.529.848l-2.82,1.9,3.192-1.842a.5.5,0,0,1,.525.851L41.713,18.3l5.58-3.222a.5.5,0,0,1,.524.851L37.086,22.976,47.7,16.851a.5.5,0,0,1,.523.852L33.2,27.457l10.136-5.852a.5.5,0,0,1,.516.856l-8.436,5.314,4.138-2.388a.5.5,0,0,1,.516.856l-7.99,5.027L35.848,29.1a.5.5,0,0,1,.515.857l-6.219,3.892,2.261-1.306a.5.5,0,0,1,.52.854L19.861,41.764l7.851-4.533a.5.5,0,0,1,.526.85L15.127,46.773l7.2-4.155a.5.5,0,0,1,.527.85L16.04,47.99,18.2,46.745a.5.5,0,0,1,.545.836l-7.081,5.178,1.235-.713a.5.5,0,0,1,.554.83l-3.663,2.8a.49.49,0,0,1,.171.176.5.5,0,0,1-.183.682L5.185,59.184A.5.5,0,0,1,4.935,59.251Z" fill="#6d4732" data-original="#6d4732" class=""></path><path xmlns="http://www.w3.org/2000/svg" d="M41.827,45.8a.5.5,0,0,1-.289-.908L48.73,39.8l-9.64,5.565a.5.5,0,0,1-.523-.851l3.875-2.522-3.326,1.92a.5.5,0,0,1-.52-.852l2.743-1.769-1.852,1.068a.5.5,0,0,1-.535-.843l9.774-6.775-8.982,5.186a.5.5,0,0,1-.533-.845l8.769-6.018-8.349,4.821a.5.5,0,0,1-.534-.844l7.62-5.272-7.47,4.313a.5.5,0,0,1-.525-.851l.835-.549-.67.386a.5.5,0,0,1-.532-.845l1.927-1.314-1.9,1.1a.5.5,0,0,1-.56-.825l5.262-4.154-5.793,3.344a.5.5,0,0,1-.54-.84l1.775-1.262L36.48,31.452a.5.5,0,0,1-.534-.844L36,30.573l-.248.143a.5.5,0,0,1-.543-.838l1.961-1.418-2.329,1.345a.5.5,0,0,1-.564-.823l4.347-3.5L33.48,28.447a.5.5,0,0,1-.549-.833l3.011-2.26-3.521,2.034a.5.5,0,0,1-.544-.838L34,25.008l-2.508,1.448a.5.5,0,0,1-.566-.821l4.5-3.674-5.347,3.087a.5.5,0,0,1-.538-.841l.911-.643-1.179.681a.5.5,0,0,1-.549-.833l3.029-2.275-3.636,2.1a.5.5,0,0,1-.539-.841l1.193-.845-1.7.982a.5.5,0,0,1-.563-.823l4.649-3.734-6.2,3.58a.5.5,0,0,1-.533-.845l.606-.416-1.518.877a.5.5,0,0,1-.552-.832l5.394-4.079-8.138,4.7a.5.5,0,0,1-.528-.849L21.507,18.9l-4.519,2.609a.5.5,0,0,1-.524-.85l3.345-2.2-4.654,2.686a.5.5,0,0,1-.527-.849l6.223-4.142-5.872,3.391a.5.5,0,0,1-.527-.85l6.007-3.983-5.485,3.167a.5.5,0,0,1-.525-.851l5.115-3.357-4.431,2.558a.5.5,0,0,1-.522-.853l2.853-1.84L15.437,14.7a.5.5,0,0,1-.528-.849l6.6-4.4-5.374,3.1a.5.5,0,0,1-.539-.842l6.793-4.8L17.645,9.65a.5.5,0,0,1-.565-.822l4.211-3.41a.528.528,0,0,1-.46-.25.5.5,0,0,1,.183-.683l5.011-2.894a.5.5,0,0,1,.565.822l-3.945,3.2L31.317.6a.5.5,0,0,1,.539.841l-6.791,4.8L34.4.855a.5.5,0,0,1,.528.85l-6.6,4.4,6.2-3.581a.5.5,0,0,1,.522.853L32.19,5.222,34.169,4.08a.5.5,0,0,1,.524.851L29.578,8.289l4.382-2.53a.5.5,0,0,1,.526.849l-6,3.982,5.468-3.157a.5.5,0,0,1,.528.849l-6.232,4.147,5.9-3.4a.5.5,0,0,1,.524.851l-3.336,2.195,3.111-1.8a.5.5,0,0,1,.528.849l-1.818,1.211,1.688-.974a.5.5,0,0,1,.552.832l-5.4,4.08,5.7-3.289a.5.5,0,0,1,.534.846l-.608.416.688-.4a.5.5,0,0,1,.563.823l-4.649,3.735,5.4-3.116a.5.5,0,0,1,.539.842l-1.188.842,1.478-.854a.5.5,0,0,1,.55.833l-3.03,2.274L39.5,17.184a.5.5,0,0,1,.538.842l-.914.644,1.181-.681a.5.5,0,0,1,.566.821L36.37,22.483,41.717,19.4a.5.5,0,0,1,.544.838l-2.12,1.542,2.507-1.448a.5.5,0,0,1,.55.833l-3.01,2.258,3.519-2.031a.5.5,0,0,1,.564.822l-4.349,3.5,5.184-2.993a.5.5,0,0,1,.543.838l-1.961,1.418,2.5-1.443a.5.5,0,0,1,.535.845l-.048.033.512-.3a.5.5,0,0,1,.54.841l-1.777,1.263,2.612-1.508a.5.5,0,0,1,.559.826l-5.26,4.152,7.545-4.357a.5.5,0,0,1,.532.847L50.008,27.5l3.729-2.154a.5.5,0,0,1,.526.85l-.835.55,3.4-1.964a.5.5,0,0,1,.534.844l-7.621,5.272,8.863-5.117a.5.5,0,0,1,.534.845l-8.769,6.017,8.346-4.819a.5.5,0,0,1,.535.845l-9.773,6.773,9.043-5.221a.5.5,0,0,1,.521.853L56.3,32.84l1.912-1.1a.5.5,0,0,1,.522.852l-3.88,2.525,2.8-1.617a.5.5,0,0,1,.539.841L51,39.42l5.18-2.99a.5.5,0,0,1,.53.846L54.96,38.462a.493.493,0,0,1,.365.245.5.5,0,0,1-.182.683L44.478,45.547a.5.5,0,0,1-.531-.847l.527-.356-2.4,1.384A.5.5,0,0,1,41.827,45.8Z" fill="#bfdbf0" data-original="#bfdbf0"></path><path xmlns="http://www.w3.org/2000/svg" d="M34.738,32.008a.5.5,0,0,1-.33-.876L37.065,28.8l-3.845,2.22a.5.5,0,0,1-.547-.835l4.957-3.659-5.645,3.259a.5.5,0,0,1-.534-.845l3.078-2.125-3.5,2.018a.5.5,0,0,1-.534-.844l3.078-2.122-3.493,2.017a.5.5,0,0,1-.538-.842l4.128-2.9L29.064,26.8a.5.5,0,0,1-.527-.85l.395-.262-.186.107a.5.5,0,0,1-.54-.84L32.49,21.9l-1.757,1.014a.5.5,0,0,1-.543-.838L33.7,19.535a.5.5,0,0,1-.132-.845l3.047-2.569a.5.5,0,0,1,.2-.655l1.876-1.083a.5.5,0,0,1,.573.815l-.738.621,1.544-.891a.5.5,0,0,1,.543.839l-1.968,1.424,2.341-1.352a.5.5,0,0,1,.54.841l-4.284,3.057,4.845-2.8a.5.5,0,0,1,.527.85l-.4.265.627-.362a.5.5,0,0,1,.538.842l-4.124,2.9L43.9,18.754a.5.5,0,0,1,.535.845l-3.079,2.123,3.389-1.958a.5.5,0,0,1,.534.845L42.2,22.735,44.84,21.21a.5.5,0,0,1,.547.835L40.43,25.7l.525-.3a.5.5,0,0,1,.58.809l-4.5,3.947.011.018a.5.5,0,0,1-.183.683L34.988,31.94A.49.49,0,0,1,34.738,32.008Z" fill="#9ebbce" data-original="#9ebbce"></path><path xmlns="http://www.w3.org/2000/svg" d="M57.382,24.6c-4.2.985-8.757.9-12.055-2.335a2.578,2.578,0,0,0,.228-1.491c3.171-2.294,4.33-4.775.716-7.388-2.243-3.038-4.995-1.81-6.921.895a2.3,2.3,0,0,0-1.776.309C31.7,8.262,37.277,3.136,34.633.64,29.15-.894,22.694,2.289,18.982,6.332c-3.373,3.746-5.9,9.7-4.513,14.71,2.189,2.659,7.8-2.749,13.885,2.964a2.484,2.484,0,0,0-.253,1.537C19.269,34.528,10.067,43.271,1.319,52.3-1,55.639,4.24,60.9,7.676,58.7c8.942-8.77,17.718-17.828,26.648-26.649a2.237,2.237,0,0,0,1.705-.276c5.122,5.286.527,12.446,3.065,13.863,10.41,2.354,22.852-9.289,20.287-19.956C58.813,24.253,58.744,24.6,57.382,24.6ZM42.071,12.955c1.624-1.166,2.8.611,3.751,1.567,2.463,1.736,1.5,3.649-.628,5.272a26.415,26.415,0,0,0-4.874-5.1A12.491,12.491,0,0,1,42.071,12.955Zm-1.306,3.5c1.2.9,4.7,3.775,3.516,5.55C41,24.063,36.919,32.723,32.751,29.72c-1.31-1.093-4.391-3.395-3.356-5.4C31.912,22.332,37.7,13.6,40.765,16.455ZM17.536,20.3c-6.972,1.529.67-19.652,14.4-18.7C36.9.909,30.9,9.286,36.731,15.175c-2.61,2.871-5.21,5.136-7.769,7.914C25.409,20.089,22.054,19.9,17.536,20.3Zm2.017,25.1-9.32,9.324c-2.249,2.249-3.739,5.01-6.762,1.956-3.059-3.092-.435-4.673,1.809-6.917l23.211-23.2a26.98,26.98,0,0,0,4.838,5.058ZM58.431,29.073C59.241,40.6,38.552,50.2,39.729,41.93a12.693,12.693,0,0,0-2.722-10.837c2.682-2.771,4.928-5.269,7.643-7.868C51.5,29.883,59.677,21.98,58.431,29.073Z" fill="#262626" data-original="#262626" class=""></path></g></svg>