<svg xmlns="http://www.w3.org/2000/svg" version="1.1" xmlns:xlink="http://www.w3.org/1999/xlink" xmlns:svgjs="http://svgjs.com/svgjs" width="512" height="512" x="0" y="0" viewBox="0 0 60 60" style="enable-background:new 0 0 512 512" xml:space="preserve" class=""><g><path xmlns="http://www.w3.org/2000/svg" d="m9.8 37.86a.5.5 0 0 1 -.284-.911l9.766-6.749-11.141 6.436a.5.5 0 0 1 -.523-.852l3.648-2.368-3.92 2.263a.5.5 0 0 1 -.526-.851l3.836-2.528-4.135 2.388a.5.5 0 0 1 -.542-.838l7.015-5.059-7.685 4.438a.5.5 0 0 1 -.553-.831l6.066-4.619-6.776 3.912a.5.5 0 0 1 -.669-.159.5.5 0 0 1 .123-.677l3.3-2.419-3.384 1.954a.5.5 0 0 1 -.575-.813l3.534-3.032-2.913 1.682a.5.5 0 0 1 -.572-.815l.9-.764a.493.493 0 0 1 -.512-.093.5.5 0 0 1 -.126-.572l.78-1.8a.51.51 0 0 1 -.151-.162.5.5 0 0 1 .184-.684l.59-.337a.5.5 0 0 1 .583.061.5.5 0 0 1 .126.571l-.59 1.365 3.464-2a.5.5 0 0 1 .572.815l-.876.739 2.7-1.557a.5.5 0 0 1 .575.813l-3.538 3.029 6.666-3.848a.5.5 0 0 1 .546.836l-3.3 2.42 5.645-3.259a.5.5 0 0 1 .553.83l-6.067 4.619 9.444-5.452a.5.5 0 0 1 .542.838l-7.016 5.059 10.221-5.9a.5.5 0 0 1 .525.85l-3.83 2.523 5.847-3.375a.5.5 0 0 1 .522.851l-3.661 2.378 5.282-3.05a.5.5 0 0 1 .534.844l-9.761 6.742 9.72-5.612a.5.5 0 0 1 .524.85l-3.1 2.031 2.882-1.663a.5.5 0 0 1 .529.847l-3.635 2.446 3.431-1.981a.5.5 0 0 1 .547.835l-5.422 4.005 4.782-2.761a.5.5 0 0 1 .558.826l-3.556 2.78.689-.4a.5.5 0 0 1 .584.8l-2.218 1.987a.506.506 0 0 1 .072.1.5.5 0 0 1 -.182.682l-2.184 1.261a.5.5 0 0 1 -.584-.8l.846-.758-2.711 1.564a.5.5 0 0 1 -.558-.826l3.553-2.776-6.244 3.6a.5.5 0 0 1 -.547-.835l5.424-4.01-8.4 4.847a.5.5 0 0 1 -.529-.848l3.632-2.433-5.7 3.291a.5.5 0 0 1 -.524-.851l3.094-2.025-4.986 2.878a.494.494 0 0 1 -.25.067z" fill="#415256" data-original="#415256" class=""></path><path xmlns="http://www.w3.org/2000/svg" d="m13.041 42.5a.5.5 0 0 1 -.3-.9l.9-.667-.364.209a.5.5 0 0 1 -.563-.823l2.934-2.366-2.368 1.367a.5.5 0 0 1 -.556-.828l1.576-1.221-1.019.588a.5.5 0 0 1 -.627-.76l1.735-1.993-1.108.639a.5.5 0 0 1 -.736-.548l.3-1.256a.5.5 0 0 1 -.061-.9l.5-.29a.508.508 0 0 1 .549.032.5.5 0 0 1 .188.517l-.236 1 2.7-1.557a.5.5 0 0 1 .627.761l-1.738 1.996 4.792-2.767a.5.5 0 0 1 .557.829l-1.575 1.219 1.576-.909a.5.5 0 0 1 .563.822l-2.934 2.367 2.377-1.372a.5.5 0 0 1 .548.834l-.906.671.362-.209a.5.5 0 0 1 .6.789l-1.868 1.851 1.273-.735a.5.5 0 0 1 .712.624l-.551 1.331a.5.5 0 0 1 .348.923l-1.107.639a.5.5 0 0 1 -.712-.624l.537-1.3-3.348 1.937a.5.5 0 0 1 -.6-.788l1.868-1.851-4.594 2.652a.491.491 0 0 1 -.251.067z" fill="#d7af98" data-original="#d7af98"></path><path xmlns="http://www.w3.org/2000/svg" d="m11.607 59.476a.5.5 0 0 1 -.28-.914l9.522-6.457-12.609 7.28a.5.5 0 0 1 -.522-.852l8.133-5.283-8.827 5.1a.5.5 0 0 1 -.522-.852l8.5-5.538-9.221 5.322a.5.5 0 0 1 -.522-.851l6.784-4.413-7.413 4.282a.5.5 0 0 1 -.522-.853l4.674-3.025-5.182 2.991a.5.5 0 0 1 -.528-.849l6.221-4.141-6.886 3.977a.5.5 0 0 1 -.532-.844l6.547-4.484-7.142 4.119a.5.5 0 0 1 -.54-.839l6.427-4.58-5.887 3.4a.5.5 0 0 1 -.531-.847l1.369-.925-.838.483a.5.5 0 0 1 -.552-.83l3.446-2.627-2.883 1.66a.5.5 0 0 1 -.573-.814l2.368-2.008-1.613.93a.5.5 0 0 1 -.573-.813l.575-.488a.5.5 0 0 1 -.359-.778l.832-1.228a.51.51 0 0 1 -.093-.117.5.5 0 0 1 .183-.683l.842-.487a.5.5 0 0 1 .664.712l-.38.562 2.184-1.261a.5.5 0 0 1 .573.814l-.162.137 1.629-.939a.5.5 0 0 1 .573.813l-2.361 2.007 4.854-2.8a.5.5 0 0 1 .553.83l-3.453 2.625 5.964-3.443a.5.5 0 0 1 .531.847l-1.364.926 3.047-1.76a.5.5 0 0 1 .54.84l-6.424 4.58 9.349-5.4a.5.5 0 0 1 .532.845l-6.546 4.484 9.2-5.311a.5.5 0 0 1 .527.849l-6.228 4.143 8.618-4.973a.5.5 0 0 1 .521.852l-4.677 3.027 6.7-3.865a.5.5 0 0 1 .522.852l-6.775 4.407 9.081-5.243a.5.5 0 0 1 .522.851l-8.5 5.538 9.167-5.292a.5.5 0 0 1 .523.851l-8.151 5.295 8.1-4.677a.5.5 0 0 1 .53.847l-9.521 6.455 9.311-5.375a.5.5 0 0 1 .536.843l-8.107 5.666 7.638-4.409a.5.5 0 0 1 .537.841l-5.278 3.709 4.747-2.74a.5.5 0 0 1 .543.838l-3.669 2.643 3.125-1.8a.5.5 0 0 1 .576.811l-5.301 4.568a.434.434 0 0 1 .07.094.5.5 0 0 1 -.182.683l-2.436 1.403a.5.5 0 0 1 -.576-.811l3.751-3.233-7.007 4.044a.5.5 0 0 1 -.543-.838l3.667-2.649-6.044 3.492a.5.5 0 0 1 -.537-.842l5.275-3.7-7.877 4.548a.5.5 0 0 1 -.536-.843l8.114-5.668-11.282 6.508a.5.5 0 0 1 -.25.068z" fill="#415256" data-original="#415256" class=""></path><path xmlns="http://www.w3.org/2000/svg" d="m18.1 34.4a.5.5 0 0 1 -.312-.89l3.125-2.494-5.542 3.2a.5.5 0 0 1 -.546-.836l4.461-3.28-6.013 3.47a.5.5 0 0 1 -.551-.831l5.5-4.169-6.817 3.935a.5.5 0 0 1 -.542-.839l2.88-2.066-3.432 1.981a.5.5 0 0 1 -.575-.813l4.055-3.459-4.763 2.75a.5.5 0 0 1 -.547-.835l.266-.2-.261.151a.5.5 0 0 1 -.617-.772l2.01-2.179-2.126 1.232a.5.5 0 0 1 -.619-.77l.436-.478-.116.067a.5.5 0 0 1 -.741-.528l.164-.837a.5.5 0 0 1 -.081-.9l.486-.28a.506.506 0 0 1 .541.026.5.5 0 0 1 .2.5l-.118.605 1.97-1.136a.5.5 0 0 1 .619.77l-.437.479 2.167-1.251a.5.5 0 0 1 .617.771l-2.01 2.179 5.118-2.954a.5.5 0 0 1 .547.835l-.261.192 1.786-1.03a.5.5 0 0 1 .574.813l-4.056 3.459 7.408-4.276a.5.5 0 0 1 .542.839l-2.877 2.066 5.038-2.908a.5.5 0 0 1 .552.831l-5.5 4.169 6.95-4.013a.5.5 0 0 1 .546.836l-4.464 3.28 3.441-1.987a.5.5 0 0 1 .561.823l-3.124 2.5 1.179-.681a.5.5 0 1 1 .5.865l-6.944 4.01a.491.491 0 0 1 -.247.058z" fill="#e7c1a7" data-original="#e7c1a7"></path><path xmlns="http://www.w3.org/2000/svg" d="m15.95 26.338a.5.5 0 0 1 -.285-.911l4.24-2.94-5.957 3.44a.5.5 0 0 1 -.524-.851l1.554-1.018-2.723 1.571a.5.5 0 0 1 -.527-.849l5.006-3.342-6.547 3.779a.5.5 0 0 1 -.529-.848l7.555-5.084-9.359 5.4a.5.5 0 0 1 -.52-.853l3.5-2.239-4.634 2.678a.5.5 0 0 1 -.522-.852l7.189-4.668-8.625 4.977a.5.5 0 0 1 -.519-.854l6.234-3.993-6.67 3.85a.5.5 0 0 1 -.524-.85l9.505-6.253-8.723 5.035a.5.5 0 0 1 -.518-.854l2.079-1.319-1.377.8a.5.5 0 0 1 -.519-.854l1.614-1.036-.915.529a.5.5 0 0 1 -.531-.847l8.022-5.441-7.206 4.159a.5.5 0 0 1 -.522-.852l1.913-1.248-1.2.7a.5.5 0 0 1 -.527-.849l2.92-1.933-2.195 1.262a.5.5 0 0 1 -.523-.852l.522-.34a.492.492 0 0 1 -.5-.226.5.5 0 0 1 .139-.679l3.567-2.46-2.812 1.62a.5.5 0 0 1 -.531-.843l1.034-.7-.278.16a.5.5 0 0 1 -.5-.866l12.244-7.072a.5.5 0 0 1 .531.847l-1.022.692 1.63-.94a.5.5 0 0 1 .534.843l-3.576 2.467 4.382-2.531a.5.5 0 0 1 .523.852l-.03.019.5-.29a.5.5 0 0 1 .675.17.5.5 0 0 1 -.149.68l-2.908 1.928 3.592-2.073a.5.5 0 0 1 .522.852l-1.919 1.246 2.51-1.448a.5.5 0 0 1 .531.846l-8.019 5.447 9.186-5.3a.5.5 0 0 1 .519.854l-1.6 1.017 2.158-1.245a.5.5 0 0 1 .517.854l-2.094 1.326 2.673-1.543a.5.5 0 0 1 .525.851l-9.5 6.25 10.63-6.137a.5.5 0 0 1 .519.854l-6.24 4 6.379-3.683a.5.5 0 0 1 .522.852l-7.181 4.663 6.866-3.964a.5.5 0 0 1 .519.854l-3.5 2.241 3.15-1.822a.5.5 0 0 1 .529.848l-7.559 5.086 7.262-4.191a.5.5 0 0 1 .528.848l-5.007 3.343 4.677-2.7a.5.5 0 0 1 .525.85l-1.546 1.015 1.182-.682a.5.5 0 0 1 .535.844l-4.242 2.941 3.916-2.253a.5.5 0 0 1 .539.841l-2.725 1.925 2.372-1.369a.5.5 0 0 1 .559.826l-2.257 1.769 1.9-1.1a.5.5 0 0 1 .674.7l-.961 1.541.522-.3a.5.5 0 0 1 .5.865l-2.257 1.3a.5.5 0 0 1 -.674-.7l.961-1.54-6.3 3.636a.5.5 0 0 1 -.558-.826l2.252-1.768-5.673 3.276a.5.5 0 0 1 -.539-.841l2.727-1.928-4.962 2.864a.5.5 0 0 1 -.25.067z" fill="#4c6268" data-original="#4c6268" class=""></path><path xmlns="http://www.w3.org/2000/svg" d="m10.577 21.364a.5.5 0 0 1 -.375-.83l1.867-2.12-3.1 1.79a.5.5 0 0 1 -.617-.771l1.922-2.085-1.989 1.152a.5.5 0 0 1 -.613-.776l.8-.84a.5.5 0 0 1 -.129-.918l2.257-1.31a.5.5 0 0 1 .613.777l-.456.481 1.863-1.075a.5.5 0 0 1 .617.771l-1.923 2.09 2.9-1.672a.5.5 0 0 1 .625.763l-1.867 2.12 1.724-.995a.5.5 0 1 1 .5.865l-4.369 2.519a.489.489 0 0 1 -.25.064z" fill="#415256" data-original="#415256" class=""></path><path xmlns="http://www.w3.org/2000/svg" d="m21.385 21.307a.5.5 0 0 1 -.378-.828l1.979-2.28-3.16 1.824a.5.5 0 0 1 -.6-.789l1.564-1.534-1.5.866a.5.5 0 0 1 -.617-.773l.833-.9a.5.5 0 0 1 -.168-.926l2.262-1.311a.5.5 0 0 1 .617.773l-.573.619 2.044-1.18a.5.5 0 0 1 .6.789l-1.563 1.543 2.343-1.352a.5.5 0 0 1 .628.761l-1.979 2.279 1.99-1.149a.5.5 0 1 1 .5.866l-4.572 2.639a.49.49 0 0 1 -.25.063z" fill="#415256" data-original="#415256" class=""></path><path xmlns="http://www.w3.org/2000/svg" d="m28.823 59.479a.5.5 0 0 1 -.35-.857l1.358-1.338-3.551 2.05a.5.5 0 0 1 -.549-.833l.373-.279a.5.5 0 0 1 -.447-.827l2.135-2.386-1.512.873a.5.5 0 0 1 -.739-.534l.324-1.558a.491.491 0 0 1 -.267-.222.5.5 0 0 1 .182-.682l.5-.291a.5.5 0 0 1 .739.534l-.276 1.329 3.257-1.879a.5.5 0 0 1 .623.766l-2.137 2.386 4.233-2.442a.5.5 0 0 1 .549.833l-.368.278a.519.519 0 0 1 .47.193.5.5 0 0 1 -.047.659l-1.36 1.34.687-.4a.5.5 0 0 1 .5.866l-4.074 2.351a.49.49 0 0 1 -.253.07z" fill="#e7c1a7" data-original="#e7c1a7"></path><path xmlns="http://www.w3.org/2000/svg" d="m7.215 59.47a.492.492 0 0 1 -.311-.109.5.5 0 0 1 -.168-.537l.406-1.335-3.271 1.888a.5.5 0 0 1 -.617-.773l2.118-2.291-3.434 1.987a.5.5 0 0 1 -.592-.8l2.036-1.922-2.082 1.199a.5.5 0 0 1 -.648-.735l1.028-1.342-.4.231a.5.5 0 0 1 -.722-.595l.2-.592a.47.47 0 0 1 -.158-.176.5.5 0 0 1 .182-.682l.5-.291a.5.5 0 0 1 .723.594l-.07.2 1.4-.806a.5.5 0 0 1 .647.735l-1.025 1.35 3.631-2.1a.5.5 0 0 1 .593.8l-2.037 1.922 2.583-1.49a.5.5 0 0 1 .617.772l-2.118 2.291 1.511-.872a.5.5 0 0 1 .729.578l-.44 1.45a.5.5 0 0 1 .222.931l-.783.452a.5.5 0 0 1 -.25.068z" fill="#e7c1a7" data-original="#e7c1a7"></path><path xmlns="http://www.w3.org/2000/svg" d="m39.115 59.47a.5.5 0 0 1 -.379-.826l.938-1.091-1.394.8a.5.5 0 0 1 -.615-.773l1.651-1.77-1.036.6a.5.5 0 0 1 -.58-.81l.339-.3a.511.511 0 0 1 -.4-.191.5.5 0 0 1 .03-.654l1.545-1.622-.933.538a.5.5 0 0 1 -.6-.793l.968-.931-.372.215a.5.5 0 0 1 -.591-.8l.726-.676-.135.077a.5.5 0 0 1 -.6-.786l1.241-1.24-.638.368a.5.5 0 0 1 -.608-.781l1.436-1.479-.828.477a.5.5 0 0 1 -.621-.767l1.81-2-1.189.685a.5.5 0 0 1 -.587-.8l.529-.481a.5.5 0 0 1 -.522-.837l.362-.319a.49.49 0 0 1 -.433-.2.5.5 0 0 1 .059-.663l.767-.718-.175.1a.5.5 0 0 1 -.74-.529l.336-1.7a.5.5 0 0 1 -.1-.909l.507-.292a.5.5 0 0 1 .74.53l-.293 1.487 2.986-1.723a.5.5 0 0 1 .592.8l-.767.717.175-.1a.5.5 0 0 1 .58.807l-.363.32a.488.488 0 0 1 .436.2.5.5 0 0 1 -.066.665l-.529.48a.5.5 0 0 1 .563.8l-1.81 2 1.189-.685a.5.5 0 0 1 .608.781l-1.436 1.479.828-.477a.5.5 0 0 1 .6.786l-1.232 1.241.636-.367a.5.5 0 0 1 .591.8l-.729.68.138-.08a.5.5 0 0 1 .6.793l-.966.928.37-.213a.5.5 0 0 1 .612.778l-1.547 1.624.935-.539a.5.5 0 0 1 .579.808l-.339.3h.01a.5.5 0 0 1 .365.841l-1.65 1.768 1.035-.6a.5.5 0 0 1 .629.759l-.939 1.09.31-.177a.5.5 0 0 1 .5.865l-2.859 1.642a.49.49 0 0 1 -.25.07z" fill="#6d4e45" data-original="#6d4e45"></path><path xmlns="http://www.w3.org/2000/svg" d="m55.876 44.44a.5.5 0 0 1 -.391-.812l.329-.411-.681.393a.5.5 0 0 1 -.635-.752l1.9-2.281-2.655 1.532a.5.5 0 0 1 -.571-.815l.929-.78-1.347.777a.5.5 0 0 1 -.568-.818l1.814-1.507-2.546 1.47a.5.5 0 0 1 -.555-.83l1.777-1.367-2.595 1.5a.5.5 0 0 1 -.553-.831l2.837-2.155-4.056 2.347a.5.5 0 0 1 -.556-.828l4.993-3.853-7.154 4.13a.5.5 0 0 1 -.53-.847l1.813-1.227-3.36 1.939a.5.5 0 0 1 -.544-.837l5.933-4.3-6.624 3.815a.5.5 0 0 1 -.542-.839l3.875-2.786-3.333 1.924a.5.5 0 0 1 -.571-.816l3.891-3.269-3.32 1.915a.5.5 0 0 1 -.6-.789l2.037-2-1.437.829a.5.5 0 0 1 -.609-.781l.376-.388a.5.5 0 0 1 -.493-.653l.221-.69a.507.507 0 0 1 -.178-.181.5.5 0 0 1 .183-.683l.5-.288a.5.5 0 0 1 .727.586l-.106.329 1.584-.914a.5.5 0 0 1 .61.78l-.228.235 1.76-1.015a.5.5 0 0 1 .6.789l-2.037 2 4.83-2.788a.5.5 0 0 1 .571.815l-3.891 3.269 7.079-4.083a.5.5 0 0 1 .542.839l-3.877 2.787 6.283-3.626a.5.5 0 0 1 .544.837l-5.935 4.3 7.138-4.12a.5.5 0 0 1 .53.847l-1.804 1.226 1.525-.879a.5.5 0 0 1 .555.828l-5 3.854 4.44-2.562a.5.5 0 0 1 .552.831l-2.832 2.152 2.28-1.314a.5.5 0 0 1 .554.829l-1.782 1.371 1.186-.685a.5.5 0 0 1 .568.819l-1.82 1.5 1.113-.643a.5.5 0 0 1 .571.815l-.931.783.134-.078a.5.5 0 0 1 .635.752l-1.894 2.281.562-.325a.5.5 0 0 1 .641.746l-.833 1.04a.487.487 0 0 1 .141.157.5.5 0 0 1 -.182.682l-1.257.726a.489.489 0 0 1 -.25.07z" fill="#cfd2d3" data-original="#cfd2d3"></path><path xmlns="http://www.w3.org/2000/svg" d="m41.39 39.47a.5.5 0 0 1 -.442-.736l.76-1.425-3.6 2.078a.5.5 0 0 1 -.588-.8l1.806-1.667-2.046 1.18a.5.5 0 0 1 -.577-.811l1.976-1.712-1.4.808a.5.5 0 0 1 -.594-.8l2.9-2.764-2.305 1.338a.5.5 0 0 1 -.59-.8l2.681-2.486-2.091 1.208a.5.5 0 0 1 -.614-.774l2.021-2.156-1.407.812a.5.5 0 0 1 -.591-.067.5.5 0 0 1 -.109-.584l.541-1.113a.5.5 0 0 1 -.288-.931l1.161-.67a.5.5 0 0 1 .7.651l-.5 1.033 2.917-1.682a.5.5 0 0 1 .615.774l-2.019 2.153 3.013-1.739a.5.5 0 0 1 .59.8l-2.681 2.486 2.091-1.207a.5.5 0 0 1 .594.795l-2.9 2.764 2.308-1.332a.5.5 0 0 1 .577.81l-1.976 1.712 1.4-.807a.5.5 0 0 1 .589.8l-1.812 1.664 1.219-.7a.5.5 0 0 1 .691.668l-.76 1.426.062-.035a.5.5 0 1 1 .5.865l-1.572.903a.49.49 0 0 1 -.25.07z" fill="#b6bbbc" data-original="#b6bbbc"></path><path xmlns="http://www.w3.org/2000/svg" d="m11.92 48.47a.5.5 0 0 1 -.33-.875l.721-.635-2.478 1.43a.5.5 0 0 1 -.562-.825l2.044-1.626-3.681 2.125a.5.5 0 0 1 -.539-.839l.9-.643-1.675.967a.5.5 0 0 1 -.552-.831l4.123-3.118-5.049 2.911a.5.5 0 0 1 -.545-.836l3.53-2.58-3.95 2.28a.5.5 0 0 1 -.55-.833l3.588-2.69-3.772 2.177a.5.5 0 0 1 -.556-.828l2.369-1.827-2.275 1.314a.5.5 0 0 1 -.591-.8l1.85-1.722-1.577.91a.5.5 0 0 1 -.644-.739l.742-.954a.5.5 0 0 1 -.241-.933l1.842-1.063a.5.5 0 0 1 .644.739l-.626.8 3.18-1.826a.5.5 0 0 1 .591.8l-1.851 1.716 4.947-2.856a.5.5 0 0 1 .556.828l-2.375 1.832 4.5-2.6a.5.5 0 0 1 .55.833l-3.578 2.687 4.781-2.76a.5.5 0 0 1 .545.836l-3.526 2.578 3.921-2.264a.5.5 0 0 1 .552.832l-4.124 3.125 3.967-2.29a.5.5 0 0 1 .539.84l-.9.642.284-.163a.5.5 0 0 1 .561.824l-2.05 1.625 1.013-.584a.5.5 0 0 1 .58.808l-1.136 1a.5.5 0 0 1 .176.926l-3.613 2.085a.49.49 0 0 1 -.25.07z" fill="#4c6268" data-original="#4c6268" class=""></path><path xmlns="http://www.w3.org/2000/svg" d="m21.013 48.443a.5.5 0 0 1 -.306-.895l4.97-3.845-6.277 3.627a.5.5 0 0 1 -.535-.844l2-1.382-2.13 1.231a.5.5 0 0 1 -.545-.836l3.623-2.653-3.747 2.163a.5.5 0 0 1 -.54-.84l1.174-.836-1.027.593a.5.5 0 0 1 -.549-.834l1.247-.928-.975.563a.5.5 0 0 1 -.588-.8l2.22-2.04-1.7.983a.5.5 0 0 1 -.611-.778l.962-1a.493.493 0 0 1 -.319-.237.5.5 0 0 1 .182-.683l2.335-1.348a.5.5 0 0 1 .612.779l-.627.654 2.6-1.5a.5.5 0 0 1 .588.8l-2.219 2.039 4.459-2.586a.5.5 0 0 1 .549.834l-1.25.93 2.735-1.574a.5.5 0 0 1 .54.84l-1.173.835 2.593-1.5a.5.5 0 0 1 .545.836l-3.622 2.652 4.786-2.763a.5.5 0 0 1 .534.843l-2 1.382 2.062-1.19a.5.5 0 0 1 .555.828l-4.971 3.846 4.261-2.459a.5.5 0 0 1 .586.8l-3.32 3.036 1.589-.917a.5.5 0 1 1 .5.865l-5.589 3.224a.5.5 0 0 1 -.587-.8l3.328-3.036-6.678 3.855a.491.491 0 0 1 -.25.066z" fill="#4c6268" data-original="#4c6268" class=""></path><g xmlns="http://www.w3.org/2000/svg" fill="#262626"><path d="m7.423 59.357c7.738-.889 18.6 1.859 25.468-1.373 1.676-4.775 1.258-11.132-.519-15.939 1.651-4.286-2.739-5.181-6.021-5.121 3.915-4.28 6.884-7.31 4.2-13.3 2.7-1.55-.694-12-.657-15.321-2.983-3.303-8.003-5.077-11.812-7.546-2.427-.7-4.428 1.89-6.565 2.74-2.435 1.891-7.287 2.549-7.555 6.114.3 3.249-3.428 12.776-.468 14.126-2.717 6.263.165 8.834 4.168 13.331-3.833-.245-8.048 1.567-5.791 6.066-2.65 3.7-1.31 8.7-1.6 12.97.129 3.688 4.293 3.358 7.152 3.253zm-5.546-2.6a14.032 14.032 0 0 1 -.153-3.357h5.547v5.261c-1.971-.091-4.562.526-5.394-1.906zm6.852 1.91v-10.288c2.732.154 6.228.517 7.547-2.5v12.786zm8-32.217a70.372 70.372 0 0 0 9.506-1.674c-.564 11.468-17.527 11.3-18.461.087a61.671 61.671 0 0 0 8.953 1.585zm-2.993 7.5a10.686 10.686 0 0 0 6.542-.125v2.836a5.192 5.192 0 0 0 -3.212 1.932 4.88 4.88 0 0 0 -3.33-1.94zm3.99 24.717v-12.477c1.372 2.969 4.878 2.362 7.552 2.218v10.257zm12.55 0c-1.176.029-2.368-.019-3.55 0v-5.213h5.574c-.061 1.878.471 4.782-2.026 5.211zm2-8.721c0 .866.012 1.734.02 2.6h-5.572v-4.416a7.407 7.407 0 0 0 4.894-4.021 19.128 19.128 0 0 1 .658 5.835zm-1.292-10.615c1.492 5.9-5.592 9.872-10.647 7.774-2.707-2.313-4.367-9.081.646-9.565 3.171.774 7.517-.44 10.001 1.791zm-1.305-13.017c2.134 4.417-2.578 7.27-4.82 10.484-1.047-.083-2.09-.174-3.135-.27v-3.31a10.651 10.651 0 0 0 5.976-8.818c.473-.119.945-.234 1.417-.359zm-25.7-6.035c1.613-14.562.321-11.554 12.79-18.763 2.734 2 11.417 5.04 11.8 8.074.148 4.308 2.071 9.2 1.322 13.254-6.8 2.223-13.988 3.5-20.97 1.213-2.114-.72-6.327-.436-4.944-3.778zm1.661 12.169c-2.8-2.215-1.65-5.443-.834-8.344q.738.2 1.479.39a10.14 10.14 0 0 0 5.981 8.891v3.265l-2.914.264zm-1.711 5.809c2.857-.309 5.738-.518 8.6-.8 5.008.2 4.156 6.252 1.883 9.146-1.9 1.853-5.515.98-7.8.171-2.512-1.239-5.554-6.512-2.683-8.517zm-1.514 6.089a7.055 7.055 0 0 0 4.856 3.8v4.454h-5.547c.106-2.726-.385-5.7.691-8.254z" fill="#262626" data-original="#262626" class=""></path><path d="m12.2 21.246c3.811-.321 4.908-5.587.8-6.455-6.442-1.591-7.97 7.547-.8 6.455zm-3.024-4.831c1.461-2.174 5.123-.7 5.1 1.779-.261 4.543-7.476 1.883-5.1-1.779z" fill="#262626" data-original="#262626" class=""></path><path d="m23.135 21.4c3.869-.292 4.995-5.665.9-6.683-6.435-1.793-8.05 7.576-.9 6.683zm-2.991-4.841c1.379-2.069 5.076-.952 5.127 1.517-.158 4.335-7.371 2.163-5.127-1.519z" fill="#262626" data-original="#262626" class=""></path><path d="m58.049 27.607c-4.732-.413-9.617-.01-14.4-.146-.949-1.416-6.8-1.457-7.356.479.576 3.223-1.374 9.247.983 11.362 0 6.188-.112 12.386 0 18.572.033 1.854 2.091 1.48 3.427 1.48 4.191.093 1.15-16.451 2.021-20.213a1.786 1.786 0 0 0 .731-.576c7.962-.983 12.113 9.679 14.6 4.328 1.308-3.703 3.599-12.753-.006-15.286zm-20.325.206c-.014-.036.154-.534.063-.427 0-.006 0-.008-.01-.008 4.244-.123 4.863-.639 4.5 4.051-.16 2.292.322 4.976-.151 7.2h-3.068c-2.718.48-.815-8.729-1.334-10.816zm1.246 30.628c-.689-6.189-.019-12.754-.246-19.065h2.552c-.163 6.392.3 12.967-.144 19.28-.643.029-1.74.209-2.162-.215zm19.3-24.388c-1.47 18.247-2.343 2.847-14.546 3.438v-8.952h12.861c2.644.198 1.415 3.738 1.68 5.514z" fill="#262626" data-original="#262626" class=""></path><path d="m21.474 52.721c-.395.037-1 .1-1.2.473.085.337-.232 1.09.249 1.085.4-.037 1.005-.1 1.2-.473-.084-.337.233-1.09-.249-1.085z" fill="#262626" data-original="#262626" class=""></path></g></g></svg>