<svg xmlns="http://www.w3.org/2000/svg" version="1.1" xmlns:xlink="http://www.w3.org/1999/xlink" xmlns:svgjs="http://svgjs.com/svgjs" width="512" height="512" x="0" y="0" viewBox="0 0 60 60" style="enable-background:new 0 0 512 512" xml:space="preserve" class=""><g><path xmlns="http://www.w3.org/2000/svg" d="m28.2 59a.5.5 0 0 1 -.278-.915l11.252-7.534-13.014 7.515a.5.5 0 0 1 -.514-.856l1.432-.9-2.134 1.232a.5.5 0 0 1 -.513-.858l.446-.276-1.072.618a.5.5 0 0 1 -.525-.85l13.934-9.155-15.527 8.969a.5.5 0 0 1 -.518-.855l9.8-6.2-10.808 6.236a.5.5 0 0 1 -.516-.856l9.9-6.234-10.834 6.257a.5.5 0 0 1 -.519-.855l13.9-8.84-15.032 8.676a.5.5 0 0 1 -.512-.858l4.431-2.725-4.995 2.883a.5.5 0 0 1 -.517-.854l15.777-10-16.874 9.742a.5.5 0 0 1 -.517-.856l16.847-10.651-17.915 10.342a.5.5 0 0 1 -.514-.858l12.638-7.84-13.375 7.721a.5.5 0 0 1 -.513-.858l10.992-6.773-11.542 6.666a.5.5 0 0 1 -.517-.855l19.435-12.232-20.039 11.57a.5.5 0 0 1 -.514-.858l15.564-9.648-15.693 9.059a.5.5 0 0 1 -.512-.859l10.7-6.559-10.514 6.069a.5.5 0 0 1 -.512-.858l11.267-6.916-10.856 6.267a.5.5 0 0 1 -.514-.856l17.485-10.9-16.971 9.794a.5.5 0 0 1 -.51-.859l7.68-4.694-7.17 4.14a.5.5 0 0 1 -.513-.857l14.386-8.924-13.873 8.009a.5.5 0 0 1 -.514-.857l15.961-9.971-15.447 8.918a.5.5 0 0 1 -.515-.856l15.848-9.929-15.333 8.853a.5.5 0 0 1 -.514-.858l13.058-8.133-12.544 7.24a.5.5 0 0 1 -.515-.857l14.174-8.9-13.659 7.89a.5.5 0 0 1 -.515-.857l13.076-8.216-12.561 7.255a.5.5 0 0 1 -.512-.857l7.066-4.375-6.554 3.783a.5.5 0 0 1 -.518-.854l13.644-8.686-13.126 7.578a.5.5 0 0 1 -.522-.852l14.966-9.706-14.416 8.323a.5.5 0 0 1 -.524-.852l13.872-9.066-13.075 7.549a.5.5 0 0 1 -.525-.85l12.663-8.375-11.506 6.644a.5.5 0 0 1 -.519-.855l5.193-3.313-3.97 2.291a.5.5 0 0 1 -.533-.845l10.116-6.946-7.768 4.484a.5.5 0 0 1 -.556-.827l5.5-4.275-.228.131a.5.5 0 0 1 -.5-.865l6.542-3.776a.5.5 0 0 1 .557.827l-5.5 4.272 12.553-7.243a.5.5 0 0 1 .533.845l-10.12 6.946 12.338-7.123a.5.5 0 0 1 .518.855l-5.179 3.305 6.3-3.639a.5.5 0 0 1 .526.849l-12.665 8.379 14.464-8.351a.5.5 0 0 1 .524.851l-13.867 9.064 15.479-8.938a.5.5 0 0 1 .523.853l-14.968 9.707 16.416-9.478a.5.5 0 0 1 .518.855l-13.653 8.691 14.736-8.508a.5.5 0 0 1 .513.858l-7.065 4.375 7.65-4.415a.5.5 0 0 1 .516.856l-13.081 8.213 13.851-8a.5.5 0 0 1 .516.856l-14.168 8.896 14.85-8.573a.5.5 0 0 1 .515.857l-13.052 8.131 13.567-7.836a.5.5 0 0 1 .515.856l-15.861 9.944 16.362-9.446a.5.5 0 0 1 .515.856l-15.951 9.961 16.323-9.424a.5.5 0 0 1 .514.857l-14.373 8.917 14.58-8.421a.5.5 0 0 1 .511.859l-7.72 4.717 7.709-4.45a.5.5 0 0 1 .514.856l-17.473 10.898 17.541-10.126a.5.5 0 0 1 .512.858l-11.271 6.918 11.118-6.42a.5.5 0 0 1 .512.858l-10.7 6.562 10.46-6.039a.5.5 0 0 1 .513.857l-15.569 9.652 15.252-8.8a.5.5 0 0 1 .517.855l-19.433 12.224 18.968-10.95a.5.5 0 0 1 .512.858l-10.977 6.765 10.465-6.042a.5.5 0 0 1 .513.857l-12.643 7.845 12.13-7a.5.5 0 0 1 .517.855l-16.847 10.65 16.33-9.428a.5.5 0 0 1 .517.855l-15.783 10 15.266-8.81a.5.5 0 0 1 .511.858l-4.416 2.716 3.905-2.254a.5.5 0 0 1 .518.855l-13.893 8.839 13.375-7.722a.5.5 0 0 1 .516.855l-9.912 6.24 9.4-5.424a.5.5 0 0 1 .517.855l-9.8 6.206 9.279-5.358a.5.5 0 0 1 .524.851l-13.932 9.149 13.408-7.74a.5.5 0 0 1 .513.857l-.476.3a.5.5 0 0 1 .477.876l-1.443.9.921-.531a.5.5 0 0 1 .528.848l-11.24 7.528 10.283-5.938a.5.5 0 0 1 .532.844l-8.894 6.095 6.145-3.548a.5.5 0 1 1 .5.865l-17.375 10.03a.5.5 0 0 1 -.532-.845l8.889-6.091-12.1 6.984a.5.5 0 0 1 -.248.066z" fill="#e8e8e8" data-original="#e8e8e8" class=""></path><g xmlns="http://www.w3.org/2000/svg" fill="#f2bc35"><path d="m51.775 34.256a.5.5 0 0 1 -.5-.556l.085-.759-.616.356a.5.5 0 0 1 -.675-.7l.422-.68-1.378.8a.5.5 0 0 1 -.628-.761l1.152-1.326-3.575 2.063a.5.5 0 0 1 -.554-.829l.1-.077-1.83 1.056a.5.5 0 0 1 -.56-.825l3.064-2.424-6.027 3.479a.5.5 0 0 1 -.544-.838l4.167-3.02-7.072 4.085a.5.5 0 1 1 -.5-.865l15.414-8.9a.5.5 0 0 1 .544.838l-4.164 3.027 3.62-2.1a.5.5 0 0 1 .664.151.5.5 0 0 1 -.1.674l-3.061 2.422 2.5-1.445a.5.5 0 0 1 .554.83l-.358.275a.511.511 0 0 1 .439.179.5.5 0 0 1 -.007.646l-1.151 1.328.524-.3a.494.494 0 0 1 .609.085.5.5 0 0 1 .066.611l-.473.761a.5.5 0 0 1 .545.553l-.141 1.23a.445.445 0 0 1 .072.1.5.5 0 0 1 -.182.682l-.2.112a.5.5 0 0 1 -.245.062z" fill="#f2bc35" data-original="#f2bc35" class=""></path><path d="m29.809 54.89a.5.5 0 0 1 -.335-.871l.832-.751-1.381.8a.5.5 0 0 1 -.646-.126.5.5 0 0 1 .038-.656l2.349-2.4-3.12 1.8a.5.5 0 0 1 -.584-.8l2.138-1.926-2.7 1.557a.5.5 0 0 1 -.576-.812l2.816-2.419-2.451 1.414a.5.5 0 0 1 -.561-.824l1.915-1.523-.272.156a.5.5 0 0 1 -.578-.81l2.323-2.017-1.788 1.031a.5.5 0 0 1 -.553-.831l.332-.252a.5.5 0 0 1 -.39-.887l1.056-.826-.586.338a.5.5 0 0 1 -.567-.819l2.38-1.954-1.964 1.133a.5.5 0 0 1 -.553-.83l1.487-1.139-1.09.629a.5.5 0 0 1 -.527-.848l12.385-8.245-12.173 7.028a.5.5 0 0 1 -.532-.846l9.16-6.249-9.005 5.2a.5.5 0 0 1 -.522-.852l1.878-1.217-1.632.943a.5.5 0 0 1 -.524-.851l1.59-1.042-1.515.874a.5.5 0 0 1 -.547-.835l5.978-4.41-7.53 4.348a.5.5 0 0 1 -.529-.848l1.027-.689-2.442 1.41a.5.5 0 0 1 -.535-.844l4.585-3.185-6.679 3.856a.5.5 0 0 1 -.526-.85l2.982-1.974-4.647 2.679a.5.5 0 0 1 -.532-.846l7.321-4.994-9.775 5.644a.5.5 0 0 1 -.526-.851l6.775-4.463-11.483 6.631a.5.5 0 0 1 -.534-.844l3.6-2.487-3.066 1.769a.5.5 0 0 1 -.558-.826l4.543-3.561-3.985 2.3a.5.5 0 0 1 -.587-.8l2.988-2.723-2.4 1.386a.5.5 0 0 1 -.639-.746l1.477-1.833-.838.483a.494.494 0 0 1 -.6-.075.5.5 0 0 1 -.089-.6l.548-.992a.5.5 0 0 1 -.605-.554l.151-1.116a.5.5 0 0 1 .109-.781l.205-.121a.5.5 0 0 1 .745.5l-.086.642.509-.293a.5.5 0 0 1 .687.674l-.525.954 1.606-.927a.5.5 0 0 1 .63.107.5.5 0 0 1 .01.639l-1.476 1.832 4.087-2.356a.5.5 0 0 1 .586.8l-2.989 2.724 6.109-3.524a.5.5 0 0 1 .558.826l-4.541 3.556 7.595-4.382a.5.5 0 0 1 .534.843l-3.6 2.488 15.491-8.944a.5.5 0 0 1 .525.851l-6.775 4.462 6.645-3.836a.5.5 0 0 1 .532.846l-7.321 4.994 7.294-4.211a.5.5 0 0 1 .526.849l-2.987 1.978 2.861-1.651a.5.5 0 0 1 .536.843l-4.584 3.188 5.007-2.891a.5.5 0 0 1 .529.848l-1.028.688 2.33-1.345a.5.5 0 0 1 .546.835l-5.979 4.411 9.088-5.246a.5.5 0 0 1 .524.85l-1.586 1.039 3.275-1.889a.5.5 0 0 1 .521.852l-1.872 1.212 3.577-2.064a.5.5 0 0 1 .532.845l-9.159 6.249 14.231-8.215a.5.5 0 0 1 .527.848l-17.589 11.708a.38.38 0 0 1 .042.055.5.5 0 0 1 -.112.675l-1.492 1.142.584-.337a.5.5 0 0 1 .567.82l-2.379 1.952 1.483-.856a.5.5 0 0 1 .557.827l-1.053.824.3-.172a.5.5 0 0 1 .553.831l-.47.356a.5.5 0 0 1 .439.209.5.5 0 0 1 -.079.667l-2.321 2.017 1.589-.917a.5.5 0 0 1 .562.824l-1.917 1.526 1.27-.734a.5.5 0 0 1 .577.812l-2.815 2.418 2.191-1.265a.5.5 0 0 1 .584.8l-2.135 1.921 2.153-1.244a.5.5 0 0 1 .607.783l-2.349 2.4 2.315-1.337a.5.5 0 0 1 .585.8l-2.472 2.23a.379.379 0 0 1 .02.034.5.5 0 0 1 -.183.682l-1.8 1.037a.493.493 0 0 1 -.248.075z" fill="#f2bc35" data-original="#f2bc35" class=""></path><path d="m24.347 23.607a.5.5 0 0 1 -.293-.9l1.436-1.037-.275.158a.5.5 0 0 1 -.545-.837l.988-.719a.5.5 0 0 1 -.52-.846l2.684-2.147-1.6.923a.5.5 0 0 1 -.576-.812l3.054-2.619-2.025 1.168a.5.5 0 0 1 -.569-.817l2.067-1.722-1.237.714a.5.5 0 0 1 -.564-.822l1.278-1.03-.55.317a.5.5 0 0 1 -.555-.829l1.213-.93-.553.319a.5.5 0 0 1 -.559-.826l1.626-1.283-1.01.583a.5.5 0 0 1 -.561-.824l.882-.7-.4.231a.5.5 0 0 1 -.593-.8l1.991-1.879-2.437 1.411a.5.5 0 0 1 -.584-.8l1.548-1.393-.56.324a.5.5 0 0 1 -.586-.8l2.858-2.59a.5.5 0 0 1 .247-.492l.866-.5a.5.5 0 0 1 .586.8l-.413.373.636-.366a.5.5 0 0 1 .584.8l-1.55 1.392 2.007-1.158a.5.5 0 0 1 .593.8l-1.989 1.873 2.58-1.489a.5.5 0 0 1 .56.824l-.883.7 1.105-.638a.5.5 0 0 1 .56.825l-1.629 1.288 1.2-.691a.5.5 0 0 1 .555.829l-1.5 1.148a.51.51 0 0 1 .454.215.5.5 0 0 1 -.1.673l-1.277 1.03.751-.433a.5.5 0 0 1 .569.817l-2.073 1.723 1.6-.922a.5.5 0 0 1 .576.812l-3.048 2.613 2.658-1.539a.5.5 0 0 1 .562.824l-2.683 2.146 2.347-1.355a.5.5 0 0 1 .545.837l-.972.709.633-.366a.5.5 0 0 1 .543.838l-1.436 1.037 1.144-.66a.5.5 0 0 1 .5.865l-9.628 5.565a.491.491 0 0 1 -.253.067z" fill="#f2bc35" data-original="#f2bc35" class=""></path></g><g xmlns="http://www.w3.org/2000/svg" fill="#262626"><path d="m52.735 23a22.663 22.663 0 0 0 -40.557-13.041c-7.755 9.774-4.837 24.06-4.343 35.635 4.438 7.3 13.743 11.069 21.487 13.912 6.953-1 13.261-5.431 18.918-9.437 8.112-6.189 3.25-18.26 4.495-27.069zm-6.958 9.024c-13.27.011-12.725 1.374-13.469 14.021-.972 2.635 2.488 3.293.595 5.452-1.761 1.643-2.544 3.894-4.558.918-1.627-1.2-2.682-3.05-.689-4.472.093-4.621-.028-10.293-1.978-14.559-4.724-1.547-12.192-2.181-16.943-.376.012-3.246-.024-6.494.015-9.74 3.563 1.259 13.387 2.256 16.282-.3a40.608 40.608 0 0 0 2.693-15.162c-2.894-2.267.542-4.3 2.109-6.044 1.55 1.8 5.538 4.011 2.511 6.3-.028 3.835.292 15.133 4.551 16.233 4.713-.214 10.072.871 14.364-1.324.015 3.249 0 6.5.005 9.749a10.167 10.167 0 0 0 -5.488-.695zm-1.408-23.74a19.938 19.938 0 0 1 6.858 13.863c-3.775 2.773-9.085 1.3-13.495 1.564-3.832-2.811-3.316-9.788-3.981-14.262-.057-4.5 4.012-2.031-2.018-7.644a33.371 33.371 0 0 1 12.636 6.479zm-20.977-4.818a27.644 27.644 0 0 1 5.27-1.76c-6.934 5.77-1.33 3.851-2.507 9.9-.509 3.932-.8 8.779-2.956 12.1-4.736-.373-10.347 1.311-14.381-1.844.3-8.55 6.865-15.427 14.574-18.396zm27.792 40.15c-2.712 8.131-13 11.483-20.253 14.666-6.869-.672-13.124-5.491-18.672-9.4-4.951-3.462-3.249-9.838-3.524-15.01 3.907-2.868 9.34-.449 13.853-.707 3.412-.485 4.512 13.861 3.077 15.571-2.014 2.238 1.85 4.965 3.591 5.976 2.043.327 3.693-2.011 4.915-3.283 1.949-1.788-.383-2.773-.441-4.6.528-4.284-.378-10.359 2.567-13.649 4.879.181 10.784-2.3 14.968 1.016-.075 3.137.157 6.299-.081 9.42z" fill="#262626" data-original="#262626"></path><path d="m25.277 27.571c-4.22.337-8.993-.677-12.954.4-.717.852 16.228.873 12.954-.4z" fill="#262626" data-original="#262626"></path><path d="m47.279 27.578c-4.222.334-8.988-.672-12.955.4-.673.832 16.176.856 12.955-.4z" fill="#262626" data-original="#262626"></path><path d="m13.422 35.771a4.243 4.243 0 0 0 -1.526-.158c-2.37 1.002 2.939 1.487 1.526.158z" fill="#262626" data-original="#262626"></path><path d="m17.176 37.333a1.581 1.581 0 0 0 1.448-.436c-.709-.268-1.893-.467-2.432.206a3.974 3.974 0 0 0 .984.23z" fill="#262626" data-original="#262626"></path><path d="m21.4 38.252c.672.119 2 .539 2.14-.446-.37-.698-3.271-.518-2.14.446z" fill="#262626" data-original="#262626"></path><path d="m12.718 39.737c-.462-.085-1.226-.006-1.442.457.667.3 1.972.535 2.432-.206-.252-.211-.675-.148-.99-.251z" fill="#262626" data-original="#262626"></path><path d="m16.353 41.307c.6.3 2.776.525 2.111-.614-.596-.304-2.777-.525-2.111.614z" fill="#262626" data-original="#262626"></path><path d="m21.4 42.263c.674.119 2.023.55 2.137-.457-.366-.723-3.289-.533-2.137.457z" fill="#262626" data-original="#262626"></path><path d="m12.714 43.722c-.349-.16-1.759.119-1.3.579.953.541 3.527-.258 1.3-.579z" fill="#262626" data-original="#262626"></path><path d="m18.457 45.122a.284.284 0 0 0 .167-.225c-.664-.3-1.978-.54-2.432.206a2.52 2.52 0 0 0 2.265.019z" fill="#262626" data-original="#262626"></path><path d="m20.44 48.836c-.673-.126-1.85-.455-2.165.358.333.506 3.183.36 2.165-.358z" fill="#262626" data-original="#262626"></path><path d="m41.083 48.6c-.476.137-2.216.174-1.66.932.652.36 3.454-.704 1.66-.932z" fill="#262626" data-original="#262626"></path><path d="m23.258 45.6c-.664-.1-1.436-.417-2.008.093-.774 1.057 3.317.85 2.008-.093z" fill="#262626" data-original="#262626"></path><path d="m48.573 35.636a3 3 0 0 0 -2.188.463c-.544 1.039 2.998.335 2.188-.463z" fill="#262626" data-original="#262626"></path><path d="m43.194 36.552c-.453.141-2.172.165-1.677.866.62.302 3.42-.693 1.677-.866z" fill="#262626" data-original="#262626"></path><path d="m38.266 37.42c-.474.136-2.214.173-1.66.929.651.359 3.454-.703 1.66-.929z" fill="#262626" data-original="#262626"></path><path d="m48.412 39.489c-.657-.044-2.145-.025-2.12.887.344.896 3.394-.012 2.12-.887z" fill="#262626" data-original="#262626"></path><path d="m43.186 40.522c-.468.138-2.2.171-1.665.912.643.343 3.445-.701 1.665-.912z" fill="#262626" data-original="#262626"></path><path d="m38.285 41.491c-.44.143-2.138.162-1.689.821.604.262 3.391-.688 1.689-.821z" fill="#262626" data-original="#262626"></path><path d="m48.113 43.652c-.449.141-2.163.163-1.68.853.614.295 3.412-.692 1.68-.853z" fill="#262626" data-original="#262626"></path><path d="m43.5 44.406c-.657-.035-2.134-.024-2.123.879.341.873 3.381-.02 2.123-.879z" fill="#262626" data-original="#262626"></path><path d="m38.273 45.444c-.462.138-2.191.168-1.67.893.633.326 3.435-.698 1.67-.893z" fill="#262626" data-original="#262626"></path></g></g></svg>