<svg xmlns="http://www.w3.org/2000/svg" version="1.1" xmlns:xlink="http://www.w3.org/1999/xlink" xmlns:svgjs="http://svgjs.com/svgjs" width="512" height="512" x="0" y="0" viewBox="0 0 60 60" style="enable-background:new 0 0 512 512" xml:space="preserve" class=""><g><path xmlns="http://www.w3.org/2000/svg" d="M38.477,43.47a.5.5,0,0,1-.271-.921l2.7-1.736L36.424,43.4a.5.5,0,0,1-.517-.855l.855-.539L34.347,43.4a.5.5,0,0,1-.517-.855l3.306-2.085-5.1,2.94a.5.5,0,0,1-.525-.849l13.11-8.645L28.181,43.4a.5.5,0,0,1-.522-.852L41.75,33.455,24.618,43.346a.5.5,0,0,1-.519-.854L40.254,32.154l-17.672,10.2a.5.5,0,0,1-.515-.856l12.3-7.686L21.68,41.14a.5.5,0,0,1-.517-.856l15.368-9.673L21.387,39.354a.5.5,0,0,1-.518-.855L37.808,27.784,21.38,37.269a.5.5,0,0,1-.517-.856L36.806,26.368,21.374,35.277a.5.5,0,0,1-.512-.858l6.077-3.73L21.37,33.9a.5.5,0,0,1-.511-.859l4.8-2.939-4.293,2.479a.5.5,0,0,1-.51-.859l1.714-1.044-1.208.7a.5.5,0,0,1-.511-.858l6.01-3.689-5.5,3.177a.5.5,0,0,1-.511-.859l7.779-4.79-7.272,4.2a.5.5,0,0,1-.517-.856L37.451,17.2l-16.1,9.3a.5.5,0,0,1-.518-.855L37.586,15.019,21.34,24.4a.5.5,0,0,1-.513-.857l7.847-4.852-7.339,4.237a.5.5,0,0,1-.519-.855l14.322-9.121L21.329,20.921a.5.5,0,0,1-.523-.852l14.478-9.447L21.321,18.683a.5.5,0,0,1-.518-.855l7.924-5.055-7.411,4.279a.5.5,0,0,1-.527-.849l10.418-6.94-9.9,5.714a.5.5,0,0,1-.528-.849L28.061,9.28l-6.756,3.9a.5.5,0,0,1-.527-.849L25.186,9.4,21.3,11.646a.5.5,0,0,1-.533-.845l4.211-2.888L21.3,10.039a.5.5,0,0,1-.544-.837l4.087-2.969L21.289,8.281a.5.5,0,0,1-.548-.834L22.964,5.8l-1.68.969a.5.5,0,0,1-.574-.814l2.061-1.758L21.3,5.042a.5.5,0,0,1-.616-.773L21.9,2.964a.5.5,0,0,1-.2-.931L24.073.662a.5.5,0,0,1,.616.774l-1,1.074L27,.6a.5.5,0,0,1,.574.813l-2.06,1.757L29.97.6a.5.5,0,0,1,.548.834L28.3,3.082,32.6.6a.5.5,0,0,1,.544.837L29.059,4.4,35.649.6a.5.5,0,0,1,.534.844l-4.21,2.887L38.437.6a.5.5,0,0,1,.526.848l-4.407,2.93L41.1.6a.5.5,0,0,1,.527.848L34.347,6.3,44.217.6a.5.5,0,0,1,.527.848L34.328,8.385,47.817.6a.5.5,0,0,1,.519.854L40.4,6.512,50.648.6a.5.5,0,0,1,.524.851L36.7,10.892,54.531.6a.5.5,0,0,1,.519.854L40.728,10.574l16.177-9.34a.5.5,0,0,1,.513.858L49.574,6.941l8.319-4.8a.5.5,0,0,1,.517.854L41.651,13.624l16.99-9.809a.5.5,0,0,1,.516.856l-16.618,10.5L58.72,5.83a.5.5,0,0,1,.511.858l-7.76,4.779L58.72,7.282a.5.5,0,0,1,.511.859l-6.026,3.7L58.72,8.655a.5.5,0,0,1,.509.86l-1.7,1.039,1.2-.69a.5.5,0,0,1,.51.86l-4.8,2.939,4.291-2.476a.5.5,0,0,1,.511.858L53.162,15.77l5.558-3.208a.5.5,0,0,1,.516.855L43.289,23.466,58.72,14.557a.5.5,0,0,1,.517.855L42.3,26.126l16.42-9.48a.5.5,0,0,1,.516.856L43.882,27.166,58.72,18.6a.5.5,0,0,1,.514.856l-12.321,7.7L58.72,20.339a.5.5,0,0,1,.519.853L43.082,31.531,58.72,22.5a.5.5,0,0,1,.521.852L45.151,32.45,58.72,24.617a.5.5,0,0,1,.525.85L46.137,34.11,58.72,26.846a.5.5,0,0,1,.516.855l-3.3,2.084,2.787-1.608a.5.5,0,0,1,.516.855l-.854.538.338-.194a.5.5,0,0,1,.52.853l-2.713,1.743,2.193-1.266a.5.5,0,0,1,.525.85L55.1,34.3l3.623-2.092a.5.5,0,0,1,.546.836L52.521,38l6.2-3.578a.5.5,0,0,1,.531.846l-.741.5.21-.121a.5.5,0,0,1,.566.82l-3.645,2.979,3.079-1.777a.5.5,0,0,1,.565.82l-1.116.907.511-.294a.5.5,0,0,1,.609.781l-1.122,1.162a.493.493,0,0,1,.318.236.5.5,0,0,1-.182.683l-2.376,1.371a.5.5,0,0,1-.61-.78l.779-.806-2.86,1.65a.5.5,0,0,1-.565-.82l1.118-.909-3,1.729a.5.5,0,0,1-.566-.819L53.869,39.6l-6.577,3.8a.5.5,0,0,1-.531-.845l.742-.506L45.162,43.4a.5.5,0,0,1-.546-.836l6.744-4.955L41.329,43.4a.5.5,0,0,1-.525-.849l4.153-2.747-6.23,3.6A.5.5,0,0,1,38.477,43.47Z" fill="#e1efff" data-original="#e1efff"></path><path xmlns="http://www.w3.org/2000/svg" d="M30.427,43.5a.5.5,0,0,1-.3-.9L33.2,40.231l-2.726,1.575a.5.5,0,0,1-.608-.783l2.447-2.5-.027.016a.5.5,0,1,1-.5-.865l3.185-1.839a.5.5,0,0,1,.607.782l-2.447,2.5,6.1-3.519a.5.5,0,0,1,.555.829L36.705,38.8l5.545-3.2a.5.5,0,0,1,.541.839l-1.377.984,2.858-1.65a.5.5,0,0,1,.543.838l-1.553,1.126,2.51-1.449a.5.5,0,0,1,.558.827L43.952,38.97l3.166-1.828a.5.5,0,0,1,.552.831l-.772.585,1.06-.612a.5.5,0,0,1,.615.775l-2.006,2.144,2.419-1.4a.5.5,0,0,1,.7.659l-.8,1.571.713-.411a.5.5,0,0,1,.5.865l-2.171,1.253a.5.5,0,0,1-.594-.069.5.5,0,0,1-.1-.59l.8-1.571-3.873,2.236a.5.5,0,0,1-.615-.774l2.006-2.145L40.48,43.418a.5.5,0,0,1-.551-.831L40.7,42l-2.463,1.422a.5.5,0,0,1-.557-.827l2.378-1.856-4.655,2.687a.5.5,0,0,1-.543-.838l1.558-1.129L33.006,43.43a.5.5,0,0,1-.541-.839l1.373-.982-3.161,1.825A.5.5,0,0,1,30.427,43.5Z" fill="#cd4c60" data-original="#cd4c60"></path><path xmlns="http://www.w3.org/2000/svg" d="M32.071,20.478a.5.5,0,0,1-.289-.909L40.3,13.534,28.946,20.091a.5.5,0,0,1-.526-.85l5.967-3.952L28.28,18.814a.5.5,0,0,1-.532-.845l7.691-5.263L28.28,16.839a.5.5,0,0,1-.527-.849l3.762-2.5L28.28,15.353a.5.5,0,0,1-.524-.851l.606-.4-.07.04a.5.5,0,0,1-.53-.847l1.177-.8-.5.29a.5.5,0,0,1-.555-.829l3.546-2.73-2.249,1.3a.5.5,0,0,1-.574-.813L30.68,7.951a.5.5,0,0,1-.08-.9l3.592-2.074a.5.5,0,0,1,.575.813L33.44,6.915,37.455,4.6a.5.5,0,0,1,.555.829l-3.547,2.73L40.629,4.6a.5.5,0,0,1,.53.846l-1.178.8L42.823,4.6a.5.5,0,0,1,.525.85l-.61.4,1.838-1.061a.5.5,0,0,1,.528.849l-3.752,2.5,4.9-2.83a.5.5,0,0,1,.532.845L39.1,11.415l8.886-5.131a.5.5,0,0,1,.527.85l-5.976,3.958,6.608-3.815a.5.5,0,0,1,.539.841L41.16,14.153l9.205-5.314a.5.5,0,0,1,.534.845l-5.218,3.6,5.369-3.1a.5.5,0,0,1,.551.832l-5.908,4.454,5.9-3.4a.5.5,0,0,1,.568.817L47.7,16.569l4.02-2.32a.5.5,0,0,1,.582.807l-2.276,2.018,1.7-.978a.5.5,0,0,1,.647.736L51.26,18.287l.468-.269a.5.5,0,0,1,.5.865L49.6,20.4a.5.5,0,0,1-.648-.736l1.113-1.456-3.8,2.193a.5.5,0,0,1-.582-.806l2.275-2.02-4.9,2.828a.5.5,0,0,1-.569-.817l4.456-3.69-7.808,4.508a.5.5,0,0,1-.551-.832l5.906-4.453-9.159,5.287a.5.5,0,0,1-.534-.845l5.223-3.6-7.7,4.444A.493.493,0,0,1,32.071,20.478Z" fill="#684740" data-original="#684740"></path><path xmlns="http://www.w3.org/2000/svg" d="M40.339,39.447a.494.494,0,0,1-.371-.165.5.5,0,0,1-.034-.628L41.2,36.9,38.235,38.61a.5.5,0,0,1-.589-.8l1.74-1.618-1.964,1.134a.5.5,0,0,1-.565-.821l.493-.4-.07.04a.5.5,0,0,1-.6-.787l.533-.529a.5.5,0,0,1-.663-.6l.266-.984a.5.5,0,0,1-.035-.884l.5-.292a.5.5,0,0,1,.734.564l-.187.688,2.192-1.265a.5.5,0,0,1,.6.787l-.516.512,2.272-1.311a.5.5,0,0,1,.564.821l-.495.4.27-.156a.5.5,0,0,1,.59.8l-1.741,1.617,1.151-.664a.5.5,0,0,1,.655.726l-1.266,1.755.028-.016a.5.5,0,0,1,.5.865L40.589,39.38A.489.489,0,0,1,40.339,39.447Z" fill="#925c4c" data-original="#925c4c"></path><path xmlns="http://www.w3.org/2000/svg" d="M48.318,18.487a.5.5,0,0,1-.25-.932l1.655-.955a.5.5,0,0,1,.5.865l-1.655.955A.494.494,0,0,1,48.318,18.487Z" fill="#a9725e" data-original="#a9725e"></path><path xmlns="http://www.w3.org/2000/svg" d="M32.052,19.2a.5.5,0,0,1-.36-.847l.83-.859a.5.5,0,0,1-.063-.9l2.169-1.252a.5.5,0,0,1,.609.78l-.345.356,4.923-2.841a.5.5,0,1,1,.5.865L32.3,19.134A.489.489,0,0,1,32.052,19.2Z" fill="#a9725e" data-original="#a9725e"></path><path xmlns="http://www.w3.org/2000/svg" d="M40.212,33.461a.5.5,0,0,1-.3-.9l.884-.648-2.284,1.319a.5.5,0,0,1-.552-.832l6.443-4.873-8.364,4.829a.5.5,0,0,1-.524-.851l1.608-1.057-2.151,1.243a.5.5,0,0,1-.539-.841l8.35-5.9-9.3,5.371a.5.5,0,0,1-.534-.843l7.856-5.431-8.353,4.822a.5.5,0,0,1-.529-.847l3.619-2.439-3.65,2.108a.5.5,0,0,1-.537-.843l5.8-4.056-5.721,3.3a.5.5,0,0,1-.535-.844l4.054-2.8-3.689,2.13a.5.5,0,0,1-.557-.827l5.745-4.459-7.318,4.225a.5.5,0,0,1-.529-.848l.2-.133-.247.142a.5.5,0,0,1-.641-.744l1.734-2.176-1.371.791a.5.5,0,0,1-.673-.7l.874-1.382a.5.5,0,0,1-.414-.905l1.66-.958a.5.5,0,0,1,.672.7l-.863,1.365,1.9-1.1a.5.5,0,0,1,.641.745l-1.735,2.176L41.059,14.3a.5.5,0,0,1,.528.847l-.2.133.9-.52a.5.5,0,0,1,.557.827L37.1,20.048,45.147,15.4a.5.5,0,0,1,.535.844l-4.055,2.8,5.012-2.893a.5.5,0,0,1,.536.843l-5.8,4.054L47.532,17.5a.5.5,0,0,1,.53.848l-3.615,2.435,6.515-3.762a.5.5,0,0,1,.534.844L43.639,23.3l8.081-4.665a.5.5,0,0,1,.539.841l-8.347,5.9,7.787-4.5a.5.5,0,0,1,.525.851L50.593,22.8l.293-.169a.5.5,0,0,1,.552.831L45,28.331l3.243-1.872a.5.5,0,0,1,.546.836l-1.183.867a.5.5,0,0,1,.31.929l-7.452,4.3A.5.5,0,0,1,40.212,33.461Z" fill="#a9725e" data-original="#a9725e"></path><path xmlns="http://www.w3.org/2000/svg" d="M11.461,50.493a.5.5,0,0,1-.326-.879l.5-.43-1.355.781a.5.5,0,0,1-.6-.788l2.831-2.793L10.28,47.67a.5.5,0,0,1-.608-.781l.617-.634-.009,0a.5.5,0,0,1-.731-.568l.26-.925a.5.5,0,0,1-.212-.2.5.5,0,0,1,.183-.683l.505-.291a.5.5,0,0,1,.732.568l-.174.618,2.078-1.2a.5.5,0,0,1,.608.781L12.91,45l2.476-1.429a.5.5,0,0,1,.6.788l-2.83,2.792,2.573-1.485a.5.5,0,0,1,.577.812l-.513.442a.5.5,0,0,1,.655.652l-.532,1.284a.5.5,0,0,1,.33.926l-1.087.628a.5.5,0,0,1-.712-.624l.513-1.234-3.25,1.876A.489.489,0,0,1,11.461,50.493Z" fill="#925c4c" data-original="#925c4c"></path><path xmlns="http://www.w3.org/2000/svg" d="M5.76,59.47a.5.5,0,0,1-.281-.914l1.792-1.211-3.05,1.76a.5.5,0,0,1-.528-.848L4.9,57.45l-1.427.824a.5.5,0,0,1-.557-.828l5.569-4.321-5.191,3a.5.5,0,0,1-.578-.809l3.745-3.259L3.919,53.521a.5.5,0,0,1-.571-.815L4.762,51.52a.479.479,0,0,1-.154-.165.5.5,0,0,1,.183-.682l3.185-1.839a.5.5,0,0,1,.571.815l-.175.148,2.077-1.2a.5.5,0,0,1,.578.809L7.281,52.666,14.33,48.6a.5.5,0,0,1,.557.828L9.319,53.744l8.413-4.856a.5.5,0,0,1,.528.848l-1.219.814,1.97-1.137a.5.5,0,0,1,.53.847l-1.8,1.213L20.09,50.12a.5.5,0,0,1,.554.83l-4.879,3.734,5.6-3.234a.5.5,0,0,1,.551.832L19.1,54.4l2.989-1.725a.5.5,0,0,1,.552.832l-1.3.98,1.152-.665a.5.5,0,0,1,.555.829l-.243.187a.5.5,0,0,1,.52.8l-1.256,1.538.634-.365a.5.5,0,1,1,.5.865L20.207,59.4a.5.5,0,0,1-.631-.108.5.5,0,0,1-.007-.641l1.255-1.537L16.864,59.4a.5.5,0,0,1-.554-.829l.143-.11-1.628.939a.5.5,0,0,1-.552-.832l1.3-.983L12.431,59.4a.5.5,0,0,1-.551-.832L14.7,56.453,9.589,59.4a.5.5,0,0,1-.554-.83l4.879-3.732L6.01,59.4A.5.5,0,0,1,5.76,59.47Z" fill="#cd4c60" data-original="#cd4c60"></path><path xmlns="http://www.w3.org/2000/svg" d="M11.95,45.4a.5.5,0,0,1-.314-.888L16.61,40.5,9.527,44.589A.5.5,0,0,1,9,43.74l2.508-1.669L8.313,43.915a.5.5,0,0,1-.533-.845l6.555-4.514L6.953,42.817a.5.5,0,0,1-.531-.845l7.139-4.862L5.882,41.543a.5.5,0,0,1-.526-.85L10.9,37.029,5.175,40.334a.5.5,0,0,1-.535-.843l7.372-5.131-7.447,4.3a.5.5,0,0,1-.544-.836l6.517-4.771L4.273,36.668a.5.5,0,0,1-.556-.828l4.8-3.724L2.34,35.684a.5.5,0,0,1-.546-.836l2.54-1.867L1.528,34.6a.5.5,0,0,1-.55-.832l1.65-1.246L1.281,33.3a.5.5,0,0,1-.558-.826L1.33,32l-.05.028a.5.5,0,0,1-.632-.756l1.166-1.377L1.28,30.2a.5.5,0,0,1-.73-.571l.25-.868a.483.483,0,0,1-.2-.194.5.5,0,0,1,.182-.682l.5-.289a.5.5,0,0,1,.731.571l-.158.548L3.8,27.594a.5.5,0,0,1,.632.756L3.264,29.728l3.7-2.138a.5.5,0,0,1,.558.826l-.6.475,2.258-1.3a.5.5,0,0,1,.55.832L8.078,29.665l3.605-2.081a.5.5,0,0,1,.546.836L9.69,30.285l4.686-2.705a.5.5,0,0,1,.557.828l-4.8,3.726,7.9-4.558a.5.5,0,0,1,.545.836l-6.514,4.77,9.717-5.611a.5.5,0,0,1,.536.843l-7.373,5.132,9.785-5.65a.5.5,0,0,1,.525.85L19.7,32.413l5.024-2.9a.5.5,0,0,1,.531.845L18.114,35.22l6.606-3.814a.5.5,0,0,1,.533.845l-6.559,4.517,5.922-3.418a.5.5,0,0,1,.528.848L21.9,36.354a.521.521,0,0,1,.434.216.5.5,0,0,1-.1.672l-4.973,4.014L20.994,39.1a.5.5,0,0,1,.582.806l-2.366,2.1a.5.5,0,0,1,.2.93L15.79,45.032a.5.5,0,0,1-.582-.806l2.021-1.794-5.029,2.9A.491.491,0,0,1,11.95,45.4Z" fill="#a9725e" data-original="#a9725e"></path><path xmlns="http://www.w3.org/2000/svg" d="M13.715,35.45a.5.5,0,0,1-.3-.9l4.41-3.289-6.881,3.972a.5.5,0,0,1-.54-.839l5.656-4.031L8.584,34.68a.5.5,0,0,1-.539-.841l7.314-5.186L6.49,33.773a.5.5,0,0,1-.531-.845l6.266-4.261L5.007,32.833a.5.5,0,0,1-.537-.842l8.487-5.948L3.487,31.51a.5.5,0,0,1-.529-.848l6.156-4.145L2.479,30.348a.5.5,0,0,1-.521-.854l.776-.5-.86.5a.5.5,0,0,1-.539-.841l7.8-5.52L1.281,27.66a.5.5,0,0,1-.538-.841l5.476-3.865L1.307,25.79a.5.5,0,0,1-.544-.837l3.768-2.74L1.659,23.87a.5.5,0,0,1-.544-.837l1.2-.877a.5.5,0,0,1-.495-.855l1.743-1.408a.472.472,0,0,1-.15-.163.5.5,0,0,1,.183-.682l3.591-2.074a.5.5,0,0,1,.565.821l-.32.259L9.959,16.6a.5.5,0,0,1,.544.837l-1.162.845L12.257,16.6a.5.5,0,0,1,.544.837l-3.77,2.742,6.2-3.579a.5.5,0,0,1,.539.84L10.293,21.3l7.671-4.428a.5.5,0,0,1,.539.841l-7.795,5.521,9.468-5.466a.5.5,0,0,1,.52.854l-.756.486,1.213-.7a.5.5,0,0,1,.53.848L15.526,23.4l6.8-3.925a.5.5,0,0,1,.537.841l-8.491,5.951,9.107-5.256a.5.5,0,0,1,.531.845l-6.268,4.263,6.41-3.7a.5.5,0,0,1,.539.841l-7.313,5.184,7.24-4.179a.5.5,0,0,1,.54.839L19.5,29.138l5.212-3.009a.5.5,0,0,1,.549.833l-4.411,3.289,3.519-2.031a.5.5,0,0,1,.565.821l-2.727,2.213a.493.493,0,0,1,.289.228.5.5,0,0,1-.183.683l-4.3,2.481a.5.5,0,0,1-.566-.822l1.951-1.583-5.441,3.142A.491.491,0,0,1,13.715,35.45Z" fill="#684740" data-original="#684740"></path><path xmlns="http://www.w3.org/2000/svg" d="M59.2,3.529C57.8-.369,53.323.412,50.063.412H31.009C16.727-1.471,20.411,7.95,20.531,17.979c-8.5-3.511-21.232-1.239-20,10.4-.185,3.164-.489,5.907,2.224,7.948,1.9,3.01,2.71,7.319,6.726,8.536v3.667C4.936,48.569-.054,55.357,3.517,59.1c1.135.765,3.226.417,4.475.417h9.413c1.357,0,3.476.376,4.745-.345,2.119-1.2,1.55-4.582.73-6.379-1.329-2.909-3.742-3.9-6.427-4.218V44.932a7.851,7.851,0,0,0,4.392-3.872c.935,2.634,5.077,2.528,7.33,2.528h18.2c9.609.657,14.45,1.176,13.086-10.454q0-9.421,0-18.843C59.462,11.124,60.3,6.611,59.2,3.529ZM3.692,20.314c2.549-2.922,5.844-2.856,9.247-2.856,6.247-.944,12.613,3.413,11.47,10.239-3.338,9.221-18.93,8.876-22.816.165C1.6,25.118,1.729,22.563,3.692,20.314Zm17.4,38.174c-5.226.044-10.676.039-15.9,0-1.728-.679-1.789-3.134-1.366-4.52,1.544-5.242,7.559-4.624,11.97-4.533a.408.408,0,0,0,.5.063C19.348,49.312,25.652,56.255,21.088,58.488Zm-5.541-10c-1.672-.109-3.408-.018-5.029,0V45.223a9.061,9.061,0,0,0,5.029.017Zm-11.1-12.56a.6.6,0,0,0-.417-.519c-2.707-.559-2.755-3.272-2.647-5.556,5.174,7.437,18.085,7.472,23.238-.088.1,2.324.016,5.092-2.714,5.641a.511.511,0,0,0-.359.5C20.746,46.814,5.254,46.95,4.445,35.929Zm30.584,6.483c-.565,0-2.375.164-4.493.216a6.362,6.362,0,0,1,5.956-6.069c.527,3.9,6.435,3.755,6.874.051a6.638,6.638,0,0,1,6.126,5.8ZM31.483,23.833a.59.59,0,0,0-.49-.295c-1.958-.133-2.407-1.675-2.407-3.324a3.211,3.211,0,0,1,.393-2.2,1.415,1.415,0,0,1,2.435.905c-.1.549,1.2.82,1.172.156.318-2.609,2.279-2.595,4.256-3.221a17.634,17.634,0,0,1,2.774-1.008c2-.168,7.564,2.151,7.8,4.073-.036.367.437.589.794.528.227-.008.409-.117.378-.372a1.636,1.636,0,0,1,.713-1.351l1.415-.1c.979.487.656,1.8.7,2.69,0,1.669-.7,3.1-2.572,3.212-.193.026-.4.128-.4.288-.113,5.481-5.453,10.136-10.916,8.346a.379.379,0,0,0-.439-.15C33.744,30.8,31.847,27.439,31.483,23.833ZM28.4,17.05C27.381,9.069,32.558,5.153,39.942,5.6c7.586-.707,12.481,3.826,11.632,11.568a2.658,2.658,0,0,0-3.518.232c-1.417-2.541-5.163-2.244-7.762-3.754a.714.714,0,0,0-.708-.028c-2.623,1.523-6.433,1.145-7.749,3.83A2.732,2.732,0,0,0,28.4,17.05ZM42.434,32.911c.04,2.11.434,6.356-2.889,5.534-2.4-.593-2.058-3.566-1.986-5.6A10.448,10.448,0,0,0,42.434,32.911Zm16.1,4.763c-.458,4.946-4.236,4.742-8.118,4.738a7.519,7.519,0,0,0-6.882-6.976c.078-.961.041-1.962.034-2.859a9.008,9.008,0,0,0,5.98-8.157c2.875-.392,3.411-3.524,2.9-6,1-8.917-3.037-14.7-12.394-14.015-9.224-.683-13.493,4.941-12.51,13.845-.519,2.518.083,5.659,2.914,6.147a9.241,9.241,0,0,0,6,8.1c-.088.984-.029,2-.041,3a7.816,7.816,0,0,0-6.9,7.146c-4.13-.007-7.97-.391-8.087-3.12,2.408-6.155,4.968-2.57,3.974-11.684.833-3.979-1.207-7.972-3.944-9.377C22.078,13.9,18.95,2.177,25.437,1.588c6.333-.086,12.71.056,19.058,0,2.821,0,7.69-.96,10.388,0,3.706,1.421,4.138,5.44,3.655,8.888C58.331,19.526,58.918,28.655,58.538,37.674Z" fill="#262626" data-original="#262626" class=""></path></g></svg>