<svg xmlns="http://www.w3.org/2000/svg" version="1.1" xmlns:xlink="http://www.w3.org/1999/xlink" xmlns:svgjs="http://svgjs.com/svgjs" width="512" height="512" x="0" y="0" viewBox="0 0 60 60" style="enable-background:new 0 0 512 512" xml:space="preserve" class=""><g><path xmlns="http://www.w3.org/2000/svg" d="m22.7 4.081a.5.5 0 0 1 -.25-.933l3.829-2.21a.5.5 0 1 1 .5.865l-3.828 2.211a.494.494 0 0 1 -.251.067z" fill="#b24555" data-original="#b24555"></path><path xmlns="http://www.w3.org/2000/svg" d="m32.744 16.385a.5.5 0 0 1 -.293-.906l.713-.515-1.556.9a.5.5 0 0 1 -.535-.843l.417-.289-1.2.7a.5.5 0 0 1 -.545-.837l3.583-2.612-3.29 1.9a.5.5 0 0 1 -.569-.817l3.5-2.914-3.588 2.071a.5.5 0 0 1 -.556-.828l2.384-1.855-3.416 1.972a.5.5 0 0 1 -.545-.836l1.722-1.26-10.212 5.9a.5.5 0 0 1 -.522-.853l1.235-.8-2.971 1.709a.5.5 0 0 1 -.536-.843l8.556-5.963-10.614 6.134a.5.5 0 0 1 -.532-.845l7.944-5.435-8.953 5.169a.5.5 0 0 1 -.534-.844l7.31-5.045-7.791 4.5a.5.5 0 0 1 -.621-.767l1.256-1.389-1.235.712a.5.5 0 0 1 -.68-.687l.65-1.1-.326.188a.5.5 0 0 1 -.708-.633l.244-.558a.5.5 0 0 1 -.139-.92l.865-.5a.5.5 0 0 1 .708.633l-.153.352.666-.384a.492.492 0 0 1 .6.081.5.5 0 0 1 .075.606l-.651 1.1 2.332-1.346a.5.5 0 0 1 .621.768l-1.254 1.382 15.81-9.125a.5.5 0 0 1 .534.844l-7.307 5.043 9.515-5.494a.5.5 0 0 1 .533.846l-7.944 5.433 9.459-5.458a.5.5 0 0 1 .536.843l-8.562 5.965 9.633-5.562a.5.5 0 0 1 .521.853l-1.237.8 1.4-.809a.5.5 0 0 1 .545.836l-1.724 1.265 1.788-1.03a.5.5 0 0 1 .555.828l-2.386 1.845 2.284-1.318a.5.5 0 0 1 .569.817l-3.5 2.913 6.336-3.658a.5.5 0 0 1 .545.837l-3.589 2.613 3.586-2.065a.5.5 0 0 1 .535.844l-.781.541a.5.5 0 0 1 .363.9l-1.233.893a.5.5 0 0 1 .25.932l-7.638 4.409a.493.493 0 0 1 -.252.066z" fill="#b24555" data-original="#b24555"></path><path xmlns="http://www.w3.org/2000/svg" d="m29.539 17.463a.5.5 0 0 1 -.447-.723l.5-1a.469.469 0 0 1 -.1-.125.5.5 0 0 1 .183-.682l.583-.337a.5.5 0 0 1 .7.655l-.222.448 1.927-1.113a.5.5 0 1 1 .5.865l-3.374 1.949a.509.509 0 0 1 -.25.063z" fill="#cfd2d3" data-original="#cfd2d3" class=""></path><path xmlns="http://www.w3.org/2000/svg" d="m17.823 42.5a.5.5 0 0 1 -.264-.924l5.375-3.358-5.654 3.262a.5.5 0 0 1 -.512-.858l.544-.335-.032.018a.5.5 0 0 1 -.516-.856l7.6-4.8-7.084 4.094a.5.5 0 0 1 -.519-.854l9.223-5.889-8.7 5.024a.5.5 0 0 1 -.526-.849l12.588-8.327-12.066 6.962a.5.5 0 0 1 -.52-.854l6.813-4.372-6.293 3.633a.5.5 0 0 1 -.521-.853l5.961-3.847-5.44 3.14a.5.5 0 0 1 -.52-.853l3.381-2.171-2.861 1.651a.5.5 0 0 1 -.52-.853l1.944-1.25-1.416.819a.5.5 0 0 1 -.532-.846l8.224-5.623-7.437 4.294a.5.5 0 0 1 -.526-.849l3.825-2.539-2.715 1.563a.5.5 0 0 1 -.589-.8l3.391-3.119-.073.041a.5.5 0 0 1 -.5-.865l3.991-2.3a.5.5 0 0 1 .589.8l-3.393 3.122 12.635-7.299a.5.5 0 0 1 .526.85l-3.826 2.54 4.977-2.87a.5.5 0 0 1 .533.845l-8.223 5.621 8.144-4.7a.5.5 0 0 1 .52.854l-1.953 1.256 3.1-1.79a.5.5 0 0 1 .52.853l-3.375 2.161 4.58-2.643a.5.5 0 0 1 .522.852l-5.969 3.852 7.262-4.192a.5.5 0 0 1 .52.854l-6.8 4.365 7.831-4.52a.5.5 0 0 1 .527.849l-12.594 8.333 13.825-7.981a.5.5 0 0 1 .52.854l-9.21 5.877 9.8-5.656a.5.5 0 0 1 .516.855l-7.61 4.8 7.933-4.58a.5.5 0 0 1 .513.858l-.541.333.569-.328a.5.5 0 0 1 .515.857l-5.383 3.363 5.409-3.122a.5.5 0 0 1 .523.852l-11.3 7.368 11.328-6.54a.5.5 0 0 1 .528.848l-10.855 7.242 10.614-6.128a.5.5 0 0 1 .517.855l-.417.263a.5.5 0 0 1 .464.878l-8.683 6.072 8.152-4.706a.5.5 0 0 1 .543.838l-6.517 4.7 5.978-3.451a.5.5 0 0 1 .545.837l-3.909 2.85 3.368-1.944a.5.5 0 0 1 .565.821l-3.238 2.619 2.677-1.545a.5.5 0 0 1 .58.808l-1.592 1.4 1.016-.586a.5.5 0 0 1 .668.707l-.885 1.346.221-.127a.5.5 0 0 1 .5.866l-2.047 1.177a.493.493 0 0 1 -.613-.09.5.5 0 0 1 -.055-.617l.886-1.347-3.566 2.057a.5.5 0 0 1 -.581-.808l1.592-1.4-3.827 2.215a.5.5 0 0 1 -.564-.821l3.237-2.618-5.963 3.442a.5.5 0 0 1 -.545-.837l3.906-2.848-6.388 3.688a.5.5 0 0 1 -.543-.838l6.515-4.7-9.6 5.543a.5.5 0 0 1 -.536-.843l8.686-6.078-11.988 6.923a.5.5 0 0 1 -.517-.856l.264-.167-1.778 1.027a.5.5 0 0 1 -.528-.849l10.851-7.24-14.014 8.091a.5.5 0 0 1 -.523-.852l11.3-7.362-14.235 8.217a.494.494 0 0 1 -.25.068z" fill="#cfd2d3" data-original="#cfd2d3" class=""></path><path xmlns="http://www.w3.org/2000/svg" d="m32.863 59.462a.5.5 0 0 1 -.289-.908l7.726-5.466-9.78 5.646a.5.5 0 0 1 -.527-.849l5.748-3.809-7.028 4.058a.5.5 0 0 1 -.528-.849l8.588-5.741-10.063 5.808a.5.5 0 0 1 -.524-.851l8.527-5.588-9.759 5.635a.5.5 0 0 1 -.518-.855l5.917-3.77-6.766 3.906a.5.5 0 0 1 -.522-.852l9.716-6.287-10.748 6.21a.5.5 0 0 1 -.534-.844l10.124-7-11.376 6.567a.5.5 0 0 1 -.52-.852l2.263-1.46-2.671 1.542a.5.5 0 0 1 -.519-.853l2.248-1.46-2.584 1.491a.5.5 0 0 1 -.525-.849l3.17-2.093-3.393 1.959a.5.5 0 0 1 -.542-.838l6.926-4.992-7.088 4.092a.5.5 0 0 1 -.531-.847l.907-.614-.534.307a.5.5 0 0 1 -.554-.83l3.111-2.378-2.671 1.542a.5.5 0 0 1 -.587-.8l2.958-2.7-2.51 1.45a.5.5 0 0 1 -.588-.8l1.287-1.184-.8.463a.5.5 0 0 1 -.641-.745l1.2-1.493-.681.392a.5.5 0 0 1 -.7-.651l.564-1.16a.5.5 0 0 1 -.55-.237.5.5 0 0 1 .182-.682l1.266-.732a.5.5 0 0 1 .7.652l-.55 1.13 1.567-.9a.5.5 0 0 1 .64.745l-1.197 1.488 2.465-1.426a.5.5 0 0 1 .653.136.5.5 0 0 1 -.065.666l-1.288 1.177 2.53-1.46a.5.5 0 0 1 .587.8l-2.957 2.7 5.393-3.113a.5.5 0 0 1 .554.83l-3.116 2.381 5.785-3.339a.5.5 0 0 1 .53.847l-.9.61 3.714-2.135a.5.5 0 0 1 .542.837l-6.93 5 9.32-5.381a.5.5 0 0 1 .526.849l-3.175 2.095 4.614-2.663a.5.5 0 0 1 .522.851l-2.245 1.459 3.828-2.209a.5.5 0 0 1 .52.852l-2.256 1.455 4.347-2.51a.5.5 0 0 1 .534.844l-10.124 7 17.164-9.909a.5.5 0 0 1 .522.853l-9.719 6.277 9.493-5.481a.5.5 0 0 1 .519.855l-5.908 3.763 5.282-3.048a.5.5 0 0 1 .524.85l-8.538 5.594 7.886-4.552a.5.5 0 0 1 .528.849l-8.583 5.738 7.922-4.568a.5.5 0 0 1 .526.849l-5.762 3.811 5.116-2.953a.5.5 0 0 1 .539.84l-7.719 5.463 6.765-3.91a.5.5 0 0 1 .554.829l-3.482 2.674a.5.5 0 0 1 .448.892l-6.516 3.765a.5.5 0 0 1 -.555-.829l3.459-2.655-9.56 5.524a.5.5 0 0 1 -.25.062z" fill="#b6bbbc" data-original="#b6bbbc" class=""></path><path xmlns="http://www.w3.org/2000/svg" d="m24.647 35.47a.5.5 0 0 1 -.35-.857l1.2-1.178-3.384 1.953a.5.5 0 0 1 -.6-.786l1.236-1.236-1.467.847a.5.5 0 0 1 -.707-.635l.613-1.389a.5.5 0 0 1 -.353-.921l1.161-.67a.5.5 0 0 1 .707.634l-.6 1.35 3.44-1.982a.5.5 0 0 1 .6.786l-1.233 1.233 3.5-2.021a.5.5 0 0 1 .6.789l-1.2 1.18 1.9-1.095a.5.5 0 0 1 .66.717l-.854 1.231.2-.118a.5.5 0 0 1 .5.865l-2.137 1.233a.5.5 0 0 1 -.66-.717l.854-1.23-3.373 1.947a.49.49 0 0 1 -.253.07z" fill="#a1a7a8" data-original="#a1a7a8" class=""></path><path xmlns="http://www.w3.org/2000/svg" d="m37.359 35.47a.5.5 0 0 1 -.359-.85l1.311-1.344-2.031 1.172a.5.5 0 0 1 -.713-.621l.671-1.652a.5.5 0 0 1 -.407-.907l1.161-.67a.5.5 0 0 1 .713.621l-.664 1.635 3.91-2.256a.5.5 0 0 1 .608.782l-1.313 1.346 3.654-2.111a.5.5 0 0 1 .616.775l-1.372 1.464 1.572-.907a.5.5 0 0 1 .664.714l-.553.814a.5.5 0 0 1 .571.23.5.5 0 0 1 -.182.683l-1.755 1.012a.5.5 0 0 1 -.664-.714l.534-.785-2.6 1.5a.5.5 0 0 1 -.615-.774l1.371-1.465-3.878 2.238a.49.49 0 0 1 -.25.07z" fill="#a1a7a8" data-original="#a1a7a8" class=""></path><g xmlns="http://www.w3.org/2000/svg" fill="#262626"><path d="m30.718 31.689c-.144-1.894-9.307-1.527-10.207-.3-.358 1.162-.721 3.4.711 3.954 3.378-.313 10.778 2.097 9.496-3.654zm-8.972-.262h.006c-.021.019-.038-.014-.006 0zm1.025 3.146c-1.557.261-1.113-2.255-.892-3.14 2.89.466 8.936-1.828 7.245 3.14z" fill="#262626" data-original="#262626" class=""></path><path d="m35.459 31.365c-.773 2.238-.015 4.92 2.842 4.2 3.235-.131 8.648 1.238 7.416-3.872-.096-2.029-9.493-1.771-10.258-.328zm1.373.246c2.315-.139 4.731-.007 7.076-.049.638.335.271 1.367.356 1.992.141 1.8-3.063.524-4.289.885-2.807.025-3.754.537-3.143-2.828z" fill="#262626" data-original="#262626" class=""></path><path d="m10.016 6.562c-1.489.8-.449 3.693.067 4.87 2.4 5.611 9.916 4.673 14.242 1.991 3.885-3.49 5.738-.742 4.487 3.464-11.745.684-13.6 11.133-12.547 20.842-2.262 2.436-.091 6.842-.433 9.965 1.363 7.36 11.061 10.985 17.69 11.761 9.777-2.128 18.617-7.4 17.1-18.642.159-1.05.345-2.777-.891-3.191 1-9.7-.674-20.186-12.5-20.779q-.2-.8-.4-1.609c3.966-.8 9.648-12.041 1.861-7.9-1.007-7.626-11.462-8.734-16.386-4.209-5.186 5.213-5.82 4.591-12.29 3.437zm39.189 33.648c-.425 3.28.022 6.763-1.093 9.9-3.957 4.8-11.97 9.663-18.234 7.468-10.047-3.1-13.757-7.464-13.124-18.087-.005-.6 0-.954.895-.675 5.033 3.421 10.944 1.929 16.5 1.752a18.913 18.913 0 0 0 13.632-1.536c1.034-.778 1.741.014 1.424 1.178zm-3.546-18.3c3.856 4.328 2.323 10.462 2.608 15.748a18.84 18.84 0 0 1 -15.02 1.487 19.638 19.638 0 0 1 -15.514-1.576c-.8-9.16.2-19.289 11.63-19.756 1.1-.108.908-1.5 1.227-2.291h4.766c.054 4.163 7.325 1.897 10.303 6.383zm-34.213-13.968c8.449 3.825 12.548-9.67 21.076-5.885 6.661 1.935 2.328 9.117 8.511 5.412.037 5.407-5.54 7.9-10.35 7.014-.236-5.937-5.164-3.663-8.252-1.265-4.862 2.875-11.9.8-11.686-5.592a2.59 2.59 0 0 1 .701.316z" fill="#262626" data-original="#262626" class=""></path><path d="m32.264 44.048c.485 1.56-1.344 14.025 1.471 10.9-.484-1.556 1.345-14.021-1.471-10.9z" fill="#262626" data-original="#262626" class=""></path><path d="m26.276 44.194c.51 1.673-1.375 10.937 1.448 8.612-.51-1.673 1.376-10.937-1.448-8.612z" fill="#262626" data-original="#262626" class=""></path><path d="m20.276 44.194c.291 1.333-1 6.807 1.448 4.612-.291-1.333.998-6.806-1.448-4.612z" fill="#262626" data-original="#262626" class=""></path><path d="m38.266 44.053c.441 1.46-1.269 11.777 1.468 8.9-.441-1.466 1.266-11.783-1.468-8.9z" fill="#262626" data-original="#262626" class=""></path><path d="m45.446 43.615c-2.329.078-.724 3.971-1.171 5.579.3.446 1.4.151 1.449-.388-.224-1.613.466-3.906-.278-5.191z" fill="#262626" data-original="#262626" class=""></path><path d="m33.1 20.587c-1.912 1.025-.333 5.4-.822 7.5.079.623 1.351.307 1.451-.175-.436-1.905.919-6.495-.629-7.325z" fill="#262626" data-original="#262626" class=""></path></g></g></svg>