<svg xmlns="http://www.w3.org/2000/svg" version="1.1" xmlns:xlink="http://www.w3.org/1999/xlink" xmlns:svgjs="http://svgjs.com/svgjs" width="512" height="512" x="0" y="0" viewBox="0 0 512 512" style="enable-background:new 0 0 512 512" xml:space="preserve" class=""><g><g xmlns="http://www.w3.org/2000/svg"><g><path d="m12.073 243.927v113.552h243.927l10-199.979-10-157.5c-134.717 0-243.927 109.21-243.927 243.927z" fill="#9b9696" data-original="#9b9696" class=""></path><path d="m499.927 243.927c0-134.717-109.21-243.927-243.927-243.927v357.479h243.927z" fill="#736e6e" data-original="#736e6e"></path></g><g><path d="m12.073 357.479v154.521h243.927l10-189.28-10-199.168-130.686 27.925c-68.073 43.275-113.241 119.364-113.241 206.002z" fill="#736e6e" data-original="#736e6e"></path><path d="m256 123.552v388.448h243.927v-154.521c0-86.607-45.136-162.673-113.169-205.956z" fill="#464141" data-original="#464141"></path></g><g><path d="m163.094 368.179h-89.084c-34.207 0-61.938 27.73-61.938 61.937v81.884h242.778l11.15-82.318-10-61.503z" fill="#9b9696" data-original="#9b9696" class=""></path><path d="m499.927 430.117c0-34.207-27.73-61.937-61.938-61.937h-89.083-92.906l1.15 143.82h242.777z" fill="#736e6e" data-original="#736e6e"></path></g><g><g><path d="m198.5 397 56.35 115h1.15l10-78.333-10-36.667z" fill="#736e6e" data-original="#736e6e"></path><path d="m313.5 397h-57.5v115h1.15z" fill="#464141" data-original="#464141"></path></g><path d="m125.32 151.485v81.125c0 27.042 15.831 40.971 37.838 51.264v85.992c0 17.099 13.862 30.961 30.961 30.961h61.881l10-144.827-10-142.448c-48.079 0-92.904 13.918-130.68 37.933z" fill="#fff5f5" data-original="#fff5f5" class=""></path><path d="m386.754 151.531c-37.792-24.044-82.644-37.979-130.754-37.979v287.274h61.96c17.099 0 30.961-13.862 30.961-30.961v-86.078c21.9-10.284 37.838-24.211 37.838-51.178z" fill="#ebe1dc" data-original="#ebe1dc"></path></g><g><path d="m174 196.033h53.5v30h-53.5z" fill="#ff6c6c" data-original="#ff6c6c"></path></g><g><path d="m284.167 196.033h53.5v30h-53.5z" fill="#c83c50" data-original="#c83c50"></path></g><g><path d="m256 334.214h-45v-30h45l10 15z" fill="#736e6e" data-original="#736e6e"></path></g><g><path d="m256 304.214h45v30h-45z" fill="#464141" data-original="#464141"></path></g></g></g></svg>