<svg xmlns="http://www.w3.org/2000/svg" version="1.1" xmlns:xlink="http://www.w3.org/1999/xlink" xmlns:svgjs="http://svgjs.com/svgjs" width="512" height="512" x="0" y="0" viewBox="0 0 60 60" style="enable-background:new 0 0 512 512" xml:space="preserve" class=""><g><path xmlns="http://www.w3.org/2000/svg" d="m43.966 49.456a.5.5 0 0 1 -.25-.933l9.451-5.457a.5.5 0 0 1 .557.828l-2.044 1.59a.49.49 0 0 1 .185.185.5.5 0 0 1 -.182.683l-4.36 2.516a.5.5 0 0 1 -.556-.827l.619-.482-3.17 1.83a.494.494 0 0 1 -.25.067z" fill="#c0dadc" data-original="#c0dadc" class=""></path><path xmlns="http://www.w3.org/2000/svg" d="m23.983 59.47a.5.5 0 0 1 -.265-.924l8.249-5.183-10.462 6.037a.5.5 0 0 1 -.521-.853l15.872-10.19-18.625 10.753a.5.5 0 0 1 -.514-.857l11.533-7.187-11.9 6.87a.5.5 0 0 1 -.516-.857l14.311-8.979-13.865 8a.5.5 0 0 1 -.51-.86l1.83-1.115-1.318.761a.5.5 0 0 1 -.517-.855l16.6-10.537-16.085 9.284a.5.5 0 0 1 -.518-.854l17.812-11.331-17.294 9.984a.5.5 0 0 1 -.511-.858l7.592-4.675-7.58 4.376a.5.5 0 0 1 -.512-.858l9.431-5.824-11.182 6.462a.5.5 0 0 1 -.511-.859l5.407-3.3-6.485 3.744a.5.5 0 0 1 -.513-.857l14.046-8.686-15.246 8.8a.5.5 0 0 1 -.514-.857l16.328-10.117-17.33 10.007a.5.5 0 0 1 -.514-.856l20.614-12.887-21.557 12.445a.5.5 0 0 1 -.513-.857l18.038-11.164-18.578 10.724a.5.5 0 0 1 -.515-.856l22.325-13.97-22.771 13.146a.5.5 0 0 1 -.515-.857l21.358-13.323-21.466 12.393a.5.5 0 0 1 -.508-.861l4.073-2.463-3.783 2.184a.5.5 0 0 1 -.515-.857l20.084-12.506-19.657 11.349a.5.5 0 0 1 -.519-.859l20.787-13.014-19.883 11.48a.5.5 0 0 1 -.512-.859l11.662-7.162-10.335 5.965a.5.5 0 0 1 -.514-.857l14.058-8.717-13.508 7.8a.5.5 0 0 1 -.517-.856l18.31-11.567-18.351 10.596a.5.5 0 0 1 -.518-.856l17.615-11.147-17.506 10.106a.5.5 0 0 1 -.515-.856l13.979-8.766-13.672 7.894a.5.5 0 0 1 -.514-.858l10.653-6.639-10.219 5.9a.5.5 0 0 1 -.512-.858l3.385-2.079-2.842 1.641a.5.5 0 0 1 -.518-.854l12.8-8.136-12.072 6.969a.5.5 0 0 1 -.515-.857l7.893-4.959-7.04 4.064a.5.5 0 0 1 -.519-.854l9.593-6.144-8.456 4.88a.5.5 0 0 1 -.516-.856l2.361-1.481-1.19.686a.5.5 0 0 1 -.519-.854l2.792-1.777-1.338.773a.5.5 0 0 1 -.521-.853l2.15-1.39-.323.187a.5.5 0 0 1 -.558-.827l5.184-4.043a.5.5 0 0 1 -.4-.911l6.062-3.5a.5.5 0 0 1 .558.827l-5.107 3.986 11.379-6.567a.5.5 0 0 1 .522.852l-2.135 1.378 4.187-2.417a.5.5 0 0 1 .519.855l-2.793 1.776 4.5-2.6a.5.5 0 0 1 .516.856l-2.371 1.49 3.763-2.17a.5.5 0 0 1 .52.854l-9.588 6.139 11.412-6.587a.5.5 0 0 1 .516.856l-7.9 4.966 9.253-5.348a.5.5 0 0 1 .519.855l-12.791 8.133 14.342-8.28a.5.5 0 0 1 .512.859l-3.395 2.087 4.166-2.406a.5.5 0 0 1 .514.858l-10.648 6.633 11.659-6.731a.5.5 0 0 1 .516.856l-13.981 8.767 15.057-8.693a.5.5 0 0 1 .517.855l-17.619 11.151 18.784-10.844a.5.5 0 0 1 .517.855l-18.3 11.56 19.318-11.154a.5.5 0 0 1 .513.857l-14.064 8.723 14.706-8.491a.5.5 0 0 1 .512.859l-11.667 7.167 12.118-7a.5.5 0 0 1 .515.856l-20.796 13.025 21.463-12.391a.5.5 0 0 1 .515.857l-20.085 12.506 20.582-11.882a.5.5 0 0 1 .509.861l-4.047 2.447 4.094-2.363a.5.5 0 0 1 .514.856l-21.363 13.326 21.692-12.523a.5.5 0 0 1 .515.856l-22.318 13.968 22.527-13.006a.5.5 0 0 1 .513.858l-18.035 11.163 18.011-10.4a.5.5 0 0 1 .515.857l-20.626 12.893 20.522-11.847a.5.5 0 0 1 .513.857l-16.32 10.111 16.012-9.245a.5.5 0 0 1 .512.858l-14.028 8.675 13.593-7.849a.5.5 0 0 1 .511.859l-5.437 3.317 4.888-2.822a.5.5 0 0 1 .512.859l-9.435 5.823 8.756-5.055a.5.5 0 0 1 .511.859l-7.583 4.67 6.789-3.919a.5.5 0 0 1 .518.854l-17.818 11.335 16.55-9.554a.5.5 0 0 1 .521.854l-16.6 10.533 16.2-9.352a.5.5 0 0 1 .51.859l-1.836 1.12 1.745-1.007a.5.5 0 0 1 .516.857l-14.306 8.983 14.258-8.231a.5.5 0 0 1 .513.858l-11.539 7.191 11.239-6.491a.5.5 0 0 1 .521.854l-15.876 10.194 15.255-8.807a.5.5 0 0 1 .515.856l-8.235 5.175 7.266-4.195a.5.5 0 0 1 .518.854l-11.506 7.308a.493.493 0 0 1 .232.191.5.5 0 0 1 -.127.677l-5.063 3.664 4.523-2.61a.5.5 0 0 1 .55.833l-3.278 2.454 2.728-1.575a.5.5 0 0 1 .554.83l-1.5 1.151.943-.544a.5.5 0 0 1 .6.79l-1.585 1.548.986-.569a.5.5 0 0 1 .647.736l-.609.8a.5.5 0 0 1 .174.926l-1.658.957a.5.5 0 0 1 -.647-.735l.438-.576-2.277 1.313a.5.5 0 0 1 -.6-.79l1.585-1.548-4.05 2.338a.5.5 0 0 1 -.555-.829l1.494-1.149-3.427 1.978a.5.5 0 0 1 -.549-.833l3.277-2.454-5.694 3.287a.5.5 0 0 1 -.543-.838l5.067-3.662-7.8 4.5a.5.5 0 0 1 -.517-.854l7.615-4.836-9.859 5.69a.5.5 0 0 1 -.25.07z" fill="#c0dadc" data-original="#c0dadc" class=""></path><path xmlns="http://www.w3.org/2000/svg" d="m17.922 42.39a.5.5 0 0 1 -.3-.9l2.3-1.725-3.6 2.078a.5.5 0 0 1 -.553-.829l4.749-3.64-6 3.465a.5.5 0 0 1 -.531-.847l.928-.629-1.269.733a.5.5 0 0 1 -.55-.832l5.582-4.193-6.188 3.572a.5.5 0 0 1 -.557-.827l5.6-4.382-5.879 3.393a.5.5 0 0 1 -.554-.827l3.379-2.577-3.156 1.817a.5.5 0 0 1 -.546-.836l.528-.386h-.008a.5.5 0 0 1 -.631-.756l1.658-1.947-.13.075a.5.5 0 0 1 -.5-.866l2.641-1.524a.5.5 0 0 1 .631.757l-1.659 1.948 5.385-3.105a.5.5 0 0 1 .546.836l-.53.388 2.024-1.168a.5.5 0 0 1 .554.83l-3.377 2.574 5.285-3.051a.5.5 0 0 1 .558.826l-5.6 4.384 7.2-4.156a.5.5 0 0 1 .549.832l-5.581 4.192 6.08-3.508a.5.5 0 0 1 .53.847l-.931.631.664-.383a.5.5 0 0 1 .554.829l-4.747 3.638 4.162-2.4a.5.5 0 0 1 .55.833l-2.3 1.725 1.247-.72a.5.5 0 0 1 .583.806l-2.055 1.834a.493.493 0 0 1 .338.241.5.5 0 0 1 -.182.683l-3.413 1.966a.5.5 0 0 1 -.583-.8l1.606-1.434-4.247 2.452a.493.493 0 0 1 -.254.063z" fill="#86a9af" data-original="#86a9af"></path><path xmlns="http://www.w3.org/2000/svg" d="m39.407 42.305a.5.5 0 0 1 -.3-.9l3.072-2.318-4.379 2.528a.5.5 0 0 1 -.551-.832l4.738-3.567-5.812 3.355a.5.5 0 0 1 -.55-.833l5.447-4.075-6.175 3.566a.5.5 0 0 1 -.535-.844l2.25-1.552-2.378 1.367a.5.5 0 0 1 -.556-.827l5.152-4.011-5.3 3.057a.5.5 0 0 1 -.53-.839l.734-.517-.4.231a.5.5 0 0 1 -.579-.809l2.8-2.457-2.178 1.258a.5.5 0 0 1 -.6-.788l1.063-1.05a.491.491 0 0 1 -.325-.238.5.5 0 0 1 .182-.683l2.638-1.527a.5.5 0 0 1 .6.788l-.7.688 3.217-1.858a.5.5 0 0 1 .579.809l-2.8 2.458 5.589-3.227a.5.5 0 0 1 .538.842l-.734.517 1.976-1.14a.5.5 0 0 1 .557.827l-5.152 4.011 6.9-3.984a.5.5 0 0 1 .534.844l-2.239 1.549 2.657-1.534a.5.5 0 0 1 .55.833l-5.452 4.077 5.634-3.252a.5.5 0 0 1 .551.832l-4.74 3.567 4.293-2.477a.5.5 0 0 1 .552.832l-3.07 2.318 2.13-1.229a.5.5 0 0 1 .594.8l-2.448 2.333a.5.5 0 0 1 .358.921l-3.409 1.964a.5.5 0 0 1 -.594-.8l2.376-2.264-5.521 3.187a.493.493 0 0 1 -.254.073z" fill="#86a9af" data-original="#86a9af"></path><path xmlns="http://www.w3.org/2000/svg" d="m33.487 49.459a.5.5 0 0 1 -.418-.774l.148-.225-.952.549a.5.5 0 0 1 -.624-.765l.1-.112-.852.492a.5.5 0 0 1 -.629-.759l.756-.877-4.134 2.386a.5.5 0 0 1 -.586-.8l2.214-2.009-3.177 1.835a.5.5 0 0 1 -.556-.83l.918-.707a.454.454 0 0 1 -.42-.194.5.5 0 0 1 .043-.658l2.665-2.669a.521.521 0 0 1 -.076-.1.5.5 0 0 1 .183-.682l1.655-.955a.5.5 0 0 1 .6.786l-1.645 1.641 2.664-1.532a.5.5 0 0 1 .556.829l-.582.448.712-.411a.5.5 0 0 1 .586.8l-2.215 2.011 2.646-1.528a.5.5 0 0 1 .629.759l-.756.877.976-.562a.5.5 0 0 1 .624.764l-.1.114.1-.058a.5.5 0 0 1 .668.707l-.284.434a.5.5 0 0 1 .17.925l-1.357.784a.489.489 0 0 1 -.25.066z" fill="#86a9af" data-original="#86a9af"></path><g xmlns="http://www.w3.org/2000/svg" fill="#262626"><path d="m50.84 10.148c-14.825-19.324-51.63-6.6-46 18.935 1.417 2.959.629 4.087-.34 6.862-1.414 6.135 3.364 12.338 9.47 13.186.72.115 1.993-.007 2.306.757.036 2.118-.024 4.311 0 6.454-.513 3.668 3.674 2.966 6.06 2.951.271.38.837.275 1.193 0 4.28-.006 8.553.025 12.837.016 2.405-.006 7.246.8 7.358-2.862-.044-2.278.418-5.027-.139-7.132 8.559 0 15.477-9.586 10.5-17.274a21.849 21.849 0 0 0 -3.245-21.893zm1.795 22.2c4.378 6.763-.669 16.611-8.9 16.387-.827.144-1.406.449-1.46 1.312-.457 2.374 1 7.086-.819 8.66-1.216.062-2.492-.04-3.727 0-.287-1.038.707-4.115-.647-4.175-1.62.362-.5 2.922-.811 4.175-1.849 0-3.7-.007-5.547.005v-3.906c-2.215-.846-1.265 2.638-1.448 3.918-1.845.021-3.694.049-5.542.05-.312-1.155.755-4.055-.671-4.311-1.611.42-.478 3.021-.8 4.3-6.788 1.02-3.945-5.168-4.541-9.335-.107-.492-.362-.653-.854-.725-7.657.137-13.6-8.3-10.179-15.367.135-.3.647-.921.673-1.249a21.6 21.6 0 0 1 1.824-19.914c14.481-22.812 53.675-6.307 43.449 20.176z" fill="#262626" data-original="#262626"></path><path d="m27.729 33.925c-.111-7.1-10.882-6.14-15.406-4.035-2.807 1.865-2.4 5.942-.864 8.508 4.188 7.272 16.372 3.915 16.27-4.473zm-6.169 7.19c-5.653 2.437-12.612-5.1-8.84-10.25 3.193-2.161 8.238-1.775 11.725-.452 3.879 2.815 1.106 9.373-2.885 10.702z" fill="#262626" data-original="#262626"></path><path d="m48.018 29.971c-6.413-3.392-20.355-1.337-14.455 8.582 5.543 9.147 21.486.002 14.455-8.582zm-4.635 11.3c-5.717 2.229-12.503-5.543-8.569-10.571 3.256-2.036 8.358-1.751 11.791-.216 3.673 3.041.865 9.527-3.222 10.786z" fill="#262626" data-original="#262626"></path><path d="m32.3 42.616c-3.055-3.153-5.649 1.734-7.426 3.856-2.274 3.843 2.815 2.851 4.877 2 1.9.505 5.138 1.988 5.957-.748-.191-2.024-2.396-3.408-3.408-5.108zm1.678 5.912c-1 .067-2.139-.581-3.182-.764-1.593-.628-4.205 2.114-5.035-.035.277-1.952 2.418-3.334 3.428-5.015.65-.766 1.426.029 1.88.605.806 1.648 3.841 3.259 2.908 5.209z" fill="#262626" data-original="#262626"></path></g></g></svg>