<svg xmlns="http://www.w3.org/2000/svg" version="1.1" xmlns:xlink="http://www.w3.org/1999/xlink" xmlns:svgjs="http://svgjs.com/svgjs" width="512" height="512" x="0" y="0" viewBox="0 0 60 60" style="enable-background:new 0 0 512 512" xml:space="preserve" class=""><g><path xmlns="http://www.w3.org/2000/svg" d="m14.06 48.894a.5.5 0 0 1 -.35-.858l.853-.836-2.029 1.171a.5.5 0 0 1 -.608-.781l1.294-1.326-2.311 1.336a.5.5 0 0 1 -.575-.813l.2-.168-.184.106a.5.5 0 0 1 -.6-.788l.808-.8a.506.506 0 0 1 -.478-.173.5.5 0 0 1 .008-.646l1.3-1.5a.5.5 0 0 1 .227-.58l.621-.358a.5.5 0 0 1 .628.76l-.08.093.566-.327a.5.5 0 0 1 .6.788l-.727.718 1.491-.86a.5.5 0 0 1 .575.812l-.2.168.763-.44a.5.5 0 0 1 .609.781l-1.293 1.326 2.315-1.337a.5.5 0 0 1 .6.79l-.853.835 1.662-.959a.5.5 0 0 1 .7.642l-.687 1.489 2.022-1.167a.5.5 0 0 1 .5.866l-3.385 1.954a.5.5 0 0 1 -.7-.642l.686-1.488-3.718 2.144a.493.493 0 0 1 -.25.068z" fill="#aac7c8" data-original="#aac7c8" class=""></path><path xmlns="http://www.w3.org/2000/svg" d="m26.394 35.7a.5.5 0 0 1 -.494-.581l.138-.838-2.3 1.327a.5.5 0 0 1 -.653-.728l1.133-1.547-2.884 1.667a.5.5 0 0 1 -.585-.8l.772-.7-1.542.891a.5.5 0 0 1 -.617-.774l2.131-2.292-3.277 1.892a.5.5 0 0 1 -.6-.789l2-1.959-1.879 1.081a.5.5 0 0 1 -.644-.74l1.858-2.385a.5.5 0 0 1 -.11-.913l1.577-.911a.5.5 0 0 1 .644.74l-1.606 2.059 3.065-1.769a.5.5 0 0 1 .6.789l-2 1.96 2.753-1.58a.5.5 0 0 1 .616.773l-2.131 2.292 2.774-1.6a.5.5 0 0 1 .585.8l-.774.7.831-.48a.5.5 0 0 1 .654.729l-1.129 1.543 1.156-.668a.5.5 0 0 1 .743.513l-.156.95a.5.5 0 0 1 .213.931l-.609.352a.5.5 0 0 1 -.253.065z" fill="#aac7c8" data-original="#aac7c8" class=""></path><path xmlns="http://www.w3.org/2000/svg" d="m46.612 17.766a.5.5 0 0 1 -.36-.847l.854-.886-1.7.979a.5.5 0 0 1 -.611-.779l1.391-1.455-2.478 1.431a.5.5 0 0 1 -.637-.75l1.541-1.874-2.907 1.678a.5.5 0 0 1 -.605-.784l.711-.72-1.48.854a.5.5 0 0 1 -.671-.7l.441-.688-1.221.705a.5.5 0 1 1 -.5-.865l3-1.735a.5.5 0 0 1 .671.7l-.442.69 2.921-1.687a.5.5 0 0 1 .606.784l-.713.721 2.071-1.2a.5.5 0 0 1 .637.75l-1.531 1.879 3.122-1.8a.5.5 0 0 1 .611.778l-1.395 1.455 1.741-1a.5.5 0 0 1 .61.779l-1.012 1.049a.574.574 0 0 1 .44.25.5.5 0 0 1 -.183.682l-2.672 1.54a.49.49 0 0 1 -.25.066z" fill="#646477" data-original="#646477"></path><path xmlns="http://www.w3.org/2000/svg" d="m38.235 33.1a.5.5 0 0 1 -.338-.868l1.139-1.047-1.769 1.015a.5.5 0 0 1 -.593-.8l2.062-1.938-2.753 1.589a.5.5 0 0 1 -.56-.825l.376-.3-.542.312a.5.5 0 0 1 -.559-.826l.058-.045-.1.055a.5.5 0 0 1 -.566-.82l.26-.213-.231.133a.5.5 0 0 1 -.654-.727l1.235-1.673-1.229.71a.5.5 0 0 1 -.736-.552l.158-.643a.5.5 0 0 1 -.124-.918l.59-.34a.5.5 0 0 1 .735.553l-.11.45 2.265-1.308a.5.5 0 0 1 .654.728l-1.227 1.68 3.534-2.04a.5.5 0 0 1 .566.82l-.265.217.825-.479a.5.5 0 0 1 .559.826l-.05.039.369-.213a.5.5 0 0 1 .56.825l-.377.3.573-.33a.5.5 0 0 1 .592.8l-2.062 1.934 1.963-1.134a.5.5 0 0 1 .588.8l-1.4 1.287a.5.5 0 0 1 .23.932l-3.4 1.962a.49.49 0 0 1 -.246.072z" fill="#646477" data-original="#646477"></path><path xmlns="http://www.w3.org/2000/svg" d="m21.5 10.308a.5.5 0 0 1 -.25-.933l15.096-8.719a.5.5 0 0 1 .541.84l-2.644 1.887 3.867-2.233a.5.5 0 0 1 .554.83l-3.539 2.71 1.229-.71a.5.5 0 0 1 .594.8l-2.135 2.012a.5.5 0 0 1 .123.916l-2.862 1.652a.5.5 0 0 1 -.594-.8l1.677-1.58-4.194 2.42a.5.5 0 0 1 -.554-.83l3.54-2.71-6.179 3.57a.5.5 0 0 1 -.541-.84l2.643-1.89-6.127 3.54a.5.5 0 0 1 -.245.068z" fill="#c0dadc" data-original="#c0dadc"></path><path xmlns="http://www.w3.org/2000/svg" d="m26.459 4.951a.5.5 0 0 1 -.25-.932l3.762-2.172a.5.5 0 0 1 .5.865l-3.762 2.172a.494.494 0 0 1 -.25.067z" fill="#c0dadc" data-original="#c0dadc"></path><path xmlns="http://www.w3.org/2000/svg" d="m25.305 47.452a.5.5 0 0 1 -.279-.915l1.985-1.332-3.5 2.022a.5.5 0 0 1 -.541-.839l6.161-4.418-8.258 4.766a.5.5 0 0 1 -.535-.843l4.89-3.387-6.3 3.64a.5.5 0 0 1 -.528-.846l.7-.458-1.428.824a.5.5 0 0 1 -.534-.844l3.757-2.591-4.719 2.723a.5.5 0 0 1 -.554-.83l5.9-4.5-7.279 4.2a.5.5 0 0 1 -.532-.845l1.408-.964-1.9 1.1a.5.5 0 0 1 -.54-.839l2.723-1.942-3.294 1.9a.5.5 0 0 1 -.547-.835l3.195-2.364-3.776 2.181a.5.5 0 0 1 -.559-.826l3.779-2.982-4.424 2.554a.5.5 0 0 1 -.568-.817l3.853-3.19-4.448 2.567a.5.5 0 0 1 -.555-.828l2.342-1.81-2.587 1.493a.5.5 0 0 1 -.55-.832l1.465-1.106-1.551.9a.5.5 0 0 1 -.569-.817l2.838-2.351-3.017 1.738a.5.5 0 0 1 -.579-.809l3.234-2.824-3.374 1.948a.5.5 0 0 1 -.564-.823l2.192-1.766-2.1 1.213a.5.5 0 0 1 -.576-.812l3.171-2.736-3.056 1.763a.5.5 0 0 1 -.56-.824l2.166-1.72-1.867 1.081a.5.5 0 0 1 -.553-.83l1.474-1.123-1.073.619a.5.5 0 0 1 -.568-.819l3.559-2.939-3.071 1.769a.5.5 0 0 1 -.561-.823l3.838-3.065-3.168 1.829a.5.5 0 0 1 -.55-.833l3.728-2.793-2.871 1.659a.5.5 0 0 1 -.519-.854l11.946-7.634-10.835 6.253a.5.5 0 0 1 -.516-.857l2.964-1.854-1.8 1.037a.5.5 0 0 1 -.529-.848l5.289-3.551-3.459 2a.5.5 0 0 1 -.562-.822l4.582-3.676a.5.5 0 0 1 -.47-.881l5.636-3.254a.5.5 0 0 1 .562.822l-4.58 3.668 10.478-6.049a.5.5 0 0 1 .529.848l-5.287 3.553 13.478-7.781a.5.5 0 0 1 .516.857l-2.958 1.85 5.676-3.278a.5.5 0 0 1 .519.853l-20.389 13.033.01.016a.5.5 0 0 1 -.117.676l-3.721 2.788 1.672-.966a.5.5 0 0 1 .562.823l-3.841 3.068 2.5-1.444a.5.5 0 0 1 .568.819l-3.558 2.939 2.7-1.555a.5.5 0 0 1 .553.83l-1.479 1.12.925-.533a.5.5 0 0 1 .561.824l-2.166 1.72 1.784-1.03a.5.5 0 0 1 .576.812l-3.175 2.74 3.09-1.783a.5.5 0 0 1 .564.822l-2.189 1.764 2.239-1.292a.5.5 0 0 1 .579.809l-3.235 2.826 3.72-2.148a.5.5 0 0 1 .568.817l-2.838 2.352 3.459-2a.5.5 0 0 1 .551.832l-1.462 1.1 1.968-1.132a.5.5 0 0 1 .556.828l-2.344 1.812 3.16-1.824a.5.5 0 0 1 .568.818l-3.853 3.19 5.339-3.082a.5.5 0 0 1 .558.826l-3.783 2.973 5.36-3.094a.5.5 0 0 1 .547.835l-3.2 2.367 4.68-2.7a.5.5 0 0 1 .54.84l-2.717 1.937 4.164-2.4a.5.5 0 0 1 .532.846l-1.415.968 2.732-1.577a.5.5 0 0 1 .553.83l-5.9 4.5 8.748-5.05a.5.5 0 0 1 .534.843l-3.754 2.59 5.593-3.228a.5.5 0 0 1 .524.85l-.7.457 1.887-1.088a.5.5 0 0 1 .535.843l-4.9 3.391 6.518-3.763a.5.5 0 0 1 .541.839l-6.159 4.417 7.555-4.361a.5.5 0 0 1 .528.847l-1.966 1.32 2.3-1.328a.5.5 0 0 1 .543.838l-4.074 2.947 4.031-2.326a.5.5 0 0 1 .543.838l-1.559 1.131.9-.518a.5.5 0 0 1 .559.826l-1.09.855a.5.5 0 0 1 .15.923l-5.041 2.91a.5.5 0 0 1 -.558-.826l.392-.308-3.3 1.906a.5.5 0 0 1 -.543-.838l1.547-1.13-3.99 2.3a.5.5 0 0 1 -.543-.838l4.078-2.948-6.694 3.864a.494.494 0 0 1 -.246.074z" fill="#c0dadc" data-original="#c0dadc"></path><g xmlns="http://www.w3.org/2000/svg" fill="#727284"><path d="m32.028 43.468a.5.5 0 0 1 -.426-.76l.714-1.174-1.705.984a.5.5 0 0 1 -.692-.666l.8-1.521-.157.09a.5.5 0 0 1 -.5-.865l1.658-.956a.5.5 0 0 1 .6.072.5.5 0 0 1 .1.594l-.8 1.519 1.9-1.1a.5.5 0 0 1 .676.693l-.716 1.177a.5.5 0 0 1 .462.885l-1.656.956a.49.49 0 0 1 -.258.072z" fill="#727284" data-original="#727284" class=""></path><path d="m34.521 55.458a.5.5 0 0 1 -.25-.933l19.494-11.254a.5.5 0 0 1 .527.848l-3.47 2.308 1.678-.967a.5.5 0 0 1 .544.837l-3.165 2.3a.5.5 0 0 1 .412.906l-8.141 4.697a.5.5 0 0 1 -.544-.837l3.094-2.244-7.044 4.067a.5.5 0 0 1 -.527-.849l3.481-2.316-5.836 3.37a.5.5 0 0 1 -.253.067z" fill="#727284" data-original="#727284" class=""></path><path d="m22.682 59.458a.5.5 0 0 1 -.308-.895l4.478-3.488-4.733 2.733a.5.5 0 0 1 -.553-.83l2.569-1.956a.5.5 0 0 1 -.381-.206.5.5 0 0 1 .071-.665l1.321-1.182a.5.5 0 0 1 -.134-.152.5.5 0 0 1 .182-.682l2.524-1.457a.5.5 0 0 1 .584.8l-.225.2 1.882-1.078a.5.5 0 0 1 .553.83l-2.07 1.57 4.166-2.4a.5.5 0 0 1 .558.827l-4.478 3.487 8.225-4.748a.5.5 0 0 1 .566.82l-4.614 3.749 21.281-12.287a.5.5 0 0 1 .5.865l-26.721 15.427a.5.5 0 0 1 -.566-.82l4.612-3.748-9.039 5.219a.491.491 0 0 1 -.25.067z" fill="#727284" data-original="#727284" class=""></path><path d="m44.529 46.65a.5.5 0 0 1 -.286-.91l2.013-1.4a.5.5 0 0 1 -.341-.907l1.04-.727a.5.5 0 0 1 -.247-.9l1.755-1.294-.616.355a.5.5 0 0 1 -.547-.835l1.17-.863-.33.19a.5.5 0 0 1 -.565-.821l2.951-2.383-2.252 1.3a.5.5 0 0 1 -.559-.825l2.1-1.653-1.631.942a.5.5 0 0 1 -.562-.824l2.1-1.67-1.815 1.047a.5.5 0 0 1 -.566-.821l2.417-1.972-2.351 1.356a.5.5 0 0 1 -.564-.821l2.225-1.8-2.343 1.353a.5.5 0 0 1 -.579-.81l3.225-2.8-3.771 2.173a.5.5 0 0 1 -.555-.829l1.668-1.282-2.089 1.2a.5.5 0 0 1 -.566-.82l2.959-2.412-3.824 2.213a.5.5 0 0 1 -.543-.838l.611-.44-1.155.666a.5.5 0 0 1 -.545-.836l1.578-1.159-2.373 1.37a.5.5 0 0 1 -.547-.835l2.125-1.564-3.156 1.821a.5.5 0 0 1 -.564-.821l4.561-3.691-6.573 3.794a.5.5 0 0 1 -.556-.828l4.756-3.686-6.92 4a.5.5 0 0 1 -.552-.831l5.166-3.9-7.629 4.4a.5.5 0 0 1 -.537-.842l3.922-2.753-5.894 3.4a.5.5 0 0 1 -.537-.842l4.786-3.363-6.855 3.957a.5.5 0 0 1 -.527-.849l1.971-1.31-3.259 1.88a.5.5 0 0 1 -.545-.836l6.812-4.978-8.752 5.053a.5.5 0 0 1 -.529-.848l2.879-1.94-3.519 2.031a.5.5 0 0 1 -.542-.839l4.773-3.427-5.09 2.938a.5.5 0 0 1 -.539-.841l2.236-1.587-1.831 1.057a.5.5 0 0 1 -.6-.789l2.437-2.394-.464.268a.5.5 0 1 1 -.5-.865l3.869-2.234a.5.5 0 0 1 .6.789l-2.437 2.394 7.666-4.426a.5.5 0 0 1 .539.841l-2.235 1.586 4.566-2.636a.5.5 0 0 1 .542.839l-4.773 3.428 7.259-4.191a.5.5 0 0 1 .529.848l-2.882 1.942 4.353-2.512a.5.5 0 0 1 .544.836l-6.813 4.977 8.923-5.151a.5.5 0 0 1 .526.848l-1.969 1.31 2.858-1.649a.5.5 0 0 1 .537.841l-4.785 3.365 5.964-3.443a.5.5 0 0 1 .537.842l-3.916 2.753 4.832-2.789a.5.5 0 0 1 .552.831l-5.167 3.905 6.291-3.631a.5.5 0 0 1 .556.828l-4.756 3.685 5.716-3.3a.5.5 0 0 1 .565.822l-4.564 3.687 5.435-3.138a.5.5 0 0 1 .547.835l-2.122 1.565 2.456-1.417a.5.5 0 0 1 .546.836l-1.579 1.159 1.8-1.038a.5.5 0 0 1 .543.838l-.615.444.7-.405a.5.5 0 0 1 .566.82l-2.957 2.41 3.247-1.874a.5.5 0 0 1 .554.829l-1.669 1.284 1.722-.994a.5.5 0 0 1 .578.81l-3.223 2.8 3.392-1.958a.5.5 0 0 1 .565.821l-2.226 1.8 2.161-1.247a.5.5 0 0 1 .567.82l-2.417 1.973 2.279-1.316a.5.5 0 0 1 .561.825l-2.1 1.67 1.85-1.069a.5.5 0 0 1 .56.825l-2.1 1.655 1.76-1.016a.5.5 0 0 1 .565.821l-2.951 2.382 2.505-1.45a.5.5 0 0 1 .547.835l-1.174.866.633-.365a.5.5 0 0 1 .547.835l-1.753 1.291 1.12-.647a.5.5 0 0 1 .536.843l-.508.355a.5.5 0 0 1 .348.907l-1.616 1.129.765-.442a.5.5 0 0 1 .5.866l-10.866 6.272a.494.494 0 0 1 -.25.067z" fill="#727284" data-original="#727284" class=""></path></g><path xmlns="http://www.w3.org/2000/svg" d="m27.865 21.459a.5.5 0 0 1 -.427-.761l.791-1.292-1.7.982a.5.5 0 0 1 -.682-.684l.756-1.3-.039.022a.5.5 0 0 1 -.5-.865l1.658-.956a.494.494 0 0 1 .6.079.5.5 0 0 1 .079.6l-.755 1.3 1.785-1.03a.5.5 0 0 1 .608.084.5.5 0 0 1 .068.609l-.791 1.292.2-.115a.5.5 0 0 1 .5.865l-1.905 1.1a.489.489 0 0 1 -.246.07z" fill="#c0dadc" data-original="#c0dadc"></path><path xmlns="http://www.w3.org/2000/svg" d="m9.454 46.79c2.865 3.347 9.191 2.9 12.4.15 16.537 3.138 32.321-11.532 5.884-12.162-.724-6.038-8.47-12.769-10.993-3.7-9.093-6.935-1.473-22.147 9.132-21.794 2.758-.138 5.82.565 8.292-.978 1.445-.923 2.087-2.576 3.089-3.9.573-.757 2.763-2.38 1.561-3.413-4.353-.6-9.966.628-13.269 3.761-20.759-.174-30.191 24.146-14.159 37.479-.808 1.423-2.648 2.746-1.937 4.557zm10.171-18.542c1.875-2.614 6.683 4.25 6.627 6.334a22.138 22.138 0 0 1 -8.421-2.763c.598-1.19 1.199-2.38 1.794-3.571zm-14.769-1.022c-1.807-12.064 8.808-22.442 20.671-21.942.31 0 1.022-.092 1.186-.416 2.106-2.767 6.292-3.342 9.543-3.532 2.918-.064.4 2.266-.425 3.332-1.208 1.6-1.931 3.888-4.254 4.048-13.848-2.722-28.641 13.014-15.277 23.475a25.367 25.367 0 0 0 10.068 3.2c24.574.08 12.745 14.278-4.2 10.865a22.148 22.148 0 0 1 -17.312-19.03zm6.582 17.039.915-1.292a20.72 20.72 0 0 0 8.119 3.7c-1.983 2.177-12.099 2.009-9.034-2.408z" fill="#262626" data-original="#262626" class=""></path><path xmlns="http://www.w3.org/2000/svg" d="m22.882 59.224c4.019-.393 8.626-.934 11.57-3.983 20.778.169 30.2-24.19 14.125-37.5 6.986-7.035-6.437-8.517-10.34-4.663-16.5-3.187-32.506 11.485-5.981 12.14.65 6 8.489 12.6 10.966 3.678 10.9 9.539-1.517 24.643-13.949 21.827-3.206-.164-5.089 2.391-6.53 4.876-1.433 1.237-3.431 4.067.139 3.625zm23.472-47.069c3.5.577 3.452 2.582 1.325 4.9a20.7 20.7 0 0 0 -8.243-3.745 7.919 7.919 0 0 1 6.918-1.155zm-5.97 19.672c-1.648 2.771-6.781-4.405-6.6-6.408a22.059 22.059 0 0 1 8.422 2.781q-.906 1.815-1.822 3.627zm-17.484 25.03c2-1.749 2.528-5.235 5.523-5.581 6.166.283 12.929-.369 17.06-5.573 8.339-10.3-.139-20.613-11.816-21.086-3.316-.588-7.326-.249-10.716-1.311-1.8-.551-3.324-1.69-3.219-3.737 1.166-6.187 9.818-6.3 14.84-6.269 26.36 1.591 28.163 41.549-.1 41.424-1.273-.119-1.661 1.427-2.731 1.859-1.216 1.166-11.488 4.035-8.841.274z" fill="#262626" data-original="#262626" class=""></path><path xmlns="http://www.w3.org/2000/svg" d="m27.5 16.706c-2.371.3-3.131 3.792-.646 4.55 4.284 1.28 5.479-5.411.646-4.55zm.932 3.891.031-.01a.158.158 0 0 1 -.031.013zm.615-.575c-.168.267-.421.59-.759.589a1.644 1.644 0 0 1 -.169-.013c-1.676-.128-1.945-3.4-.079-3.163a1.833 1.833 0 0 1 1.007 2.587z" fill="#262626" data-original="#262626" class=""></path><path xmlns="http://www.w3.org/2000/svg" d="m29.268 41.482c.882 4.137 7.835.765 4.63-2.342-1.736-1.422-4.998-.065-4.63 2.342zm3.791.404a1.1 1.1 0 0 1 -.7.631c-1.214.2-1.917-1.373-1.49-2.352a1.1 1.1 0 0 1 .824-.74 1.471 1.471 0 0 1 1.217.681 1.732 1.732 0 0 1 .149 1.78z" fill="#262626" data-original="#262626" class=""></path></g></svg>