<svg xmlns="http://www.w3.org/2000/svg" version="1.1" xmlns:xlink="http://www.w3.org/1999/xlink" xmlns:svgjs="http://svgjs.com/svgjs" width="512" height="512" x="0" y="0" viewBox="0 0 60 60" style="enable-background:new 0 0 512 512" xml:space="preserve" class=""><g><path xmlns="http://www.w3.org/2000/svg" d="m30.478 59.459a.5.5 0 0 1 -.28-.915l8.49-5.718-11.161 6.444a.5.5 0 0 1 -.527-.852l7.852-5.118-9.752 5.628a.5.5 0 0 1 -.528-.849l11.316-7.559-13.444 7.76a.5.5 0 0 1 -.518-.854l5.227-3.326-6.306 3.642a.5.5 0 0 1 -.516-.856l2.414-1.514-3.2 1.846a.5.5 0 0 1 -.526-.851l11.271-7.426-12.669 7.32a.5.5 0 0 1 -.526-.849l12.992-8.639-14.364 8.292a.5.5 0 0 1 -.529-.847l12.141-8.155-13.288 7.671a.5.5 0 0 1 -.527-.848l9.49-6.315-10.233 5.908a.5.5 0 0 1 -.519-.854l3.328-2.134-3.586 2.072a.5.5 0 0 1 -.529-.847l7.062-4.754-7.449 4.3a.5.5 0 0 1 -.54-.84l7.747-5.529-8.115 4.684a.5.5 0 0 1 -.526-.85l.847-.558-.721.416a.5.5 0 0 1 -.527-.849l.495-.331-.282.163a.5.5 0 0 1 -.559-.826l4.486-3.523-3.838 2.215a.5.5 0 0 1 -.551-.834l6.855-5.071a.5.5 0 0 1 .225-.275l.7-.406a.5.5 0 0 1 .547.835l-.642.474 2.271-1.31a.5.5 0 0 1 .558.826l-4.484 3.522 7.536-4.35a.5.5 0 0 1 .528.848l-.5.333 2.049-1.183a.5.5 0 0 1 .526.85l-.85.56 2.444-1.411a.5.5 0 0 1 .54.84l-7.744 5.527 11.041-6.371a.5.5 0 0 1 .673.168.5.5 0 0 1 -.144.68l-7.061 4.754 9.707-5.6a.5.5 0 0 1 .52.853l-3.324 2.127 5.171-2.985a.5.5 0 0 1 .527.849l-9.494 6.316 12.416-7.168a.5.5 0 0 1 .528.848l-12.141 8.156 15.307-8.836a.5.5 0 0 1 .527.849l-12.986 8.633 13.63-7.869a.5.5 0 0 1 .525.851l-11.272 7.428 12.273-7.086a.5.5 0 0 1 .516.856l-2.4 1.506 3.024-1.746a.5.5 0 0 1 .519.854l-5.241 3.332 6.214-3.587a.5.5 0 0 1 .528.848l-11.313 7.556 12.433-7.178a.5.5 0 0 1 .523.852l-7.852 5.123 7.78-4.493a.5.5 0 0 1 .529.848l-8.493 5.723 7.362-4.25a.5.5 0 0 1 .523.851l-1.672 1.088.317-.182a.5.5 0 0 1 .545.836l-4.336 3.171 1.343-.775a.5.5 0 1 1 .5.865l-9.364 5.407a.5.5 0 0 1 -.545-.836l4.333-3.175-8.555 4.944a.5.5 0 0 1 -.522-.851l1.676-1.093-3.626 2.094a.5.5 0 0 1 -.25.065z" fill="#166875" data-original="#166875"></path><path xmlns="http://www.w3.org/2000/svg" d="m28.909 48.4a.5.5 0 0 1 -.291-.906l6.468-4.627-8.407 4.854a.5.5 0 0 1 -.53-.848l5.483-3.689-6.592 3.801a.5.5 0 0 1 -.535-.843l9.573-6.642-10.949 6.318a.5.5 0 0 1 -.527-.848l8.51-5.665-9.412 5.432a.5.5 0 0 1 -.523-.851l8.072-5.276-8.768 5.062a.5.5 0 0 1 -.522-.853l8.471-5.494-9.077 5.239a.5.5 0 0 1 -.515-.856l2.926-1.836-3.2 1.847a.5.5 0 0 1 -.524-.851l12.177-7.981-12.724 7.346a.5.5 0 0 1 -.521-.852l11.513-7.442-11.685 6.749a.5.5 0 0 1 -.523-.851l13.357-8.685-13.259 7.648a.5.5 0 0 1 -.514-.858l3.917-2.436-3.539 2.043a.5.5 0 0 1 -.512-.858l2.152-1.333-1.768 1.021a.5.5 0 0 1 -.515-.856l7.556-4.751-7.2 4.156a.5.5 0 0 1 -.517-.856l7.6-4.777-7.235 4.183a.5.5 0 0 1 -.518-.855l9.636-6.115-9.293 5.365a.5.5 0 0 1 -.515-.857l4.106-2.556-3.729 2.152a.5.5 0 0 1 -.513-.857l1.656-1.026-1.268.732a.5.5 0 0 1 -.518-.855l9.056-5.759-8.711 5.029a.5.5 0 0 1 -.518-.855l7.263-4.593-6.905 3.985a.5.5 0 0 1 -.519-.853l8.771-5.608-8.425 4.864a.5.5 0 0 1 -.526-.85l12.042-7.93-11.738 6.775a.5.5 0 0 1 -.521-.854l7.8-5.019-7.451 4.3a.5.5 0 0 1 -.52-.854l5.388-3.44-5 2.889a.5.5 0 0 1 -.528-.849l9.839-6.578-9.328 5.384a.5.5 0 0 1 -.527-.849l7.727-5.158-6.933 4a.5.5 0 0 1 -.528-.848l5.528-3.7-4.446 2.567a.5.5 0 0 1 -.544-.837l6.5-4.732-4.508 2.6a.5.5 0 0 1 -.562-.823l3.38-2.681a.494.494 0 0 1 -.36-.244.5.5 0 0 1 .183-.683l4.877-2.821a.5.5 0 0 1 .561.823l-2.803 2.239 6.96-4.018a.5.5 0 0 1 .544.837l-6.506 4.731 9.368-5.407a.5.5 0 0 1 .528.849l-5.529 3.7 7.094-4.1a.5.5 0 0 1 .528.849l-7.719 5.154 9.178-5.3a.5.5 0 0 1 .528.849l-9.839 6.579 11.193-6.466a.5.5 0 0 1 .519.855l-5.394 3.445 6.073-3.5a.5.5 0 0 1 .52.854l-7.8 5.02 8.49-4.9a.5.5 0 0 1 .525.851l-12.047 7.928 12.869-7.43a.5.5 0 0 1 .52.854l-8.762 5.6 9.176-5.3a.5.5 0 0 1 .518.855l-7.259 4.591 7.483-4.32a.5.5 0 0 1 .519.854l-9.064 5.764 9.228-5.321a.5.5 0 0 1 .513.857l-1.653 1.022 1.563-.9a.5.5 0 0 1 .514.858l-4.1 2.553 3.974-2.295a.5.5 0 0 1 .518.855l-9.639 6.114 9.48-5.473a.5.5 0 0 1 .516.856l-7.594 4.776 7.278-4.2a.5.5 0 0 1 .516.856l-7.563 4.754 7.09-4.092a.5.5 0 0 1 .513.857l-2.142 1.326 1.555-.9a.5.5 0 0 1 .513.857l-3.952 2.457 3.283-1.894a.5.5 0 0 1 .523.851l-13.344 8.678 12.577-7.261a.5.5 0 0 1 .522.853l-11.517 7.443 10.769-6.217a.5.5 0 0 1 .524.851l-12.178 7.982 11.41-6.586a.5.5 0 0 1 .515.856l-2.927 1.837 2.26-1.3a.5.5 0 0 1 .523.853l-8.47 5.494 7.742-4.47a.5.5 0 0 1 .524.852l-8.075 5.276 7.346-4.24a.5.5 0 0 1 .527.848l-8.5 5.658 7.751-4.475a.5.5 0 0 1 .536.844l-9.574 6.645 8.775-5.066a.5.5 0 0 1 .529.848l-5.487 3.692 4.712-2.72a.5.5 0 0 1 .541.839l-6.464 4.624 4.87-2.811a.5.5 0 0 1 .535.842l-2.468 1.712a.5.5 0 0 1 .216.932l-9.171 5.3a.5.5 0 0 1 -.535-.847l1.639-1.141-3.48 2.009a.491.491 0 0 1 -.25.071z" fill="#1c778c" data-original="#1c778c" class=""></path><path xmlns="http://www.w3.org/2000/svg" d="m21.939 27.37a.5.5 0 0 1 -.351-.855l2.2-2.181-3.455 2a.5.5 0 0 1 -.572-.814l1.407-1.189-1.605.926a.5.5 0 0 1 -.589-.8l1.636-1.518-1.314.758a.5.5 0 0 1 -.609-.78l.948-.979a.5.5 0 0 1 -.12-.915l2.342-1.353a.5.5 0 0 1 .61.78l-.574.593 2.067-1.193a.5.5 0 0 1 .59.8l-1.64 1.52 2.62-1.512a.5.5 0 0 1 .573.815l-1.403 1.181 1.94-1.119a.5.5 0 0 1 .6.788l-2.2 2.181 2.676-1.545a.5.5 0 0 1 .5.865l-6.027 3.476a.489.489 0 0 1 -.25.07z" fill="#e1efff" data-original="#e1efff" class=""></path><path xmlns="http://www.w3.org/2000/svg" d="m37.9 27.4a.5.5 0 0 1 -.355-.851l.438-.443-1.85 1.068a.5.5 0 0 1 -.616-.773l2.343-2.528-3.773 2.179a.5.5 0 0 1 -.595-.795l2.288-2.176-3.031 1.75a.5.5 0 0 1 -.621-.768l1.73-1.921-.512.3a.5.5 0 1 1 -.5-.865l3.244-1.877a.5.5 0 0 1 .621.768l-1.732 1.923 3.941-2.275a.5.5 0 0 1 .595.795l-2.288 2.175 3-1.731a.5.5 0 0 1 .616.772l-2.343 2.527 2.2-1.27a.5.5 0 0 1 .606.784l-.9.913a.5.5 0 0 1 .083.9l-2.338 1.35a.489.489 0 0 1 -.251.069z" fill="#e1efff" data-original="#e1efff" class=""></path><path xmlns="http://www.w3.org/2000/svg" d="m29.109 41.369a.5.5 0 0 1 -.35-.856l1.908-1.877-3.051 1.764a.5.5 0 0 1 -.589-.8l1.931-1.778-2.286 1.32a.5.5 0 0 1 -.608-.783l1.044-1.065-.807.466a.5.5 0 0 1 -.633-.76l.461-.55a.487.487 0 0 1 -.246-.214.5.5 0 0 1 .182-.682l1.656-.956a.5.5 0 0 1 .633.754l-.1.122 1.522-.878a.5.5 0 0 1 .608.782l-1.044 1.065 3.03-1.749a.5.5 0 0 1 .589.8l-1.928 1.774 2.534-1.462a.5.5 0 0 1 .6.789l-1.907 1.877 1.284-.742a.5.5 0 0 1 .5.866l-4.681 2.7a.489.489 0 0 1 -.252.073z" fill="#e1efff" data-original="#e1efff" class=""></path><g xmlns="http://www.w3.org/2000/svg" fill="#262626"><path d="m25.016 26.689a9.347 9.347 0 0 0 2.626-1.768c.665-.62 1.54-1.452.788-2.372-.009-.011-.027-.014-.038-.023s0-.018 0-.026a7.731 7.731 0 0 0 -4.578-2.753 5.41 5.41 0 0 0 -4.985 2.087 3.416 3.416 0 0 0 .691 4.458c1.533 1.324 3.743 1.155 5.496.397zm-5.11-4.427a2.737 2.737 0 0 1 2.971-1.934 7.692 7.692 0 0 1 4.117 2.628 1.108 1.108 0 0 1 .239 1.018 2.016 2.016 0 0 1 -.584.767 9.588 9.588 0 0 1 -1.673 1.368 3.192 3.192 0 0 1 -1.936.6 3.708 3.708 0 0 1 -1.979-.759 3.286 3.286 0 0 1 -1.155-3.688z" fill="#262626" data-original="#262626" class=""></path><path d="m32.124 25.047a9.99 9.99 0 0 0 2.132 1.653 5.381 5.381 0 0 0 5.649-.106 3.8 3.8 0 0 0 1.588-4.494 4.382 4.382 0 0 0 -4.348-2.55c-2.168.089-4.082 1.556-5.478 3.107a.333.333 0 0 0 -.039.064c-.017.018-.037.032-.052.051a1.374 1.374 0 0 0 -.236 1.29 2.932 2.932 0 0 0 .784.985zm4.017-4.455a3.311 3.311 0 0 1 3.59 1.317 2.991 2.991 0 0 1 -.2 3.668 3.074 3.074 0 0 1 -3.67.6 7.994 7.994 0 0 1 -2.077-1.416c-.507-.464-1.384-1.129-.868-1.857a7.459 7.459 0 0 1 3.225-2.312z" fill="#262626" data-original="#262626" class=""></path><path d="m25.281 37.417a4.292 4.292 0 0 0 4.244 3.925.947.947 0 0 0 .18.016 5.044 5.044 0 0 0 4.838-3.282 2.759 2.759 0 0 0 -.314-2.606 2.544 2.544 0 0 0 -2.042-.828c-1.186-.006-2.372 0-3.557 0-1.672 0-3.452.871-3.349 2.775zm6.767-2a1.853 1.853 0 0 1 1.228 1.773 3.332 3.332 0 0 1 -2.976 3.452 3.733 3.733 0 0 1 -3.426-2.756 2.367 2.367 0 0 1 .243-2.164.9.9 0 0 1 .857-.364h3.108a3.209 3.209 0 0 1 .966.063z" fill="#262626" data-original="#262626" class=""></path><path d="m46.711 40.826a6.68 6.68 0 0 1 -2.5-2.77c.748-2.317.768-5 1.02-7.32q.608-5.585 1.216-11.17c.4-3.7.3-7.218-1.559-10.582-5.337-9.658-19.132-10.884-26.869-3.469a15.372 15.372 0 0 0 -4.642 12.739c.309 3.016.656 6.027.984 9.04.336 3.086.634 6.179 1.009 9.26a8.754 8.754 0 0 0 .425 1.829 6.249 6.249 0 0 1 -2.1 2.462c-1.251.9-2.838 1.125-4.063 2.015-2.068 1.5-1.247 3.919-.3 5.857 2.216 4.544 6.7 7.594 11.382 9.178 9.633 3.259 23.108 1.1 29.041-7.918 1.182-1.8 2.951-4.963 1.211-6.9-1.066-1.177-2.94-1.389-4.255-2.251zm-31.666-20.947c-.344-3.158-.481-6.185.752-9.218a15.069 15.069 0 0 1 12.219-9.231 15.961 15.961 0 0 1 13.73 5.5 15.071 15.071 0 0 1 3.405 11.5c-.312 2.927-.637 5.853-.956 8.78-.336 3.095-.631 6.2-1.011 9.287a10.55 10.55 0 0 1 -3.584 6.336c-2.51 2.444-5.669 4.748-9.3 4.825-3.149-.066-5.994-1.754-8.35-3.721-2.173-1.815-4.35-3.937-4.975-6.794a64.5 64.5 0 0 1 -.8-6.838q-.562-5.214-1.13-10.426zm34.547 27.946c-1.836 4.509-6.009 7.694-10.471 9.351-9.347 3.469-22.947 1.11-28.062-8.312a12.581 12.581 0 0 1 -1.2-3.049 2.767 2.767 0 0 1 .2-2.084c.526-.929 1.5-1.146 2.407-1.53a10.249 10.249 0 0 0 3.842-2.635 12.315 12.315 0 0 0 2.18 2.934 20.826 20.826 0 0 0 7.09 5.03 11.806 11.806 0 0 0 4.122.81 14.574 14.574 0 0 0 7.839-2.749 19.925 19.925 0 0 0 5.89-5.751c.032-.054.053-.115.084-.17a9.235 9.235 0 0 0 3.6 2.6c1.168.513 2.416.753 2.962 2.065.467 1.127-.049 2.424-.483 3.49z" fill="#262626" data-original="#262626" class=""></path></g></g></svg>