<svg xmlns="http://www.w3.org/2000/svg" version="1.1" xmlns:xlink="http://www.w3.org/1999/xlink" xmlns:svgjs="http://svgjs.com/svgjs" width="512" height="512" x="0" y="0" viewBox="0 0 60 60" style="enable-background:new 0 0 512 512" xml:space="preserve" class=""><g><path xmlns="http://www.w3.org/2000/svg" d="m20.882 59.47a.5.5 0 0 1 -.267-.923l5.058-3.194-7.015 4.047a.5.5 0 0 1 -.513-.857l1.16-.72-2.734 1.577a.5.5 0 0 1 -.513-.857l1.942-1.204-3.574 2.061a.5.5 0 0 1 -.524-.851l13.2-8.627-16.422 9.478a.5.5 0 0 1 -.514-.857l3.265-2.023-4.99 2.88a.5.5 0 0 1 -.514-.857l5.95-3.706-7.518 4.34a.5.5 0 0 1 -.522-.852l15.215-9.909-15.77 9.1a.5.5 0 0 1 -.521-.852l12.769-8.248-11.984 6.919a.5.5 0 0 1 -.526-.849l12.163-8.086-11.308 6.531a.5.5 0 0 1 -.521-.854l4.746-3.045-3.87 2.235a.5.5 0 0 1 -.537-.843l8.218-5.744-6.57 3.791a.5.5 0 0 1 -.576-.812l3.743-3.214a.5.5 0 0 1 -.411-.906l4.517-2.608a.5.5 0 0 1 .576.811l-3.7 3.182 11.936-6.891a.5.5 0 0 1 .536.843l-8.216 5.742 12.154-7.018a.5.5 0 0 1 .521.853l-4.749 3.047 6.765-3.9a.5.5 0 0 1 .526.848l-12.156 8.076 15.464-8.924a.5.5 0 0 1 .522.852l-12.77 8.248 14.667-8.466a.5.5 0 0 1 .523.852l-15.219 9.914 17.214-9.94a.5.5 0 0 1 .515.857l-5.967 3.716 7.028-4.057a.5.5 0 0 1 .514.858l-3.261 2.02 4.175-2.41a.5.5 0 0 1 .523.852l-13.189 8.623 15.054-8.693a.5.5 0 0 1 .513.858l-1.974 1.225 2.743-1.583a.5.5 0 0 1 .513.858l-1.146.712 1.758-1.015a.5.5 0 0 1 .516.855l-5.047 3.188 5.733-3.31a.5.5 0 0 1 .517.856l-3.156 1.987 3.63-2.093a.5.5 0 0 1 .519.855l-4.34 2.762 4.773-2.755a.5.5 0 0 1 .53.847l-9.147 6.15 9.8-5.66a.5.5 0 0 1 .526.85l-6.11 4.051 6.426-3.709a.5.5 0 0 1 .519.853l-.169.109.152-.087a.5.5 0 0 1 .523.851l-1.3.85 1.247-.719a.5.5 0 0 1 .546.835l-6.281 4.635 6.366-3.675a.5.5 0 0 1 .559.826l-4.81 3.767 4.636-2.676a.5.5 0 0 1 .55.832l-1.645 1.234 1.275-.736a.5.5 0 0 1 .577.811l-1.666 1.44 1.292-.745a.5.5 0 0 1 .593.8l-.461.435.025-.015a.5.5 0 1 1 .5.865l-3.741 2.155a.5.5 0 0 1 -.593-.8l.462-.435-2.133 1.235a.5.5 0 0 1 -.577-.81l1.667-1.442-3.9 2.252a.5.5 0 0 1 -.55-.832l1.641-1.232-3.581 2.064a.5.5 0 0 1 -.558-.826l4.805-3.765-7.954 4.591a.5.5 0 0 1 -.547-.835l6.283-4.635-9.477 5.47a.5.5 0 0 1 -.523-.851l1.294-.844-2.937 1.7a.5.5 0 0 1 -.519-.853l.177-.114-1.676.967a.5.5 0 0 1 -.527-.849l6.106-4.048-8.484 4.9a.5.5 0 0 1 -.529-.847l9.146-6.15-12.12 7a.5.5 0 0 1 -.518-.854l4.349-2.769-6.276 3.612a.5.5 0 0 1 -.517-.855l3.146-1.981-4.912 2.836a.5.5 0 0 1 -.25.07z" fill="#d4e6e7" data-original="#d4e6e7"></path><g xmlns="http://www.w3.org/2000/svg" fill="#30454d"><path d="m35.135 59.47a.5.5 0 0 1 -.3-.9l.05-.038-1.507.87a.5.5 0 0 1 -.6-.786l2.272-2.271-5.3 3.057a.5.5 0 0 1 -.565-.82l1.249-1.019-3.187 1.837a.5.5 0 0 1 -.564-.821l1.153-.932-3.036 1.753a.5.5 0 0 1 -.555-.829l.439-.337-2.022 1.166a.5.5 0 0 1 -.6-.787l2.253-2.236-5.24 3.023a.5.5 0 0 1 -.595-.8l2.155-2.045-4.922 2.845a.5.5 0 0 1 -.552-.831l.125-.094-1.6.925a.5.5 0 0 1 -.61-.78l2.3-2.38-5.476 3.16a.5.5 0 0 1 -.583-.8l1.9-1.7-4.28 2.474a.5.5 0 0 1 -.587-.8l2-1.828-2.821 1.624a.5.5 0 0 1 -.582-.807l.716-.634-.357.206a.5.5 0 0 1 -.726-.586l.567-1.761a.489.489 0 0 1 -.206-.195.5.5 0 0 1 .183-.683l.543-.313a.5.5 0 0 1 .726.586l-.463 1.437 3.507-2.02a.5.5 0 0 1 .582.806l-.718.637 2.5-1.444a.5.5 0 0 1 .588.8l-2 1.828 4.558-2.632a.5.5 0 0 1 .583.8l-1.9 1.705 4.339-2.5a.5.5 0 0 1 .609.78l-2.3 2.38 5.479-3.162a.5.5 0 0 1 .552.831l-.126.1 1.607-.928a.5.5 0 0 1 .595.8l-2.154 2.046 4.924-2.843a.5.5 0 0 1 .6.787l-2.255 2.218 5.24-3.025a.5.5 0 0 1 .555.829l-.442.339 2.027-1.169a.5.5 0 0 1 .564.821l-1.15.93 3.036-1.753a.5.5 0 0 1 .565.82l-1.25 1.019 3.188-1.84a.5.5 0 0 1 .6.786l-2.271 2.272 5.3-3.06a.5.5 0 0 1 .551.832l-.051.038 1.51-.871a.5.5 0 0 1 .61.779l-2.32 2.407 5.522-3.188a.5.5 0 0 1 .574.814l-1.652 1.411 3.857-2.227a.5.5 0 0 1 .558.827l-.712.556 2.4-1.384a.5.5 0 0 1 .555.828l-.538.416 2.017-1.164a.5.5 0 0 1 .607.783l-2.23 2.278 1.889-1.091a.5.5 0 0 1 .654.728l-.733 1 .029-.017a.5.5 0 0 1 .5.865l-2.079 1.2a.5.5 0 0 1 -.654-.727l.733-1-3 1.731a.5.5 0 0 1 -.608-.782l2.231-2.277-5.302 3.057a.5.5 0 0 1 -.556-.828l.538-.416-2.155 1.244a.5.5 0 0 1 -.558-.827l.712-.555-2.395 1.382a.5.5 0 0 1 -.574-.813l1.656-1.412-3.855 2.225a.5.5 0 0 1 -.61-.779l2.32-2.406-5.518 3.185a.493.493 0 0 1 -.25.07z" fill="#30454d" data-original="#30454d" class=""></path><path d="m25.612 48.47a.5.5 0 0 1 -.3-.9l.835-.614-2.508 1.444a.5.5 0 0 1 -.576-.812l2.826-2.415-5.589 3.227a.5.5 0 0 1 -.559-.826l2.023-1.586-4.182 2.412a.5.5 0 0 1 -.59-.8l3.148-2.917-6.44 3.717a.5.5 0 0 1 -.579-.808l2.949-2.582-5.87 3.39a.5.5 0 0 1 -.584-.8l3.054-2.744-4.856 2.8a.5.5 0 0 1 -.573-.814l2.874-2.425a.5.5 0 0 1 -.014-.874l3.369-1.943a.5.5 0 0 1 .572.814l-1.854 1.564 4.122-2.378a.5.5 0 0 1 .584.8l-3.054 2.745 6.145-3.545a.5.5 0 0 1 .579.808l-2.95 2.584 5.877-3.392a.5.5 0 0 1 .59.8l-3.146 2.917 6.438-3.717a.5.5 0 0 1 .559.826l-2.025 1.587 4.182-2.413a.5.5 0 0 1 .575.812l-2.824 2.41 5.591-3.222a.5.5 0 0 1 .547.835l-.835.614 2.511-1.449a.5.5 0 0 1 .56.825l-2.091 1.647 4.284-2.472a.5.5 0 0 1 .583.8l-3.03 2.7 6.076-3.5a.5.5 0 0 1 .56.825l-2.096 1.644 4.289-2.475a.5.5 0 0 1 .585.8l-3.074 2.782 5.206-3.005a.5.5 0 0 1 .571.815l-2.018 1.7 2.776-1.6a.5.5 0 0 1 .6.79l-1.718 1.678 2.373-1.37a.5.5 0 0 1 .628.1.5.5 0 0 1 .014.638l-1.032 1.309 1.486-.857a.5.5 0 0 1 .6.076.5.5 0 0 1 .086.6l-.324.582.393-.226a.487.487 0 0 1 .464-.018.5.5 0 0 1 .279.371l.08.494a.5.5 0 0 1 .234.933l-.375.216a.5.5 0 0 1 -.743-.352l-.067-.415-1.331.767a.5.5 0 0 1 -.687-.675l.324-.582-2.185 1.255a.5.5 0 0 1 -.643-.743l1.037-1.311-3.558 2.054a.5.5 0 0 1 -.6-.79l1.72-1.678-4.279 2.468a.5.5 0 0 1 -.571-.815l2.019-1.693-4.348 2.508a.5.5 0 0 1 -.585-.8l3.074-2.78-6.2 3.58a.5.5 0 0 1 -.56-.825l2.094-1.65-4.292 2.475a.5.5 0 0 1 -.655-.139.5.5 0 0 1 .072-.666l3.029-2.7-6.074 3.505a.5.5 0 0 1 -.559-.825l2.089-1.646-4.282 2.471a.493.493 0 0 1 -.25.07z" fill="#30454d" data-original="#30454d" class=""></path><path d="m20.213 12.5a.5.5 0 0 1 -.277-.916l2.655-1.773-4.311 2.489a.5.5 0 0 1 -.534-.844l5.368-3.71-4.788 2.764a.5.5 0 0 1 -.536-.843l3.393-2.367-2.532 1.457a.5.5 0 0 1 -.535-.844l.923-.639a.5.5 0 0 1 -.393-.873l2.546-2.216a.5.5 0 0 1 -.205-.931l3.828-2.21a.5.5 0 0 1 .579.81l-2.188 1.9 5.475-3.154a.5.5 0 0 1 .535.843l-.54.374 2.109-1.217a.5.5 0 0 1 .536.842l-3.394 2.368 5.355-3.092a.5.5 0 0 1 .534.844l-5.367 3.709 6.913-3.991a.5.5 0 0 1 .528.849l-2.655 1.771 3.449-1.99a.5.5 0 0 1 .545.836l-5.745 4.208 6.791-3.921a.5.5 0 0 1 .545.836l-4.177 3.057 4.757-2.746a.5.5 0 0 1 .542.839l-2.068 1.481 2.268-1.309a.5.5 0 0 1 .578.809l-3.388 2.944 3.658-2.112a.5.5 0 0 1 .588.8l-1.778 1.636 1.661-.959a.5.5 0 0 1 .685.679l-.927 1.631.495-.285a.5.5 0 1 1 .5.865l-2.09 1.206a.5.5 0 0 1 -.684-.679l.926-1.631-4.01 2.315a.5.5 0 0 1 -.588-.8l1.781-1.633-4.225 2.438a.5.5 0 0 1 -.578-.81l3.39-2.943-6.509 3.757a.5.5 0 0 1 -.542-.839l2.06-1.477-4.02 2.32a.5.5 0 0 1 -.545-.836l4.18-3.058-6.751 3.9a.5.5 0 0 1 -.545-.836l5.746-4.208-8.747 5.045a.494.494 0 0 1 -.25.07z" fill="#30454d" data-original="#30454d" class=""></path></g><path xmlns="http://www.w3.org/2000/svg" d="m28.856 43.365a.5.5 0 0 1 -.311-.891l.849-.675-1.758 1.014a.5.5 0 0 1 -.591-.8l3.241-3.02-4.221 2.437a.5.5 0 0 1 -.577-.811l1.375-1.19-1.351.78a.5.5 0 0 1 -.632-.756l1.02-1.204-.614.354a.507.507 0 0 1 -.557-.038.5.5 0 0 1 -.174-.529l.253-.909a.485.485 0 0 1 -.211-.2.5.5 0 0 1 .182-.683l.5-.29a.5.5 0 0 1 .732.566l-.167.6 2.039-1.177a.5.5 0 0 1 .632.756l-1.015 1.212 3.417-1.973a.5.5 0 0 1 .577.811l-1.375 1.19 3.48-2.008a.5.5 0 0 1 .591.8l-3.242 3.02 3.776-2.18a.5.5 0 0 1 .561.825l-.852.677.144-.083a.5.5 0 0 1 .6.788l-1.111 1.1a.49.49 0 0 1 .291.23.5.5 0 0 1 -.182.682l-2.544 1.469a.5.5 0 0 1 -.6-.788l.669-.671-2.595 1.5a.491.491 0 0 1 -.249.065z" fill="#d7aa91" data-original="#d7aa91"></path><path xmlns="http://www.w3.org/2000/svg" d="m29.936 38.467a.5.5 0 0 1 -.292-.906l3.237-2.328-4.86 2.806a.5.5 0 0 1 -.537-.843l4.416-3.086-5.6 3.231a.5.5 0 0 1 -.537-.842l6.335-4.44-7.476 4.315a.5.5 0 0 1 -.538-.842l5.9-4.148-6.873 3.968a.5.5 0 0 1 -.53-.847l3.32-2.252-3.957 2.284a.5.5 0 0 1 -.528-.849l1.741-1.164-2.157 1.244a.5.5 0 0 1 -.537-.842l4.038-2.836-4.448 2.567a.5.5 0 0 1 -.531-.846l.978-.661-1 .575a.5.5 0 0 1 -.53-.847l.127-.086a.5.5 0 0 1 -.547-.834l2.841-2.2-2.634 1.522a.5.5 0 0 1 -.594-.8l1.149-1.09-.794.458a.5.5 0 0 1 -.714-.62l.183-.457a.5.5 0 0 1 -.342-.241.5.5 0 0 1 .183-.683l.839-.484a.508.508 0 0 1 .578.056.5.5 0 0 1 .136.564l-.11.276 3.2-1.847a.5.5 0 0 1 .593.795l-1.151 1.093 5.345-3.085a.5.5 0 0 1 .556.828l-2.837 2.2 5.855-3.381a.5.5 0 0 1 .53.847l-.138.094 1.022-.59a.5.5 0 0 1 .53.846l-.977.661 1.962-1.132a.5.5 0 0 1 .537.842l-4.035 2.834 5.507-3.179a.5.5 0 0 1 .674.169.5.5 0 0 1 -.146.68l-1.733 1.166 2.8-1.614a.5.5 0 0 1 .531.847l-3.328 2.257 4.6-2.656a.5.5 0 0 1 .538.841l-5.9 4.151 7.658-4.426a.5.5 0 0 1 .537.842l-6.332 4.437 5.731-3.309a.5.5 0 0 1 .536.843l-4.416 3.087 3.537-2.042a.5.5 0 0 1 .542.839l-3.235 2.325 1.763-1.017a.5.5 0 1 1 .5.865l-10.441 6.03a.5.5 0 0 1 -.25.067z" fill="#e7bda0" data-original="#e7bda0" class=""></path><path xmlns="http://www.w3.org/2000/svg" d="m23.262 27.422a.5.5 0 0 1 -.282-.913l7.487-5.087-9.743 5.625a.5.5 0 0 1 -.52-.854l1.609-1.032-2.665 1.539a.5.5 0 0 1 -.534-.844l7.567-5.226-9.362 5.4a.5.5 0 0 1 -.527-.848l4.644-3.1-5.165 2.982a.5.5 0 0 1 -.544-.836l7-5.116-6.927 4a.5.5 0 0 1 -.53-.847l1.1-.739a.51.51 0 0 1 -.5-.208.5.5 0 0 1 .094-.67l3.836-3.148-1.327.766a.5.5 0 0 1 -.576-.812l.4-.343a.5.5 0 0 1 -.671-.626l.559-1.577a.5.5 0 0 1 -.1-.91l.693-.4a.5.5 0 0 1 .721.6l-.476 1.345 3.363-1.943a.5.5 0 0 1 .576.811l-.385.331 1.984-1.144a.5.5 0 0 1 .567.819l-3.828 3.143 6.875-3.969a.5.5 0 0 1 .529.847l-.746.5 2.342-1.349a.5.5 0 0 1 .545.836l-7 5.114 10.305-5.953a.5.5 0 0 1 .528.849l-4.644 3.1 6.849-3.954a.5.5 0 0 1 .534.844l-7.572 5.231 10.526-6.077a.5.5 0 0 1 .52.854l-1.591 1.022 2.993-1.727a.5.5 0 0 1 .531.845l-7.488 5.088 7.369-4.254a.5.5 0 0 1 .55.833l-5.891 4.416 5.136-2.962a.5.5 0 0 1 .557.828l-4.569 3.543 4.212-2.431a.5.5 0 0 1 .569.817l-3.695 3.058 4.945-2.855a.5.5 0 0 1 .568.819l-2.4 1.982 2.481-1.433a.5.5 0 0 1 .586.8l-.9.821.209-.121a.5.5 0 0 1 .5.866l-4.235 2.444a.5.5 0 0 1 -.586-.8l.9-.817-3.65 2.107a.5.5 0 0 1 -.568-.818l2.406-1.985-4.906 2.832a.5.5 0 0 1 -.568-.818l3.7-3.058-5.417 3.125a.5.5 0 0 1 -.557-.828l4.566-3.542-6.008 3.463a.5.5 0 0 1 -.55-.833l5.889-4.415-11.967 6.909a.5.5 0 0 1 -.25.068z" fill="#30454d" data-original="#30454d" class=""></path><path xmlns="http://www.w3.org/2000/svg" d="m27.848 15.47a.5.5 0 0 1 -.318-.887l.105-.086-1.569.9a.5.5 0 0 1 -.617-.771l1.406-1.524-3.976 2.3a.5.5 0 0 1 -.579-.802l.762-.677-2.574 1.477a.5.5 0 0 1 -.653-.727l1.481-2.027-4.544 2.623a.5.5 0 0 1 -.647-.735l1.392-1.827-1.237.714a.5.5 0 0 1 -.675-.7l.338-.546a.5.5 0 0 1 -.11-.913l1.161-.67a.494.494 0 0 1 .61.085.5.5 0 0 1 .065.611l-.167.269 1.673-.965a.5.5 0 0 1 .647.735l-1.391 1.833 4.438-2.56a.5.5 0 0 1 .653.727l-1.481 2.028 4.772-2.755a.5.5 0 0 1 .583.806l-.762.677 2.566-1.483a.5.5 0 0 1 .617.771l-1.406 1.524 3.981-2.295a.5.5 0 0 1 .567.819l-.105.086 1.569-.9a.5.5 0 0 1 .618.77l-1.414 1.535 4.007-2.31a.5.5 0 0 1 .6.793l-1.142 1.1 3.277-1.893a.5.5 0 0 1 .6.789l-1.213 1.194 3.325-1.919a.5.5 0 0 1 .585.8l-.773.7.826-.476a.494.494 0 0 1 .615.091.5.5 0 0 1 .05.62l-.712 1.059.047-.026a.5.5 0 0 1 .5.865l-1.919 1.103a.5.5 0 0 1 -.665-.712l.713-1.059-3.066 1.771a.5.5 0 0 1 -.585-.8l.776-.7-2.6 1.5a.5.5 0 0 1 -.6-.789l1.212-1.194-3.441 1.983a.5.5 0 0 1 -.6-.793l1.142-1.1-3.276 1.893a.5.5 0 0 1 -.619-.77l1.409-1.541-4 2.311a.493.493 0 0 1 -.252.07z" fill="#30454d" data-original="#30454d" class=""></path><path xmlns="http://www.w3.org/2000/svg" d="m23.609 23.332a.5.5 0 0 1 -.419-.772l1.119-1.722-1.934 1.116a.5.5 0 0 1 -.636-.751l.472-.571a.5.5 0 0 1 -.178-.928l1.879-1.085a.5.5 0 0 1 .636.751l-.277.335 1.342-.774a.5.5 0 0 1 .669.7l-1.118 1.721 1.546-.892a.5.5 0 1 1 .5.865l-3.351 1.935a.489.489 0 0 1 -.25.072z" fill="#e7bda0" data-original="#e7bda0" class=""></path><path xmlns="http://www.w3.org/2000/svg" d="m35.838 23.448a.507.507 0 0 1 -.352-.144.5.5 0 0 1 -.085-.6l.818-1.458-2.419 1.394a.5.5 0 0 1 -.7-.661l.842-1.65-.417.24a.5.5 0 0 1 -.5-.865l1.879-1.085a.5.5 0 0 1 .7.66l-.841 1.651 2.537-1.459a.5.5 0 0 1 .686.676l-.817 1.458.3-.174a.5.5 0 0 1 .5.865l-1.879 1.085a.489.489 0 0 1 -.252.067z" fill="#e7bda0" data-original="#e7bda0" class=""></path><path xmlns="http://www.w3.org/2000/svg" d="m54.119 48.766c-2.982-7.547-11.614-8.678-18.382-11.076.007-.456 0-.913 0-1.364 4.062-2.075 6.832-5.449 6.932-10.127 3.806-.494 4.066-6.119.082-6.5a25.01 25.01 0 0 0 .45-4.23c2.216-.462 2.263-5.36-.493-4.99-.176-7.314-7.528-10.708-14.043-9.724-5.039-.437-11.214 4.013-11.349 9.724-2.6-.264-3 4.8-.518 5.036a22.938 22.938 0 0 0 .412 4.3c-3.8.586-3.808 6.248.081 6.468a11.584 11.584 0 0 0 6.971 10.307c0 .409-.006.822 0 1.236-8.1 2.443-18.218 4.95-19.421 14.945-2.641 9.112 4.159 6.216 10.143 6.657q18.853 0 37.708 0c5.266-.363 2.244-7.508 1.427-10.662zm-.3 4.9h-47.678a15.892 15.892 0 0 1 1.414-5.228h44.724a14.493 14.493 0 0 1 1.538 5.227zm-10.052-12.242c.274.09.542.19.807.293h-10.129a4.927 4.927 0 0 0 1.231-2.944zm-2.534-30.96c-1.844.025-3.678.024-5.519.022-.078-3.1-.571-6.372-2.4-8.952a9.75 9.75 0 0 1 7.919 8.93zm-11.028-9.186c3.611.382 3.7 6.274 4.047 9.208h-8.5c.119-3.2.589-6.742 2.812-9.2.536-.012 1.086-.008 1.641-.008zm-7.148 1.368a8.154 8.154 0 0 1 3.876-1.279c-1.976 2.579-2.529 5.948-2.647 9.119-1.849.01-3.683-.01-5.539-.042a9.87 9.87 0 0 1 4.31-7.798zm-6.324 9.607c.086-.729.1-.673.667-.739 7.934-.014 15.887.01 23.829 0 .763-.038 2.123-.357 2.038.858.021.216.162 2.056-.2 2.114h-24.361c-1.716.393-2.321-.547-1.973-2.233zm-.9 11.35c-.354-1.293.3-3.172 1.866-3.256.227-.012 1.1-.16 1.023-.541a24.719 24.719 0 0 1 -.474-4.244c7.838-.12 15.668-.014 23.505-.048-.8 8.125-.449 2.23 2.41 6.883 1.253 4.6-8.679 5.013-11.424 3.662a3.6 3.6 0 0 0 -4.863-.073c-2.74 1.514-10.788.802-12.041-2.386zm4.667 8.439a11.977 11.977 0 0 1 -1.636-5.317c3.584.689 7.6 1.151 10.692-1.1 3.486 2.118 7.709 1.954 11.663.855 0 4.917-3.118 7.836-6.953 9.9-4.78 3.241-10.421-.8-13.766-4.338zm7.874 6.2a9.613 9.613 0 0 0 5.9-1.108c1.325 6.8-9.446 7.034-8.532.251a10.053 10.053 0 0 0 2.636.856zm-4.083.406a5.1 5.1 0 0 0 .992 2.887h-9.854c2.887-1.126 5.945-1.919 8.871-2.888zm-11 3.819c4.741.42 10-.964 14.394.761 7.87.586 19.084-4.984 24.1 4.336h-43.767a13.431 13.431 0 0 1 5.273-5.098zm40.655 15.64c-11.269 1.314-23.4.029-34.953.466-3.819-.016-7.643.02-11.459 0-2.376-.173-1.65-2.627-1.482-4.237h47.855c.04 1.164.768 2.732.039 3.771z" fill="#262626" data-original="#262626" class=""></path><path xmlns="http://www.w3.org/2000/svg" d="m25.73 18.65c-4.83-1.36-6.3 5.43-.78 4.79 2.86-.14 3.92-4.04.78-4.79zm.5 2.7c-.38 1.95-3.75 1.21-3.48-.64a1.334 1.334 0 0 1 .24-.6 1.826 1.826 0 0 1 1.33-.62c.95-.08 2.12.84 1.91 1.86z" fill="#262626" data-original="#262626" class=""></path><path xmlns="http://www.w3.org/2000/svg" d="m35.924 23.361c2.874-.133 3.973-4.009.753-4.669-4.747-1.222-6.23 5.342-.753 4.669zm-1.908-3.353c1.188-1.634 4.317.379 2.892 2.081-1.255 1.411-4.087-.404-2.892-2.081z" fill="#262626" data-original="#262626" class=""></path></g></svg>